<?xml version="1.0" encoding="UTF-8" standalone="no"?>
<!-- Created with Inkscape (http://www.inkscape.org/) -->
<svg
   xmlns:dc="http://purl.org/dc/elements/1.1/"
   xmlns:cc="http://web.resource.org/cc/"
   xmlns:rdf="http://www.w3.org/1999/02/22-rdf-syntax-ns#"
   xmlns:svg="http://www.w3.org/2000/svg"
   xmlns="http://www.w3.org/2000/svg"
   xmlns:sodipodi="http://sodipodi.sourceforge.net/DTD/sodipodi-0.dtd"
   xmlns:inkscape="http://www.inkscape.org/namespaces/inkscape"
   version="1.0"
   width="729"
   height="625"
   id="svg2"
   sodipodi:version="0.32"
   inkscape:version="0.45.1"
   sodipodi:docname="blasenkammer.svg"
   inkscape:output_extension="org.inkscape.output.svg.inkscape"
   sodipodi:docbase="C:\Dokumente und Einstellungen\Pfaff\Desktop\Apian\Wiki\Blasenkammer">
  <metadata
     id="metadata66">
    <rdf:RDF>
      <cc:Work
         rdf:about="">
        <dc:format>image/svg+xml</dc:format>
        <dc:type
           rdf:resource="http://purl.org/dc/dcmitype/StillImage" />
      </cc:Work>
    </rdf:RDF>
  </metadata>
  <sodipodi:namedview
     inkscape:window-height="968"
     inkscape:window-width="1280"
     inkscape:pageshadow="2"
     inkscape:pageopacity="0.0"
     guidetolerance="10.0"
     gridtolerance="10.0"
     objecttolerance="10.0"
     borderopacity="1.0"
     bordercolor="#666666"
     pagecolor="#ffffff"
     id="base"
     inkscape:zoom="0.5"
     inkscape:cx="-99.29405"
     inkscape:cy="400.61226"
     inkscape:window-x="-4"
     inkscape:window-y="-4"
     inkscape:current-layer="layer1"
     showguides="false"
     inkscape:guide-bbox="true">
    <sodipodi:guide
       orientation="vertical"
       position="200.03793"
       id="guide2239" />
    <sodipodi:guide
       orientation="vertical"
       position="215.16995"
       id="guide2243" />
    <sodipodi:guide
       orientation="vertical"
       position="235.09993"
       id="guide2245" />
    <sodipodi:guide
       orientation="vertical"
       position="255.02991"
       id="guide2247" />
    <sodipodi:guide
       orientation="vertical"
       position="274.95988"
       id="guide2249" />
    <sodipodi:guide
       orientation="vertical"
       position="294.88986"
       id="guide2251" />
    <sodipodi:guide
       orientation="vertical"
       position="314.81984"
       id="guide2253" />
    <sodipodi:guide
       orientation="vertical"
       position="335.11889"
       id="guide2255" />
    <sodipodi:guide
       orientation="horizontal"
       position="498.68555"
       id="guide2259" />
    <sodipodi:guide
       orientation="vertical"
       position="244.89134"
       id="guide2261" />
  </sodipodi:namedview>
  <defs
     id="defs4" />
  <g
     id="layer1"
     transform="translate(-9.4504414,-1.116137)">
    <rect
       style="opacity:1;fill:#ffffff;fill-opacity:1;stroke:none;stroke-width:4;stroke-linejoin:round;stroke-miterlimit:4;stroke-dasharray:8, 8;stroke-dashoffset:0;stroke-opacity:1"
       id="rect2236"
       width="729"
       height="625"
       x="9.4504414"
       y="1.116137" />
    <text
       x="308.77423"
       y="38.747082"
       style="font-size:12px;font-style:normal;font-weight:normal;fill:#000000;fill-opacity:1;stroke:none;stroke-width:1px;stroke-linecap:butt;stroke-linejoin:miter;stroke-opacity:1;font-family:Bitstream Vera Sans"
       id="text2221"
       xml:space="preserve"><tspan
         x="308.77423"
         y="38.747082"
         style="font-size:28px"
         id="tspan2223">Kameras</tspan></text>
    <rect
       width="72.801628"
       height="46.99852"
       x="229.46336"
       y="8.2578154"
       style="opacity:1;fill:#ffffff;fill-opacity:1;stroke:#000000;stroke-width:2;stroke-linejoin:round;stroke-miterlimit:4;stroke-dasharray:none;stroke-dashoffset:4.4;stroke-opacity:1"
       id="rect2225" />
    <rect
       width="72.801628"
       height="46.99852"
       x="438.19205"
       y="7.7970452"
       style="opacity:1;fill:#ffffff;fill-opacity:1;stroke:#000000;stroke-width:2;stroke-linejoin:round;stroke-miterlimit:4;stroke-dasharray:none;stroke-dashoffset:4.4;stroke-opacity:1"
       id="rect3207" />
    <rect
       width="24.195601"
       height="25.11714"
       x="253.30562"
       y="55.13855"
       style="opacity:1;fill:#ffffff;fill-opacity:1;stroke:#000000;stroke-width:0.84288955;stroke-linejoin:round;stroke-miterlimit:4;stroke-dasharray:none;stroke-dashoffset:4.4;stroke-opacity:1"
       id="rect3209" />
    <rect
       width="24.195601"
       height="25.11714"
       x="463.57358"
       y="54.834702"
       style="opacity:1;fill:#ffffff;fill-opacity:1;stroke:#000000;stroke-width:0.84288955;stroke-linejoin:round;stroke-miterlimit:4;stroke-dasharray:none;stroke-dashoffset:4.4;stroke-opacity:1"
       id="rect3211" />
    <path
       style="opacity:1;fill:none;fill-opacity:1;stroke:#000000;stroke-width:2;stroke-linejoin:round;stroke-miterlimit:4;stroke-dasharray:none;stroke-dashoffset:4.4;stroke-opacity:1"
       d="M 580.3349,469.29199 L 580.3349,503.69983 L 161.03439,503.69983 L 161.03439,84.399338 L 161.03439,84.399338 L 580.3349,84.399338 L 580.3349,387.31949"
       id="path2247"
       transform="translate(9.4504418,6.7970452)" />
    <path
       d="M 170.48483,495.75226 L 584.25611,495.75226"
       style="fill:none;fill-rule:evenodd;stroke:#000000;stroke-width:1px;stroke-linecap:butt;stroke-linejoin:miter;stroke-opacity:1"
       id="path4184" />
    <path
       d="M 170.9456,101.33332 L 584.71688,101.33332"
       style="fill:none;fill-rule:evenodd;stroke:#000000;stroke-width:1px;stroke-linecap:butt;stroke-linejoin:miter;stroke-opacity:1"
       id="path4186" />
    <rect
       width="4.6203837"
       height="118.86779"
       x="167.71387"
       y="91.213539"
       style="opacity:1;fill:#000000;fill-opacity:1;stroke:#000000;stroke-width:1.98731399;stroke-linejoin:round;stroke-miterlimit:4;stroke-dasharray:none;stroke-dashoffset:4.4;stroke-opacity:1"
       id="rect4188" />
    <rect
       width="4.1274619"
       height="207.25847"
       x="168.42108"
       y="302.00833"
       style="opacity:1;fill:#000000;fill-opacity:1;stroke:#000000;stroke-width:2.48023629;stroke-linejoin:round;stroke-miterlimit:4;stroke-dasharray:none;stroke-dashoffset:4.4;stroke-opacity:1"
       id="rect5159" />
    <rect
       width="3.7580352"
       height="300.49377"
       x="584.22021"
       y="91.621208"
       style="opacity:1;fill:#000000;fill-opacity:1;stroke:#000000;stroke-width:2.84966302;stroke-linejoin:round;stroke-miterlimit:4;stroke-dasharray:none;stroke-dashoffset:4.4;stroke-opacity:1"
       id="rect5161" />
    <rect
       width="5.4631581"
       height="33.344727"
       x="583.36761"
       y="476.43295"
       style="opacity:1;fill:#000000;fill-opacity:1;stroke:#000000;stroke-width:1.14453959;stroke-linejoin:round;stroke-miterlimit:4;stroke-dasharray:none;stroke-dashoffset:4.4;stroke-opacity:1"
       id="rect5163" />
    <rect
       width="14.744634"
       height="82.93856"
       x="617.43152"
       y="392.53983"
       style="opacity:1;fill:#000000;fill-opacity:1;stroke:#000000;stroke-width:2;stroke-linejoin:round;stroke-miterlimit:4;stroke-dasharray:none;stroke-dashoffset:4.4;stroke-opacity:1"
       id="rect5167" />
    <rect
       width="95.840118"
       height="19.352331"
       x="631.25464"
       y="424.7937"
       style="opacity:1;fill:#000000;fill-opacity:1;stroke:#000000;stroke-width:2;stroke-linejoin:round;stroke-miterlimit:4;stroke-dasharray:none;stroke-dashoffset:4.4;stroke-opacity:1"
       id="rect5169" />
    <g
       transform="matrix(0.7277146,-0.6858801,0.6858801,0.7277146,-247.18801,198.7677)"
       id="g6152">
      <path
         d="M 86.624722,445.0676 C 86.624722,459.82722 74.65969,471.79225 59.900074,471.79225 C 45.140458,471.79225 33.175426,459.82722 33.175426,445.0676 C 33.175426,430.30798 45.140458,418.34295 59.900074,418.34295 C 74.65969,418.34295 86.624722,430.30798 86.624722,445.0676 z "
         transform="matrix(0.833805,0,0,0.833805,11.798172,17.754097)"
         style="opacity:1;fill:none;fill-opacity:1;stroke:#000000;stroke-width:2;stroke-linejoin:round;stroke-miterlimit:4;stroke-dasharray:none;stroke-dashoffset:4.4;stroke-opacity:1"
         id="path5173" />
      <path
         d="M 61.743153,366.73672 L 61.743153,410.97062"
         style="fill:none;fill-rule:evenodd;stroke:#000000;stroke-width:1px;stroke-linecap:butt;stroke-linejoin:miter;stroke-opacity:1"
         id="path6144" />
      <path
         d="M 38.704663,387.93213 L 82.938564,387.93213"
         style="fill:none;fill-rule:evenodd;stroke:#000000;stroke-width:1px;stroke-linecap:butt;stroke-linejoin:miter;stroke-opacity:1"
         id="path6146" />
    </g>
    <text
       x="641.17615"
       y="416.34738"
       style="font-size:12px;font-style:normal;font-weight:normal;fill:#000000;fill-opacity:1;stroke:none;stroke-width:1px;stroke-linecap:butt;stroke-linejoin:miter;stroke-opacity:1;font-family:Bitstream Vera Sans"
       id="text6157"
       xml:space="preserve"><tspan
         x="641.17615"
         y="416.34738"
         style="font-size:28px"
         id="tspan6159">Kolben</tspan></text>
    <text
       x="7.3723168"
       y="492.0661"
       style="font-size:12px;font-style:normal;font-weight:normal;fill:#000000;fill-opacity:1;stroke:none;stroke-width:1px;stroke-linecap:butt;stroke-linejoin:miter;stroke-opacity:1;font-family:Bitstream Vera Sans"
       id="text6161"
       xml:space="preserve"><tspan
         x="7.3723168"
         y="492.0661"
         style="font-size:28px"
         id="tspan6165">Magnetfeld</tspan></text>
    <g
       transform="matrix(0.7277146,-0.6858801,0.6858801,0.7277146,-73.881186,-89.52965)"
       id="g6169">
      <path
         d="M 86.624722,445.0676 C 86.624722,459.82722 74.65969,471.79225 59.900074,471.79225 C 45.140458,471.79225 33.175426,459.82722 33.175426,445.0676 C 33.175426,430.30798 45.140458,418.34295 59.900074,418.34295 C 74.65969,418.34295 86.624722,430.30798 86.624722,445.0676 z "
         transform="matrix(0.833805,0,0,0.833805,11.798172,17.754097)"
         style="opacity:1;fill:none;fill-opacity:1;stroke:#000000;stroke-width:2;stroke-linejoin:round;stroke-miterlimit:4;stroke-dasharray:none;stroke-dashoffset:4.4;stroke-opacity:1"
         id="path6171" />
      <path
         d="M 61.743153,366.73672 L 61.743153,410.97062"
         style="fill:none;fill-rule:evenodd;stroke:#000000;stroke-width:1px;stroke-linecap:butt;stroke-linejoin:miter;stroke-opacity:1"
         id="path6173" />
      <path
         d="M 38.704663,387.93213 L 82.938564,387.93213"
         style="fill:none;fill-rule:evenodd;stroke:#000000;stroke-width:1px;stroke-linecap:butt;stroke-linejoin:miter;stroke-opacity:1"
         id="path6175" />
    </g>
    <g
       transform="matrix(0.7277146,-0.6858801,0.6858801,0.7277146,59.742058,-91.372728)"
       id="g6177">
      <path
         d="M 86.624722,445.0676 C 86.624722,459.82722 74.65969,471.79225 59.900074,471.79225 C 45.140458,471.79225 33.175426,459.82722 33.175426,445.0676 C 33.175426,430.30798 45.140458,418.34295 59.900074,418.34295 C 74.65969,418.34295 86.624722,430.30798 86.624722,445.0676 z "
         transform="matrix(0.833805,0,0,0.833805,11.798172,17.754097)"
         style="opacity:1;fill:none;fill-opacity:1;stroke:#000000;stroke-width:2;stroke-linejoin:round;stroke-miterlimit:4;stroke-dasharray:none;stroke-dashoffset:4.4;stroke-opacity:1"
         id="path6179" />
      <path
         d="M 61.743153,366.73672 L 61.743153,410.97062"
         style="fill:none;fill-rule:evenodd;stroke:#000000;stroke-width:1px;stroke-linecap:butt;stroke-linejoin:miter;stroke-opacity:1"
         id="path6181" />
      <path
         d="M 38.704663,387.93213 L 82.938564,387.93213"
         style="fill:none;fill-rule:evenodd;stroke:#000000;stroke-width:1px;stroke-linecap:butt;stroke-linejoin:miter;stroke-opacity:1"
         id="path6183" />
    </g>
    <g
       transform="matrix(0.7277146,-0.6858801,0.6858801,0.7277146,193.36531,-89.52965)"
       id="g6185">
      <path
         d="M 86.624722,445.0676 C 86.624722,459.82722 74.65969,471.79225 59.900074,471.79225 C 45.140458,471.79225 33.175426,459.82722 33.175426,445.0676 C 33.175426,430.30798 45.140458,418.34295 59.900074,418.34295 C 74.65969,418.34295 86.624722,430.30798 86.624722,445.0676 z "
         transform="matrix(0.833805,0,0,0.833805,11.798172,17.754097)"
         style="opacity:1;fill:none;fill-opacity:1;stroke:#000000;stroke-width:2;stroke-linejoin:round;stroke-miterlimit:4;stroke-dasharray:none;stroke-dashoffset:4.4;stroke-opacity:1"
         id="path6187" />
      <path
         d="M 61.743153,366.73672 L 61.743153,410.97062"
         style="fill:none;fill-rule:evenodd;stroke:#000000;stroke-width:1px;stroke-linecap:butt;stroke-linejoin:miter;stroke-opacity:1"
         id="path6189" />
      <path
         d="M 38.704663,387.93213 L 82.938564,387.93213"
         style="fill:none;fill-rule:evenodd;stroke:#000000;stroke-width:1px;stroke-linecap:butt;stroke-linejoin:miter;stroke-opacity:1"
         id="path6191" />
    </g>
    <g
       transform="matrix(0.7277146,-0.6858801,0.6858801,0.7277146,-72.585844,168.7309)"
       id="g6193">
      <path
         d="M 86.624722,445.0676 C 86.624722,459.82722 74.65969,471.79225 59.900074,471.79225 C 45.140458,471.79225 33.175426,459.82722 33.175426,445.0676 C 33.175426,430.30798 45.140458,418.34295 59.900074,418.34295 C 74.65969,418.34295 86.624722,430.30798 86.624722,445.0676 z "
         transform="matrix(0.833805,0,0,0.833805,11.798172,17.754097)"
         style="opacity:1;fill:none;fill-opacity:1;stroke:#000000;stroke-width:2;stroke-linejoin:round;stroke-miterlimit:4;stroke-dasharray:none;stroke-dashoffset:4.4;stroke-opacity:1"
         id="path6195" />
      <path
         d="M 61.743153,366.73672 L 61.743153,410.97062"
         style="fill:none;fill-rule:evenodd;stroke:#000000;stroke-width:1px;stroke-linecap:butt;stroke-linejoin:miter;stroke-opacity:1"
         id="path6197" />
      <path
         d="M 38.704663,387.93213 L 82.938564,387.93213"
         style="fill:none;fill-rule:evenodd;stroke:#000000;stroke-width:1px;stroke-linecap:butt;stroke-linejoin:miter;stroke-opacity:1"
         id="path6199" />
    </g>
    <g
       transform="matrix(0.7277146,-0.6858801,0.6858801,0.7277146,59.742061,169.42298)"
       id="g6205">
      <path
         d="M 86.624722,445.0676 C 86.624722,459.82722 74.65969,471.79225 59.900074,471.79225 C 45.140458,471.79225 33.175426,459.82722 33.175426,445.0676 C 33.175426,430.30798 45.140458,418.34295 59.900074,418.34295 C 74.65969,418.34295 86.624722,430.30798 86.624722,445.0676 z "
         transform="matrix(0.833805,0,0,0.833805,11.798172,17.754097)"
         style="opacity:1;fill:none;fill-opacity:1;stroke:#000000;stroke-width:2;stroke-linejoin:round;stroke-miterlimit:4;stroke-dasharray:none;stroke-dashoffset:4.4;stroke-opacity:1"
         id="path6207" />
      <path
         d="M 61.743153,366.73672 L 61.743153,410.97062"
         style="fill:none;fill-rule:evenodd;stroke:#000000;stroke-width:1px;stroke-linecap:butt;stroke-linejoin:miter;stroke-opacity:1"
         id="path6209" />
      <path
         d="M 38.704663,387.93213 L 82.938564,387.93213"
         style="fill:none;fill-rule:evenodd;stroke:#000000;stroke-width:1px;stroke-linecap:butt;stroke-linejoin:miter;stroke-opacity:1"
         id="path6211" />
    </g>
    <g
       transform="matrix(0.7277146,-0.6858801,0.6858801,0.7277146,185.07145,170.34452)"
       id="g6213">
      <path
         d="M 86.624722,445.0676 C 86.624722,459.82722 74.65969,471.79225 59.900074,471.79225 C 45.140458,471.79225 33.175426,459.82722 33.175426,445.0676 C 33.175426,430.30798 45.140458,418.34295 59.900074,418.34295 C 74.65969,418.34295 86.624722,430.30798 86.624722,445.0676 z "
         transform="matrix(0.833805,0,0,0.833805,11.798172,17.754097)"
         style="opacity:1;fill:none;fill-opacity:1;stroke:#000000;stroke-width:2;stroke-linejoin:round;stroke-miterlimit:4;stroke-dasharray:none;stroke-dashoffset:4.4;stroke-opacity:1"
         id="path6215" />
      <path
         d="M 61.743153,366.73672 L 61.743153,410.97062"
         style="fill:none;fill-rule:evenodd;stroke:#000000;stroke-width:1px;stroke-linecap:butt;stroke-linejoin:miter;stroke-opacity:1"
         id="path6217" />
      <path
         d="M 38.704663,387.93213 L 82.938564,387.93213"
         style="fill:none;fill-rule:evenodd;stroke:#000000;stroke-width:1px;stroke-linecap:butt;stroke-linejoin:miter;stroke-opacity:1"
         id="path6219" />
    </g>
    <text
       x="-230.27327"
       y="78.833183"
       transform="matrix(0,-1,1,0,0,0)"
       style="font-size:12px;font-style:normal;font-weight:normal;fill:#000000;fill-opacity:1;stroke:none;stroke-width:1px;stroke-linecap:butt;stroke-linejoin:miter;stroke-opacity:1;font-family:Bitstream Vera Sans"
       id="text6221"
       xml:space="preserve"><tspan
         x="-230.27327"
         y="78.833183"
         style="font-size:28px;writing-mode:lr-tb"
         id="tspan6223">Teilchenstrahl</tspan></text>
    <path
       d="M 19.352332,235.8781 L 172.32791,269.05352"
       style="fill:none;fill-rule:evenodd;stroke:#000000;stroke-width:4;stroke-linecap:butt;stroke-linejoin:miter;stroke-miterlimit:4;stroke-dasharray:none;stroke-opacity:1"
       id="path6225" />
    <path
       d="M 489.33753,335.40437 L 172.32791,270.8966"
       style="fill:none;fill-rule:evenodd;stroke:#000000;stroke-width:4;stroke-linecap:butt;stroke-linejoin:miter;stroke-miterlimit:4;stroke-dasharray:12, 12;stroke-dashoffset:0;stroke-opacity:1"
       id="path6227" />
    <text
       x="341.82129"
       y="611.92474"
       style="font-size:12px;font-style:normal;font-weight:normal;fill:#000000;fill-opacity:1;stroke:none;stroke-width:1px;stroke-linecap:butt;stroke-linejoin:miter;stroke-opacity:1;font-family:Bitstream Vera Sans"
       id="text7231"
       xml:space="preserve"><tspan
         x="341.82129"
         y="611.92474"
         style="font-size:28px"
         id="tspan7233">Blitz</tspan></text>
    <path
       d="M 200.6609,588.07758 C 200.6609,588.07758 200.48354,561.06636 200.8281,553.65833 C 201.22512,540.47083 214.58813,522.00093 225.6466,522.00093 C 236.70508,522.00093 244.86009,539.10831 244.92035,553.88159 C 244.98049,568.62622 240.38195,579.168 230.24502,579.168 C 220.10808,579.168 215.43447,569.53027 215.65322,553.73625 C 215.87196,538.11511 231.86187,522.30371 244.76342,522.30371 C 257.66498,522.30371 266.64287,538.04018 266.64287,553.70635 C 266.64287,569.37252 259.46715,579.09461 249.33022,579.09461 C 239.19328,579.09461 235.07068,573.04044 235.07068,553.68811 C 235.07068,539.84873 251.1326,522.09981 264.95569,522.09981 C 278.77879,522.09981 286.66596,540.95264 286.66596,553.85419 C 286.66596,566.75574 278.18237,579.03447 269.88851,579.03447 C 261.59465,579.03447 255.24472,568.34907 255.24472,553.60444 C 255.24472,538.85981 270.80102,522.2487 284.79123,522.05293 C 297.72439,521.87195 305.93984,538.0311 305.93984,553.69727 C 305.93984,569.36344 296.83744,579.09461 288.49158,579.03447 C 281.97549,578.98652 274.84839,568.37153 275.14095,553.79918 C 275.40228,541.1971 287.08103,522.81536 300.99206,522.25111 C 314.60028,522.79543 320.51953,536.36798 320.93337,553.64685 C 321.34208,570.53938 316.26992,578.99588 308.28643,578.99588 C 300.30293,578.99588 294.1594,571.79018 294.54043,553.83136 C 294.88499,537.76358 305.64281,521.69089 314.71725,521.99115 C 325.68447,522.35404 334.36658,545.51873 334.36658,553.13934 C 334.36658,560.75995 333.85891,587.90492 333.85891,587.90492"
       style="fill:none;fill-rule:evenodd;stroke:#000000;stroke-width:1px;stroke-linecap:butt;stroke-linejoin:miter;stroke-opacity:1"
       id="path7235"
       sodipodi:nodetypes="ccssscssssssssssscccscssc" />
    <path
       d="M 281,293.36218 C 281,293.36218 373,296.36218 418,274.36218 C 463,252.36218 504,205.36218 504,205.36218"
       style="fill:none;fill-rule:evenodd;stroke:#000000;stroke-width:4;stroke-linecap:butt;stroke-linejoin:miter;stroke-miterlimit:4;stroke-dasharray:8, 8;stroke-dashoffset:0;stroke-opacity:1"
       id="path7245" />
    <path
       d="M 364.5,309.29331 C 364.5,309.29331 450.5,308.29331 502.5,300.29331 C 552.00746,292.67678 584.5,285.29331 584.5,285.29331"
       style="fill:none;fill-rule:evenodd;stroke:#000000;stroke-width:4;stroke-linecap:butt;stroke-linejoin:miter;stroke-miterlimit:4;stroke-dasharray:8, 8;stroke-dashoffset:0;stroke-opacity:1"
       id="path9185" />
    <path
       d="M 284,292.36218 C 284,292.36218 324.2,307.76544 367,338.36218 C 402.50746,363.74565 420,387.36218 420,387.36218"
       style="fill:none;fill-rule:evenodd;stroke:#000000;stroke-width:4;stroke-linecap:butt;stroke-linejoin:miter;stroke-miterlimit:4;stroke-dasharray:8, 8;stroke-dashoffset:0;stroke-opacity:1"
       id="path9187" />
    <path
       d="M 229,283.36218 C 227.09474,283.91371 227.31657,281.06603 228.08333,280.19552 C 230.16121,277.83647 233.84216,279.30146 235.33333,281.52885 C 238.00069,285.51313 235.67771,290.76276 231.75,292.86218 C 225.98594,295.94316 218.98458,292.66625 216.33333,287.02886 C 212.79964,279.51509 217.06404,270.71068 224.41666,267.52885 C 233.66918,263.52484 244.298,268.79115 248,277.86217 C 252.48361,288.8484 246.208,301.31261 235.41668,305.52885 C 222.69948,310.49753 208.39343,303.20835 203.66667,290.69553 C 198.20944,276.24898 206.51487,260.097 220.74999,254.86219 C 236.92483,248.91405 254.92552,258.23753 260.66666,274.1955 C 267.10735,292.09793 256.76458,311.94932 239.08335,318.19551 C 219.45383,325.12997 197.75031,313.76699 191,294.3622"
       transform="matrix(0.2586808,0.9659628,0.9659628,-0.2586808,-107.76337,173.72219)"
       style="fill:none;fill-rule:evenodd;stroke:#000000;stroke-width:4;stroke-linecap:butt;stroke-linejoin:miter;stroke-miterlimit:4;stroke-dasharray:8.00000045, 8.00000045;stroke-dashoffset:0;stroke-opacity:1"
       id="path11127" />
    <path
       d="M 412.16998,589.40747 C 412.16998,589.40747 411.99262,562.39625 412.33718,554.98822 C 412.7342,541.80072 426.09721,523.33082 437.15568,523.33082 C 448.21416,523.33082 456.36917,540.4382 456.42943,555.21148 C 456.48957,569.95611 451.89103,580.49789 441.7541,580.49789 C 431.61716,580.49789 426.94355,570.86016 427.1623,555.06614 C 427.38104,539.445 443.37095,523.6336 456.2725,523.6336 C 469.17406,523.6336 478.15195,539.37007 478.15195,555.03624 C 478.15195,570.70241 470.97623,580.4245 460.8393,580.4245 C 450.70236,580.4245 446.57976,574.37033 446.57976,555.018 C 446.57976,541.17862 462.64168,523.4297 476.46477,523.4297 C 490.28787,523.4297 498.17504,542.28253 498.17504,555.18408 C 498.17504,568.08563 489.69145,580.36436 481.39759,580.36436 C 473.10373,580.36436 466.7538,569.67896 466.7538,554.93433 C 466.7538,540.1897 482.3101,523.57859 496.30031,523.38282 C 509.23347,523.20184 517.44892,539.36099 517.44892,555.02716 C 517.44892,570.69333 508.34652,580.4245 500.00066,580.36436 C 493.48457,580.31641 486.35747,569.70142 486.65003,555.12907 C 486.91136,542.52699 498.59011,524.14525 512.50114,523.581 C 526.10936,524.12532 532.02861,537.69787 532.44245,554.97674 C 532.85116,571.86927 527.779,580.32577 519.79551,580.32577 C 511.81201,580.32577 505.66848,573.12007 506.04951,555.16125 C 506.39407,539.09347 517.15189,523.02078 526.22633,523.32104 C 537.19355,523.68393 545.87566,546.84862 545.87566,554.46923 C 545.87566,562.08984 545.36799,589.23481 545.36799,589.23481"
       style="fill:none;fill-rule:evenodd;stroke:#000000;stroke-width:1px;stroke-linecap:butt;stroke-linejoin:miter;stroke-opacity:1"
       id="path2263"
       sodipodi:nodetypes="ccssscssssssssssscccscssc" />
    <path
       style="fill:none;fill-rule:evenodd;stroke:#000000;stroke-width:1px;stroke-linecap:butt;stroke-linejoin:miter;stroke-opacity:1"
       d="M 588.45044,391.11614 L 723.45044,391.11614"
       id="path2249" />
    <path
       style="fill:none;fill-rule:evenodd;stroke:#000000;stroke-width:1px;stroke-linecap:butt;stroke-linejoin:miter;stroke-opacity:1"
       d="M 589.95044,476.11614 L 724.95044,476.11614"
       id="path2251" />
  </g>
</svg>
