<?xml version="1.0" encoding="UTF-8" standalone="no"?>
<!-- Created with Inkscape (http://www.inkscape.org/) -->

<svg
   xmlns:dc="http://purl.org/dc/elements/1.1/"
   xmlns:cc="http://creativecommons.org/ns#"
   xmlns:rdf="http://www.w3.org/1999/02/22-rdf-syntax-ns#"
   xmlns:svg="http://www.w3.org/2000/svg"
   xmlns="http://www.w3.org/2000/svg"
   xmlns:sodipodi="http://sodipodi.sourceforge.net/DTD/sodipodi-0.dtd"
   xmlns:inkscape="http://www.inkscape.org/namespaces/inkscape"
   id="svg2"
   version="1.1"
   inkscape:version="0.48.4 r9939"
   width="232.25836"
   height="169.5428"
   sodipodi:docname="mm.svg">
  <sodipodi:namedview
     pagecolor="#ffffff"
     bordercolor="#666666"
     borderopacity="1"
     objecttolerance="10"
     gridtolerance="10"
     guidetolerance="10"
     inkscape:pageopacity="0"
     inkscape:pageshadow="2"
     inkscape:window-width="1440"
     inkscape:window-height="851"
     id="namedview4"
     showgrid="false"
     inkscape:zoom="3.6203867"
     inkscape:cx="119.96085"
     inkscape:cy="87.088137"
     inkscape:window-x="0"
     inkscape:window-y="25"
     inkscape:window-maximized="1"
     inkscape:current-layer="svg2"
     fit-margin-top="0"
     fit-margin-left="0"
     fit-margin-right="0"
     fit-margin-bottom="0"
     showguides="true"
     inkscape:guide-bbox="true" />
  <metadata
     id="metadata8">
    <rdf:RDF>
      <cc:Work
         rdf:about="">
        <dc:format>image/svg+xml</dc:format>
        <dc:type
           rdf:resource="http://purl.org/dc/dcmitype/StillImage" />
        <dc:title />
      </cc:Work>
    </rdf:RDF>
  </metadata>
  <defs
     id="defs6">
    <marker
       inkscape:stockid="Arrow1Mend"
       orient="auto"
       refY="0"
       refX="0"
       id="Arrow1Mend"
       style="overflow:visible">
      <path
         id="path14358"
         d="M 0,0 5,-5 -12.5,0 5,5 0,0 z"
         style="fill-rule:evenodd;stroke:#000000;stroke-width:1pt"
         transform="matrix(-0.4,0,0,-0.4,-4,0)"
         inkscape:connector-curvature="0" />
    </marker>
    <marker
       inkscape:stockid="Arrow1Mend"
       orient="auto"
       refY="0"
       refX="0"
       id="Arrow1Mend-2"
       style="overflow:visible">
      <path
         inkscape:connector-curvature="0"
         id="path14358-3"
         d="M 0,0 5,-5 -12.5,0 5,5 0,0 z"
         style="fill-rule:evenodd;stroke:#000000;stroke-width:1pt"
         transform="matrix(-0.4,0,0,-0.4,-4,0)" />
    </marker>
  </defs>
  <rect
     style="fill:#9eff9e;fill-opacity:1;stroke:none;stroke-opacity:0.99607842999999996"
     id="rect14274"
     width="156.66293"
     height="29.928787"
     x="0"
     y="139.75026" />
  <g
     id="g4042"
     transform="matrix(0.5294027,0,0,0.5294027,-238.27242,-90.084574)">
    <path
       sodipodi:type="arc"
       style="fill:#000000;fill-opacity:1;stroke:none"
       id="use3914"
       sodipodi:cx="26.65436"
       sodipodi:cy="353.86874"
       sodipodi:rx="2.6004255"
       sodipodi:ry="2.6004255"
       d="m 29.254785,353.86874 c 0,1.43618 -1.16425,2.60043 -2.600425,2.60043 -1.436176,0 -2.600426,-1.16425 -2.600426,-2.60043 0,-1.43617 1.16425,-2.60042 2.600426,-2.60042 1.436175,0 2.600425,1.16425 2.600425,2.60042 z"
       transform="matrix(1.1223973,0,0,1.1223973,427.80144,-45.262942)"
       inkscape:tile-x0="24.487339"
       inkscape:tile-y0="349.31799" />
    <path
       sodipodi:type="arc"
       style="fill:#000000;fill-opacity:1;stroke:none"
       id="use3916"
       sodipodi:cx="26.65436"
       sodipodi:cy="353.86874"
       sodipodi:rx="2.6004255"
       sodipodi:ry="2.6004255"
       d="m 29.254785,353.86874 c 0,1.43618 -1.16425,2.60043 -2.600425,2.60043 -1.436176,0 -2.600426,-1.16425 -2.600426,-2.60043 0,-1.43617 1.16425,-2.60042 2.600426,-2.60042 1.436175,0 2.600425,1.16425 2.600425,2.60042 z"
       transform="matrix(1.1223973,0,0,1.1223973,439.7634,-45.262942)"
       inkscape:tile-x0="24.487339"
       inkscape:tile-y0="349.31799" />
    <path
       sodipodi:type="arc"
       style="fill:#000000;fill-opacity:1;stroke:none"
       id="use3918"
       sodipodi:cx="26.65436"
       sodipodi:cy="353.86874"
       sodipodi:rx="2.6004255"
       sodipodi:ry="2.6004255"
       d="m 29.254785,353.86874 c 0,1.43618 -1.16425,2.60043 -2.600425,2.60043 -1.436176,0 -2.600426,-1.16425 -2.600426,-2.60043 0,-1.43617 1.16425,-2.60042 2.600426,-2.60042 1.436175,0 2.600425,1.16425 2.600425,2.60042 z"
       transform="matrix(1.1223973,0,0,1.1223973,451.72536,-45.262942)"
       inkscape:tile-x0="24.487339"
       inkscape:tile-y0="349.31799" />
    <path
       sodipodi:type="arc"
       style="fill:#000000;fill-opacity:1;stroke:none"
       id="use3920"
       sodipodi:cx="26.65436"
       sodipodi:cy="353.86874"
       sodipodi:rx="2.6004255"
       sodipodi:ry="2.6004255"
       d="m 29.254785,353.86874 c 0,1.43618 -1.16425,2.60043 -2.600425,2.60043 -1.436176,0 -2.600426,-1.16425 -2.600426,-2.60043 0,-1.43617 1.16425,-2.60042 2.600426,-2.60042 1.436175,0 2.600425,1.16425 2.600425,2.60042 z"
       transform="matrix(1.1223973,0,0,1.1223973,463.68731,-45.262942)"
       inkscape:tile-x0="24.487339"
       inkscape:tile-y0="349.31799" />
    <path
       sodipodi:type="arc"
       style="fill:#000000;fill-opacity:1;stroke:none"
       id="use3922"
       sodipodi:cx="26.65436"
       sodipodi:cy="353.86874"
       sodipodi:rx="2.6004255"
       sodipodi:ry="2.6004255"
       d="m 29.254785,353.86874 c 0,1.43618 -1.16425,2.60043 -2.600425,2.60043 -1.436176,0 -2.600426,-1.16425 -2.600426,-2.60043 0,-1.43617 1.16425,-2.60042 2.600426,-2.60042 1.436175,0 2.600425,1.16425 2.600425,2.60042 z"
       transform="matrix(1.1223973,0,0,1.1223973,475.64927,-45.262942)"
       inkscape:tile-x0="24.487339"
       inkscape:tile-y0="349.31799" />
    <path
       sodipodi:type="arc"
       style="fill:#000000;fill-opacity:1;stroke:none"
       id="use3924"
       sodipodi:cx="26.65436"
       sodipodi:cy="353.86874"
       sodipodi:rx="2.6004255"
       sodipodi:ry="2.6004255"
       d="m 29.254785,353.86874 c 0,1.43618 -1.16425,2.60043 -2.600425,2.60043 -1.436176,0 -2.600426,-1.16425 -2.600426,-2.60043 0,-1.43617 1.16425,-2.60042 2.600426,-2.60042 1.436175,0 2.600425,1.16425 2.600425,2.60042 z"
       transform="matrix(1.1223973,0,0,1.1223973,487.61123,-45.262942)"
       inkscape:tile-x0="24.487339"
       inkscape:tile-y0="349.31799" />
    <path
       sodipodi:type="arc"
       style="fill:#000000;fill-opacity:1;stroke:none"
       id="use3926"
       sodipodi:cx="26.65436"
       sodipodi:cy="353.86874"
       sodipodi:rx="2.6004255"
       sodipodi:ry="2.6004255"
       d="m 29.254785,353.86874 c 0,1.43618 -1.16425,2.60043 -2.600425,2.60043 -1.436176,0 -2.600426,-1.16425 -2.600426,-2.60043 0,-1.43617 1.16425,-2.60042 2.600426,-2.60042 1.436175,0 2.600425,1.16425 2.600425,2.60042 z"
       transform="matrix(1.1223973,0,0,1.1223973,499.57319,-45.262942)"
       inkscape:tile-x0="24.487339"
       inkscape:tile-y0="349.31799" />
    <path
       sodipodi:type="arc"
       style="fill:#000000;fill-opacity:1;stroke:none"
       id="use3928"
       sodipodi:cx="26.65436"
       sodipodi:cy="353.86874"
       sodipodi:rx="2.6004255"
       sodipodi:ry="2.6004255"
       d="m 29.254785,353.86874 c 0,1.43618 -1.16425,2.60043 -2.600425,2.60043 -1.436176,0 -2.600426,-1.16425 -2.600426,-2.60043 0,-1.43617 1.16425,-2.60042 2.600426,-2.60042 1.436175,0 2.600425,1.16425 2.600425,2.60042 z"
       transform="matrix(1.1223973,0,0,1.1223973,511.53514,-45.262942)"
       inkscape:tile-x0="24.487339"
       inkscape:tile-y0="349.31799" />
    <path
       sodipodi:type="arc"
       style="fill:#000000;fill-opacity:1;stroke:none"
       id="use3930"
       sodipodi:cx="26.65436"
       sodipodi:cy="353.86874"
       sodipodi:rx="2.6004255"
       sodipodi:ry="2.6004255"
       d="m 29.254785,353.86874 c 0,1.43618 -1.16425,2.60043 -2.600425,2.60043 -1.436176,0 -2.600426,-1.16425 -2.600426,-2.60043 0,-1.43617 1.16425,-2.60042 2.600426,-2.60042 1.436175,0 2.600425,1.16425 2.600425,2.60042 z"
       transform="matrix(1.1223973,0,0,1.1223973,523.4971,-45.262942)"
       inkscape:tile-x0="24.487339"
       inkscape:tile-y0="349.31799" />
    <path
       sodipodi:type="arc"
       style="fill:#000000;fill-opacity:1;stroke:none"
       id="use3932"
       sodipodi:cx="26.65436"
       sodipodi:cy="353.86874"
       sodipodi:rx="2.6004255"
       sodipodi:ry="2.6004255"
       d="m 29.254785,353.86874 c 0,1.43618 -1.16425,2.60043 -2.600425,2.60043 -1.436176,0 -2.600426,-1.16425 -2.600426,-2.60043 0,-1.43617 1.16425,-2.60042 2.600426,-2.60042 1.436175,0 2.600425,1.16425 2.600425,2.60042 z"
       transform="matrix(1.1223973,0,0,1.1223973,535.45906,-45.262942)"
       inkscape:tile-x0="24.487339"
       inkscape:tile-y0="349.31799" />
    <path
       sodipodi:type="arc"
       style="fill:#000000;fill-opacity:1;stroke:none"
       id="use3934"
       sodipodi:cx="26.65436"
       sodipodi:cy="353.86874"
       sodipodi:rx="2.6004255"
       sodipodi:ry="2.6004255"
       d="m 29.254785,353.86874 c 0,1.43618 -1.16425,2.60043 -2.600425,2.60043 -1.436176,0 -2.600426,-1.16425 -2.600426,-2.60043 0,-1.43617 1.16425,-2.60042 2.600426,-2.60042 1.436175,0 2.600425,1.16425 2.600425,2.60042 z"
       transform="matrix(1.1223973,0,0,1.1223973,547.42102,-45.262942)"
       inkscape:tile-x0="24.487339"
       inkscape:tile-y0="349.31799" />
    <path
       sodipodi:type="arc"
       style="fill:#000000;fill-opacity:1;stroke:none"
       id="use3936"
       sodipodi:cx="26.65436"
       sodipodi:cy="353.86874"
       sodipodi:rx="2.6004255"
       sodipodi:ry="2.6004255"
       d="m 29.254785,353.86874 c 0,1.43618 -1.16425,2.60043 -2.600425,2.60043 -1.436176,0 -2.600426,-1.16425 -2.600426,-2.60043 0,-1.43617 1.16425,-2.60042 2.600426,-2.60042 1.436175,0 2.600425,1.16425 2.600425,2.60042 z"
       transform="matrix(1.1223973,0,0,1.1223973,559.38297,-45.262942)"
       inkscape:tile-x0="24.487339"
       inkscape:tile-y0="349.31799" />
    <path
       sodipodi:type="arc"
       style="fill:#000000;fill-opacity:1;stroke:none"
       id="use3938"
       sodipodi:cx="26.65436"
       sodipodi:cy="353.86874"
       sodipodi:rx="2.6004255"
       sodipodi:ry="2.6004255"
       d="m 29.254785,353.86874 c 0,1.43618 -1.16425,2.60043 -2.600425,2.60043 -1.436176,0 -2.600426,-1.16425 -2.600426,-2.60043 0,-1.43617 1.16425,-2.60042 2.600426,-2.60042 1.436175,0 2.600425,1.16425 2.600425,2.60042 z"
       transform="matrix(1.1223973,0,0,1.1223973,571.34493,-45.262942)"
       inkscape:tile-x0="24.487339"
       inkscape:tile-y0="349.31799" />
    <path
       sodipodi:type="arc"
       style="fill:#000000;fill-opacity:1;stroke:none"
       id="use3940"
       sodipodi:cx="26.65436"
       sodipodi:cy="353.86874"
       sodipodi:rx="2.6004255"
       sodipodi:ry="2.6004255"
       d="m 29.254785,353.86874 c 0,1.43618 -1.16425,2.60043 -2.600425,2.60043 -1.436176,0 -2.600426,-1.16425 -2.600426,-2.60043 0,-1.43617 1.16425,-2.60042 2.600426,-2.60042 1.436175,0 2.600425,1.16425 2.600425,2.60042 z"
       transform="matrix(1.1223973,0,0,1.1223973,583.30689,-45.262942)"
       inkscape:tile-x0="24.487339"
       inkscape:tile-y0="349.31799" />
    <path
       sodipodi:type="arc"
       style="fill:#000000;fill-opacity:1;stroke:none"
       id="use3942"
       sodipodi:cx="26.65436"
       sodipodi:cy="353.86874"
       sodipodi:rx="2.6004255"
       sodipodi:ry="2.6004255"
       d="m 29.254785,353.86874 c 0,1.43618 -1.16425,2.60043 -2.600425,2.60043 -1.436176,0 -2.600426,-1.16425 -2.600426,-2.60043 0,-1.43617 1.16425,-2.60042 2.600426,-2.60042 1.436175,0 2.600425,1.16425 2.600425,2.60042 z"
       transform="matrix(1.1223973,0,0,1.1223973,595.26884,-45.262942)"
       inkscape:tile-x0="24.487339"
       inkscape:tile-y0="349.31799" />
    <path
       sodipodi:type="arc"
       style="fill:#000000;fill-opacity:1;stroke:none"
       id="use3944"
       sodipodi:cx="26.65436"
       sodipodi:cy="353.86874"
       sodipodi:rx="2.6004255"
       sodipodi:ry="2.6004255"
       d="m 29.254785,353.86874 c 0,1.43618 -1.16425,2.60043 -2.600425,2.60043 -1.436176,0 -2.600426,-1.16425 -2.600426,-2.60043 0,-1.43617 1.16425,-2.60042 2.600426,-2.60042 1.436175,0 2.600425,1.16425 2.600425,2.60042 z"
       transform="matrix(1.1223973,0,0,1.1223973,607.2308,-45.262942)"
       inkscape:tile-x0="24.487339"
       inkscape:tile-y0="349.31799" />
    <path
       sodipodi:type="arc"
       style="fill:#000000;fill-opacity:1;stroke:none"
       id="use3946"
       sodipodi:cx="26.65436"
       sodipodi:cy="353.86874"
       sodipodi:rx="2.6004255"
       sodipodi:ry="2.6004255"
       d="m 29.254785,353.86874 c 0,1.43618 -1.16425,2.60043 -2.600425,2.60043 -1.436176,0 -2.600426,-1.16425 -2.600426,-2.60043 0,-1.43617 1.16425,-2.60042 2.600426,-2.60042 1.436175,0 2.600425,1.16425 2.600425,2.60042 z"
       transform="matrix(1.1223973,0,0,1.1223973,619.19276,-45.262942)"
       inkscape:tile-x0="24.487339"
       inkscape:tile-y0="349.31799" />
    <path
       sodipodi:type="arc"
       style="fill:#000000;fill-opacity:1;stroke:none"
       id="use3948"
       sodipodi:cx="26.65436"
       sodipodi:cy="353.86874"
       sodipodi:rx="2.6004255"
       sodipodi:ry="2.6004255"
       d="m 29.254785,353.86874 c 0,1.43618 -1.16425,2.60043 -2.600425,2.60043 -1.436176,0 -2.600426,-1.16425 -2.600426,-2.60043 0,-1.43617 1.16425,-2.60042 2.600426,-2.60042 1.436175,0 2.600425,1.16425 2.600425,2.60042 z"
       transform="matrix(1.1223973,0,0,1.1223973,631.15472,-45.262942)"
       inkscape:tile-x0="24.487339"
       inkscape:tile-y0="349.31799" />
    <path
       sodipodi:type="arc"
       style="fill:#000000;fill-opacity:1;stroke:none"
       id="use3950"
       sodipodi:cx="26.65436"
       sodipodi:cy="353.86874"
       sodipodi:rx="2.6004255"
       sodipodi:ry="2.6004255"
       d="m 29.254785,353.86874 c 0,1.43618 -1.16425,2.60043 -2.600425,2.60043 -1.436176,0 -2.600426,-1.16425 -2.600426,-2.60043 0,-1.43617 1.16425,-2.60042 2.600426,-2.60042 1.436175,0 2.600425,1.16425 2.600425,2.60042 z"
       transform="matrix(1.1223973,0,0,1.1223973,643.11667,-45.262942)"
       inkscape:tile-x0="24.487339"
       inkscape:tile-y0="349.31799" />
    <path
       sodipodi:type="arc"
       style="fill:#000000;fill-opacity:1;stroke:none"
       id="use3952"
       sodipodi:cx="26.65436"
       sodipodi:cy="353.86874"
       sodipodi:rx="2.6004255"
       sodipodi:ry="2.6004255"
       d="m 29.254785,353.86874 c 0,1.43618 -1.16425,2.60043 -2.600425,2.60043 -1.436176,0 -2.600426,-1.16425 -2.600426,-2.60043 0,-1.43617 1.16425,-2.60042 2.600426,-2.60042 1.436175,0 2.600425,1.16425 2.600425,2.60042 z"
       transform="matrix(1.1223973,0,0,1.1223973,655.07863,-45.262942)"
       inkscape:tile-x0="24.487339"
       inkscape:tile-y0="349.31799" />
    <path
       sodipodi:type="arc"
       style="fill:#000000;fill-opacity:1;stroke:none"
       id="use3954"
       sodipodi:cx="26.65436"
       sodipodi:cy="353.86874"
       sodipodi:rx="2.6004255"
       sodipodi:ry="2.6004255"
       d="m 29.254785,353.86874 c 0,1.43618 -1.16425,2.60043 -2.600425,2.60043 -1.436176,0 -2.600426,-1.16425 -2.600426,-2.60043 0,-1.43617 1.16425,-2.60042 2.600426,-2.60042 1.436175,0 2.600425,1.16425 2.600425,2.60042 z"
       transform="matrix(1.1223973,0,0,1.1223973,667.04059,-45.262942)"
       inkscape:tile-x0="24.487339"
       inkscape:tile-y0="349.31799" />
    <path
       sodipodi:type="arc"
       style="fill:#000000;fill-opacity:1;stroke:none"
       id="use3956"
       sodipodi:cx="26.65436"
       sodipodi:cy="353.86874"
       sodipodi:rx="2.6004255"
       sodipodi:ry="2.6004255"
       d="m 29.254785,353.86874 c 0,1.43618 -1.16425,2.60043 -2.600425,2.60043 -1.436176,0 -2.600426,-1.16425 -2.600426,-2.60043 0,-1.43617 1.16425,-2.60042 2.600426,-2.60042 1.436175,0 2.600425,1.16425 2.600425,2.60042 z"
       transform="matrix(1.1223973,0,0,1.1223973,679.00255,-45.262942)"
       inkscape:tile-x0="24.487339"
       inkscape:tile-y0="349.31799" />
    <path
       sodipodi:type="arc"
       style="fill:#000000;fill-opacity:1;stroke:none"
       id="use3958"
       sodipodi:cx="26.65436"
       sodipodi:cy="353.86874"
       sodipodi:rx="2.6004255"
       sodipodi:ry="2.6004255"
       d="m 29.254785,353.86874 c 0,1.43618 -1.16425,2.60043 -2.600425,2.60043 -1.436176,0 -2.600426,-1.16425 -2.600426,-2.60043 0,-1.43617 1.16425,-2.60042 2.600426,-2.60042 1.436175,0 2.600425,1.16425 2.600425,2.60042 z"
       transform="matrix(1.1223973,0,0,1.1223973,690.9645,-45.262942)"
       inkscape:tile-x0="24.487339"
       inkscape:tile-y0="349.31799" />
    <path
       sodipodi:type="arc"
       style="fill:#000000;fill-opacity:1;stroke:none"
       id="use3960"
       sodipodi:cx="26.65436"
       sodipodi:cy="353.86874"
       sodipodi:rx="2.6004255"
       sodipodi:ry="2.6004255"
       d="m 29.254785,353.86874 c 0,1.43618 -1.16425,2.60043 -2.600425,2.60043 -1.436176,0 -2.600426,-1.16425 -2.600426,-2.60043 0,-1.43617 1.16425,-2.60042 2.600426,-2.60042 1.436175,0 2.600425,1.16425 2.600425,2.60042 z"
       transform="matrix(1.1223973,0,0,1.1223973,702.92646,-45.262942)"
       inkscape:tile-x0="24.487339"
       inkscape:tile-y0="349.31799" />
  </g>
  <path
     style="fill:#000000;fill-opacity:1;stroke:none"
     d=""
     title="sin(x);"
     id="path7908"
     inkscape:connector-curvature="0" />
  <path
     inkscape:tile-y0="349.6643"
     inkscape:tile-x0="20.926979"
     sodipodi:nodetypes="cccccc"
     inkscape:connector-curvature="0"
     style="fill:none;stroke:#000000;stroke-width:1.95856559;stroke-linecap:round;stroke-miterlimit:4;stroke-opacity:0.99607843;stroke-dasharray:none"
     d="m 0.9831,96.186181 c 0.45113,-0.546862 0.90225,-1.091574 1.35339,-1.510563 0.81679,-0.755221 1.81067,-1.055094 2.70674,-0.52538 1.71155,1.285681 2.48623,3.004586 4.26693,4.096368 1.39323,0.807341 2.38613,-0.118076 3.12035,-0.780362 0.45112,-0.418538 1.11004,-1.143538 1.56116,-1.6904"
     title="sin(x)"
     id="use13749" />
  <path
     inkscape:tile-y0="349.6643"
     inkscape:tile-x0="20.926979"
     sodipodi:nodetypes="cccccc"
     inkscape:connector-curvature="0"
     style="fill:none;stroke:#000000;stroke-width:1.95856559;stroke-linecap:round;stroke-miterlimit:4;stroke-opacity:0.99607843;stroke-dasharray:none"
     d="m 13.6531,96.186181 c 0.45113,-0.546862 0.90225,-1.091574 1.35339,-1.510563 0.81679,-0.755221 1.81067,-1.055094 2.70674,-0.52538 1.71155,1.285681 2.48623,3.004586 4.26693,4.096368 1.39323,0.807341 2.38613,-0.118076 3.12035,-0.780362 0.45112,-0.418538 1.11004,-1.143538 1.56116,-1.6904"
     title="sin(x)"
     id="use13751" />
  <path
     inkscape:tile-y0="349.6643"
     inkscape:tile-x0="20.926979"
     sodipodi:nodetypes="cccccc"
     inkscape:connector-curvature="0"
     style="fill:none;stroke:#000000;stroke-width:1.95856559;stroke-linecap:round;stroke-miterlimit:4;stroke-opacity:0.99607843;stroke-dasharray:none"
     d="m 26.3231,96.186181 c 0.45113,-0.546862 0.90225,-1.091574 1.35339,-1.510563 0.81679,-0.755221 1.81067,-1.055094 2.70674,-0.52538 1.71155,1.285681 2.48623,3.004586 4.26693,4.096368 1.39323,0.807341 2.38613,-0.118076 3.12035,-0.780362 0.45112,-0.418538 1.11004,-1.143538 1.56116,-1.6904"
     title="sin(x)"
     id="use13753" />
  <path
     inkscape:tile-y0="349.6643"
     inkscape:tile-x0="20.926979"
     sodipodi:nodetypes="cccccc"
     inkscape:connector-curvature="0"
     style="fill:none;stroke:#000000;stroke-width:1.95856559;stroke-linecap:round;stroke-miterlimit:4;stroke-opacity:0.99607843;stroke-dasharray:none"
     d="m 38.99312,96.186181 c 0.45113,-0.546862 0.90225,-1.091574 1.35339,-1.510563 0.81679,-0.755221 1.81067,-1.055094 2.70674,-0.52538 1.71155,1.285681 2.48623,3.004586 4.26693,4.096368 1.39323,0.807341 2.38613,-0.118076 3.12035,-0.780362 0.45112,-0.418538 1.11004,-1.143538 1.56116,-1.6904"
     title="sin(x)"
     id="use13755" />
  <path
     inkscape:tile-y0="349.6643"
     inkscape:tile-x0="20.926979"
     sodipodi:nodetypes="cccccc"
     inkscape:connector-curvature="0"
     style="fill:none;stroke:#000000;stroke-width:1.95856559;stroke-linecap:round;stroke-miterlimit:4;stroke-opacity:0.99607843;stroke-dasharray:none"
     d="m 51.66312,96.186181 c 0.45113,-0.546862 0.90225,-1.091574 1.35339,-1.510563 0.81679,-0.755221 1.81067,-1.055094 2.70674,-0.52538 1.71155,1.285681 2.48623,3.004586 4.26693,4.096368 1.39323,0.807341 2.38613,-0.118076 3.12035,-0.780362 0.45112,-0.418538 1.11004,-1.143538 1.56116,-1.6904"
     title="sin(x)"
     id="use13757" />
  <path
     inkscape:tile-y0="349.6643"
     inkscape:tile-x0="20.926979"
     sodipodi:nodetypes="cccccc"
     inkscape:connector-curvature="0"
     style="fill:none;stroke:#000000;stroke-width:1.95856559;stroke-linecap:round;stroke-miterlimit:4;stroke-opacity:0.99607843;stroke-dasharray:none"
     d="m 64.33312,96.186181 c 0.45113,-0.546862 0.90225,-1.091574 1.35339,-1.510563 0.81679,-0.755221 1.81067,-1.055094 2.70674,-0.52538 1.71155,1.285681 2.48623,3.004586 4.26693,4.096368 1.39323,0.807341 2.38613,-0.118076 3.12035,-0.780362 0.45112,-0.418538 1.11004,-1.143538 1.56116,-1.6904"
     title="sin(x)"
     id="use13759" />
  <path
     inkscape:tile-y0="349.6643"
     inkscape:tile-x0="20.926979"
     sodipodi:nodetypes="cccccc"
     inkscape:connector-curvature="0"
     style="fill:none;stroke:#000000;stroke-width:1.95856559;stroke-linecap:round;stroke-miterlimit:4;stroke-opacity:0.99607843;stroke-dasharray:none"
     d="m 77.00312,96.186181 c 0.45113,-0.546862 0.90225,-1.091574 1.35339,-1.510563 0.81679,-0.755221 1.81067,-1.055094 2.70674,-0.52538 1.71155,1.285681 2.48623,3.004586 4.26693,4.096368 1.39323,0.807341 2.38613,-0.118076 3.12035,-0.780362 0.45112,-0.418538 1.11004,-1.143538 1.56116,-1.6904"
     title="sin(x)"
     id="use13761" />
  <path
     inkscape:tile-y0="349.6643"
     inkscape:tile-x0="20.926979"
     sodipodi:nodetypes="cccccc"
     inkscape:connector-curvature="0"
     style="fill:none;stroke:#000000;stroke-width:1.95856559;stroke-linecap:round;stroke-miterlimit:4;stroke-opacity:0.99607843;stroke-dasharray:none"
     d="m 89.67311,96.186181 c 0.45113,-0.546862 0.90225,-1.091574 1.35339,-1.510563 0.81679,-0.755221 1.81067,-1.055094 2.70674,-0.52538 1.71155,1.285681 2.48623,3.004586 4.26693,4.096368 1.39323,0.807341 2.38613,-0.118076 3.12035,-0.780362 0.45112,-0.418538 1.11004,-1.143538 1.56116,-1.6904"
     title="sin(x)"
     id="use13763" />
  <path
     inkscape:tile-y0="349.6643"
     inkscape:tile-x0="20.926979"
     sodipodi:nodetypes="cccccc"
     inkscape:connector-curvature="0"
     style="fill:none;stroke:#000000;stroke-width:1.95856559;stroke-linecap:round;stroke-miterlimit:4;stroke-opacity:0.99607843;stroke-dasharray:none"
     d="m 102.34311,96.186181 c 0.45113,-0.546862 0.90225,-1.091574 1.35339,-1.510563 0.81679,-0.755221 1.81067,-1.055094 2.70674,-0.52538 1.71155,1.285681 2.48623,3.004586 4.26693,4.096368 1.39323,0.807341 2.38613,-0.118076 3.12035,-0.780362 0.45112,-0.418538 1.11004,-1.143538 1.56116,-1.6904"
     title="sin(x)"
     id="use13765" />
  <path
     inkscape:tile-y0="349.6643"
     inkscape:tile-x0="20.926979"
     sodipodi:nodetypes="cccccc"
     inkscape:connector-curvature="0"
     style="fill:none;stroke:#000000;stroke-width:1.95856559;stroke-linecap:round;stroke-miterlimit:4;stroke-opacity:0.99607843;stroke-dasharray:none"
     d="m 115.01313,96.186181 c 0.45113,-0.546862 0.90225,-1.091574 1.35339,-1.510563 0.81679,-0.755221 1.81067,-1.055094 2.70674,-0.52538 1.71155,1.285681 2.48623,3.004586 4.26693,4.096368 1.39323,0.807341 2.38613,-0.118076 3.12035,-0.780362 0.45112,-0.418538 1.11004,-1.143538 1.56116,-1.6904"
     title="sin(x)"
     id="use13767" />
  <path
     inkscape:tile-y0="349.6643"
     inkscape:tile-x0="20.926979"
     sodipodi:nodetypes="cccccc"
     inkscape:connector-curvature="0"
     style="fill:none;stroke:#000000;stroke-width:1.95856559;stroke-linecap:round;stroke-miterlimit:4;stroke-opacity:0.99607843;stroke-dasharray:none"
     d="m 127.68313,96.186181 c 0.45113,-0.546862 0.90225,-1.091574 1.35339,-1.510563 0.81679,-0.755221 1.81067,-1.055094 2.70674,-0.52538 1.71155,1.285681 2.48623,3.004586 4.26693,4.096368 1.39323,0.807341 2.38613,-0.118076 3.12035,-0.780362 0.45112,-0.418538 1.11004,-1.143538 1.56116,-1.6904"
     title="sin(x)"
     id="use13769" />
  <path
     inkscape:tile-y0="349.6643"
     inkscape:tile-x0="20.926979"
     sodipodi:nodetypes="cccccc"
     inkscape:connector-curvature="0"
     style="fill:none;stroke:#000000;stroke-width:1.95856559;stroke-linecap:round;stroke-miterlimit:4;stroke-opacity:0.99607843;stroke-dasharray:none"
     d="m 140.35313,96.186181 c 0.45113,-0.546862 0.90225,-1.091574 1.35339,-1.510563 0.81679,-0.755221 1.81067,-1.055094 2.70674,-0.52538 1.71155,1.285681 2.48623,3.004586 4.26693,4.096368 1.39323,0.807341 2.38613,-0.118076 3.12035,-0.780362 0.45112,-0.418538 1.11004,-1.143538 1.56116,-1.6904"
     title="sin(x)"
     id="use13771" />
  <text
     xml:space="preserve"
     style="font-size:12px;font-style:normal;font-variant:normal;font-weight:normal;font-stretch:normal;text-align:start;line-height:125%;letter-spacing:0px;word-spacing:0px;writing-mode:lr-tb;text-anchor:start;fill:#000000;fill-opacity:1;stroke:none;font-family:Sans;-inkscape-font-specification:Sans"
     x="9.6613026"
     y="98.117035"
     id="text13833"
     sodipodi:linespacing="125%"><tspan
       sodipodi:role="line"
       id="tspan13835"
       x="9.6613026"
       y="98.117035" /></text>
  <text
     xml:space="preserve"
     style="font-size:12px;font-style:normal;font-variant:normal;font-weight:normal;font-stretch:normal;text-align:start;line-height:125%;letter-spacing:0px;word-spacing:0px;writing-mode:lr-tb;text-anchor:start;fill:#000000;fill-opacity:1;stroke:none;font-family:Sans;-inkscape-font-specification:Sans"
     x="173.54742"
     y="100.76609"
     id="text13837"
     sodipodi:linespacing="125%"><tspan
       sodipodi:role="line"
       id="tspan13839"
       x="173.54742"
       y="100.76609">Mesh</tspan></text>
  <rect
     inkscape:tile-y0="125.19624"
     inkscape:tile-x0="7.457767"
     y="126.54672"
     x="4.2926497"
     height="3.593128"
     width="17.017359"
     id="use14069"
     style="fill:#48707c;fill-opacity:1;stroke:none" />
  <rect
     inkscape:tile-y0="125.19624"
     inkscape:tile-x0="7.457767"
     y="126.54672"
     x="23.64139"
     height="3.593128"
     width="17.017359"
     id="use14071"
     style="fill:#48707c;fill-opacity:1;stroke:none" />
  <rect
     inkscape:tile-y0="125.19624"
     inkscape:tile-x0="7.457767"
     y="126.54672"
     x="42.990131"
     height="3.593128"
     width="17.017359"
     id="use14073"
     style="fill:#48707c;fill-opacity:1;stroke:none" />
  <rect
     inkscape:tile-y0="125.19624"
     inkscape:tile-x0="7.457767"
     y="126.54672"
     x="62.338871"
     height="3.593128"
     width="17.017359"
     id="use14075"
     style="fill:#48707c;fill-opacity:1;stroke:none" />
  <rect
     inkscape:tile-y0="125.19624"
     inkscape:tile-x0="7.457767"
     y="126.54672"
     x="81.687607"
     height="3.593128"
     width="17.017359"
     id="use14077"
     style="fill:#48707c;fill-opacity:1;stroke:none" />
  <rect
     inkscape:tile-y0="125.19624"
     inkscape:tile-x0="7.457767"
     y="126.54672"
     x="101.03633"
     height="3.593128"
     width="17.017359"
     id="use14079"
     style="fill:#48707c;fill-opacity:1;stroke:none" />
  <rect
     inkscape:tile-y0="125.19624"
     inkscape:tile-x0="7.457767"
     y="126.54672"
     x="120.38507"
     height="3.593128"
     width="17.017359"
     id="use14081"
     style="fill:#48707c;fill-opacity:1;stroke:none" />
  <rect
     inkscape:tile-y0="125.19624"
     inkscape:tile-x0="7.457767"
     y="126.54672"
     x="139.7338"
     height="3.593128"
     width="17.017359"
     id="use14083"
     style="fill:#48707c;fill-opacity:1;stroke:none" />
  <rect
     inkscape:tile-y0="125.19624"
     inkscape:tile-x0="7.457767"
     y="136.93776"
     x="4.4418898"
     height="3.593128"
     width="17.017359"
     id="use14203"
     style="fill:#923519;fill-opacity:1;stroke:none" />
  <rect
     inkscape:tile-y0="125.19624"
     inkscape:tile-x0="7.457767"
     y="136.93776"
     x="23.79063"
     height="3.593128"
     width="17.017359"
     id="use14205"
     style="fill:#923519;fill-opacity:1;stroke:none" />
  <rect
     inkscape:tile-y0="125.19624"
     inkscape:tile-x0="7.457767"
     y="136.93776"
     x="43.139359"
     height="3.593128"
     width="17.017359"
     id="use14207"
     style="fill:#923519;fill-opacity:1;stroke:none" />
  <rect
     inkscape:tile-y0="125.19624"
     inkscape:tile-x0="7.457767"
     y="136.93776"
     x="62.488098"
     height="3.593128"
     width="17.017359"
     id="use14209"
     style="fill:#923519;fill-opacity:1;stroke:none" />
  <rect
     inkscape:tile-y0="125.19624"
     inkscape:tile-x0="7.457767"
     y="136.93776"
     x="81.836838"
     height="3.593128"
     width="17.017359"
     id="use14211"
     style="fill:#923519;fill-opacity:1;stroke:none" />
  <rect
     inkscape:tile-y0="125.19624"
     inkscape:tile-x0="7.457767"
     y="136.93776"
     x="101.18556"
     height="3.593128"
     width="17.017359"
     id="use14213"
     style="fill:#923519;fill-opacity:1;stroke:none" />
  <rect
     inkscape:tile-y0="125.19624"
     inkscape:tile-x0="7.457767"
     y="136.93776"
     x="120.41456"
     height="3.593128"
     width="17.017359"
     id="use14215"
     style="fill:#923519;fill-opacity:1;stroke:none" />
  <rect
     inkscape:tile-y0="125.19624"
     inkscape:tile-x0="7.457767"
     y="136.93776"
     x="139.64355"
     height="3.593128"
     width="17.017359"
     id="use14217"
     style="fill:#923519;fill-opacity:1;stroke:none" />
  <rect
     style="fill:#923519;fill-opacity:1;stroke:none"
     id="rect13841-3-1"
     width="156.66296"
     height="3.7040019"
     x="0"
     y="131.79355"
     inkscape:tile-cx="12.365106"
     inkscape:tile-cy="126.2324"
     inkscape:tile-w="9.8146782"
     inkscape:tile-h="2.072319"
     inkscape:tile-x0="7.457767"
     inkscape:tile-y0="125.19624" />
  <path
     style="fill:none;stroke:#000000;stroke-width:1.73386824px;stroke-linecap:butt;stroke-linejoin:miter;stroke-opacity:1"
     d="m 0,13.773903 156.66292,0"
     id="path14278"
     inkscape:connector-curvature="0"
     sodipodi:nodetypes="cc" />
  <text
     xml:space="preserve"
     style="font-size:12px;font-style:normal;font-variant:normal;font-weight:normal;font-stretch:normal;text-align:start;line-height:125%;letter-spacing:0px;word-spacing:0px;writing-mode:lr-tb;text-anchor:start;fill:#000000;fill-opacity:1;stroke:none;font-family:Sans;-inkscape-font-specification:Sans"
     x="-223.89069"
     y="45.60664"
     id="text14280"
     sodipodi:linespacing="125%"><tspan
       sodipodi:role="line"
       x="-223.89069"
       y="45.60664"
       id="tspan14288" /></text>
  <text
     xml:space="preserve"
     style="font-size:12px;font-style:normal;font-variant:normal;font-weight:normal;font-stretch:normal;text-align:start;line-height:125%;letter-spacing:0px;word-spacing:0px;writing-mode:lr-tb;text-anchor:start;fill:#000000;fill-opacity:1;stroke:none;font-family:Sans;-inkscape-font-specification:Sans"
     x="19.570177"
     y="9.1171875"
     id="text14284"
     sodipodi:linespacing="125%"><tspan
       sodipodi:role="line"
       id="tspan14286"
       x="19.570177"
       y="9.1171875">Drift-Kathode</tspan></text>
  <flowRoot
     xml:space="preserve"
     id="flowRoot14294"
     style="font-size:6.92094135px;font-style:normal;font-variant:normal;font-weight:normal;font-stretch:normal;text-align:start;line-height:125%;letter-spacing:0px;word-spacing:0px;writing-mode:lr-tb;text-anchor:start;fill:#000000;fill-opacity:1;stroke:none;font-family:Sans;-inkscape-font-specification:Sans"
     transform="matrix(1.7338682,0,0,1.7338682,10.234564,-84.358414)"><flowRegion
       id="flowRegion14296"><rect
         id="rect14298"
         width="86.71875"
         height="41.796875"
         x="5.46875"
         y="64.842575"
         style="font-size:6.92094135px;font-style:normal;font-variant:normal;font-weight:normal;font-stretch:normal;text-align:start;line-height:125%;writing-mode:lr-tb;text-anchor:start;font-family:Sans;-inkscape-font-specification:Sans" /></flowRegion><flowPara
       id="flowPara14300">Driftregion</flowPara><flowPara
       id="flowPara14302">($\approx 5mm$)</flowPara></flowRoot>  <text
     xml:space="preserve"
     style="font-size:12px;font-style:normal;font-variant:normal;font-weight:normal;font-stretch:normal;text-align:start;line-height:125%;letter-spacing:0px;word-spacing:0px;writing-mode:lr-tb;text-anchor:start;fill:#39545c;fill-opacity:1;stroke:none;font-family:Sans;-inkscape-font-specification:Sans"
     x="19.570177"
     y="123.06018"
     id="text13837-1"
     sodipodi:linespacing="125%"><tspan
       sodipodi:role="line"
       id="tspan13839-2"
       x="19.570177"
       y="123.06018">Resistive Streifen</tspan></text>
  <text
     xml:space="preserve"
     style="font-size:12px;font-style:normal;font-variant:normal;font-weight:normal;font-stretch:normal;text-align:start;line-height:125%;letter-spacing:0px;word-spacing:0px;writing-mode:lr-tb;text-anchor:start;fill:#000000;fill-opacity:1;stroke:none;font-family:Sans;-inkscape-font-specification:Sans"
     x="174.7486"
     y="132.64403"
     id="text14325"
     sodipodi:linespacing="125%"><tspan
       sodipodi:role="line"
       x="174.7486"
       y="132.64403"
       id="tspan14329">Y-Streifen</tspan></text>
  <text
     xml:space="preserve"
     style="font-size:12px;font-style:normal;font-variant:normal;font-weight:normal;font-stretch:normal;text-align:start;line-height:125%;letter-spacing:0px;word-spacing:0px;writing-mode:lr-tb;text-anchor:start;fill:#000000;fill-opacity:1;stroke:none;font-family:Sans;-inkscape-font-specification:Sans"
     x="174.36774"
     y="148.5797"
     id="text14337"
     sodipodi:linespacing="125%"><tspan
       sodipodi:role="line"
       id="tspan14339"
       x="174.36774"
       y="148.5797">X-Streifen</tspan></text>
  <path
     style="fill:none;stroke:#000000;stroke-width:1px;stroke-linecap:butt;stroke-linejoin:miter;stroke-opacity:1;marker-end:url(#Arrow1Mend)"
     d="m 172.99076,128.26462 -15.60607,3.59078"
     id="path14343"
     inkscape:connector-curvature="0"
     sodipodi:nodetypes="cc" />
  <path
     style="fill:none;stroke:#000000;stroke-width:1px;stroke-linecap:butt;stroke-linejoin:miter;stroke-opacity:1;marker-end:url(#Arrow1Mend)"
     d="m 174.11261,142.52836 -15.60607,-3.59078"
     id="path14343-3"
     inkscape:connector-curvature="0"
     sodipodi:nodetypes="cc" />
  <text
     xml:space="preserve"
     style="font-size:12px;font-style:normal;font-variant:normal;font-weight:normal;font-stretch:normal;text-align:start;line-height:125%;letter-spacing:0px;word-spacing:0px;writing-mode:lr-tb;text-anchor:start;fill:#000000;fill-opacity:1;stroke:none;font-family:Sans;-inkscape-font-specification:Sans"
     x="15.459658"
     y="158.02521"
     id="text14813"
     sodipodi:linespacing="125%"><tspan
       sodipodi:role="line"
       id="tspan14815"
       x="15.459658"
       y="158.02521">Leiterplatte</tspan></text>
</svg>
