<?xml version="1.0" encoding="UTF-8" standalone="no"?>
<!-- Created with Inkscape (http://www.inkscape.org/) -->

<svg
   xmlns:dc="http://purl.org/dc/elements/1.1/"
   xmlns:cc="http://creativecommons.org/ns#"
   xmlns:rdf="http://www.w3.org/1999/02/22-rdf-syntax-ns#"
   xmlns:svg="http://www.w3.org/2000/svg"
   xmlns="http://www.w3.org/2000/svg"
   xmlns:sodipodi="http://sodipodi.sourceforge.net/DTD/sodipodi-0.dtd"
   xmlns:inkscape="http://www.inkscape.org/namespaces/inkscape"
   id="svg2"
   version="1.1"
   inkscape:version="0.48.4 r9939"
   width="241.94395"
   height="230.09372"
   sodipodi:docname="mm.svg">
  <sodipodi:namedview
     pagecolor="#ffffff"
     bordercolor="#666666"
     borderopacity="1"
     objecttolerance="10"
     gridtolerance="10"
     guidetolerance="10"
     inkscape:pageopacity="0"
     inkscape:pageshadow="2"
     inkscape:window-width="1440"
     inkscape:window-height="851"
     id="namedview4"
     showgrid="false"
     inkscape:zoom="2.5600001"
     inkscape:cx="110.03158"
     inkscape:cy="104.39952"
     inkscape:window-x="0"
     inkscape:window-y="25"
     inkscape:window-maximized="1"
     inkscape:current-layer="svg2"
     fit-margin-top="0"
     fit-margin-left="0"
     fit-margin-right="0"
     fit-margin-bottom="0"
     showguides="true"
     inkscape:guide-bbox="true" />
  <metadata
     id="metadata8">
    <rdf:RDF>
      <cc:Work
         rdf:about="">
        <dc:format>image/svg+xml</dc:format>
        <dc:type
           rdf:resource="http://purl.org/dc/dcmitype/StillImage" />
        <dc:title />
      </cc:Work>
    </rdf:RDF>
  </metadata>
  <defs
     id="defs6">
    <marker
       inkscape:stockid="Arrow1Mend"
       orient="auto"
       refY="0"
       refX="0"
       id="Arrow1Mend"
       style="overflow:visible">
      <path
         id="path14358"
         d="M 0,0 5,-5 -12.5,0 5,5 0,0 z"
         style="fill-rule:evenodd;stroke:#000000;stroke-width:1pt"
         transform="matrix(-0.4,0,0,-0.4,-4,0)"
         inkscape:connector-curvature="0" />
    </marker>
    <marker
       inkscape:stockid="Arrow1Mend"
       orient="auto"
       refY="0"
       refX="0"
       id="Arrow1Mend-2"
       style="overflow:visible">
      <path
         inkscape:connector-curvature="0"
         id="path14358-3"
         d="M 0,0 5,-5 -12.5,0 5,5 0,0 z"
         style="fill-rule:evenodd;stroke:#000000;stroke-width:1pt"
         transform="matrix(-0.4,0,0,-0.4,-4,0)" />
    </marker>
  </defs>
  <rect
     style="fill:#9eff9e;fill-opacity:1;stroke:none"
     id="rect14274"
     width="156.66293"
     height="29.928787"
     x="0.037143689"
     y="200.16493" />
  <g
     id="g4042"
     transform="matrix(0.5294027,0,0,0.5294027,-238.23528,-57.669894)">
    <path
       sodipodi:type="arc"
       style="fill:#000000;fill-opacity:1;stroke:none"
       id="use3914"
       sodipodi:cx="26.65436"
       sodipodi:cy="353.86874"
       sodipodi:rx="2.6004255"
       sodipodi:ry="2.6004255"
       d="m 29.254785,353.86874 c 0,1.43618 -1.16425,2.60043 -2.600425,2.60043 -1.436176,0 -2.600426,-1.16425 -2.600426,-2.60043 0,-1.43617 1.16425,-2.60042 2.600426,-2.60042 1.436175,0 2.600425,1.16425 2.600425,2.60042 z"
       transform="matrix(1.1223973,0,0,1.1223973,427.80144,-45.262942)"
       inkscape:tile-x0="24.487339"
       inkscape:tile-y0="349.31799" />
    <path
       sodipodi:type="arc"
       style="fill:#000000;fill-opacity:1;stroke:none"
       id="use3916"
       sodipodi:cx="26.65436"
       sodipodi:cy="353.86874"
       sodipodi:rx="2.6004255"
       sodipodi:ry="2.6004255"
       d="m 29.254785,353.86874 c 0,1.43618 -1.16425,2.60043 -2.600425,2.60043 -1.436176,0 -2.600426,-1.16425 -2.600426,-2.60043 0,-1.43617 1.16425,-2.60042 2.600426,-2.60042 1.436175,0 2.600425,1.16425 2.600425,2.60042 z"
       transform="matrix(1.1223973,0,0,1.1223973,439.7634,-45.262942)"
       inkscape:tile-x0="24.487339"
       inkscape:tile-y0="349.31799" />
    <path
       sodipodi:type="arc"
       style="fill:#000000;fill-opacity:1;stroke:none"
       id="use3918"
       sodipodi:cx="26.65436"
       sodipodi:cy="353.86874"
       sodipodi:rx="2.6004255"
       sodipodi:ry="2.6004255"
       d="m 29.254785,353.86874 c 0,1.43618 -1.16425,2.60043 -2.600425,2.60043 -1.436176,0 -2.600426,-1.16425 -2.600426,-2.60043 0,-1.43617 1.16425,-2.60042 2.600426,-2.60042 1.436175,0 2.600425,1.16425 2.600425,2.60042 z"
       transform="matrix(1.1223973,0,0,1.1223973,451.72536,-45.262942)"
       inkscape:tile-x0="24.487339"
       inkscape:tile-y0="349.31799" />
    <path
       sodipodi:type="arc"
       style="fill:#000000;fill-opacity:1;stroke:none"
       id="use3920"
       sodipodi:cx="26.65436"
       sodipodi:cy="353.86874"
       sodipodi:rx="2.6004255"
       sodipodi:ry="2.6004255"
       d="m 29.254785,353.86874 c 0,1.43618 -1.16425,2.60043 -2.600425,2.60043 -1.436176,0 -2.600426,-1.16425 -2.600426,-2.60043 0,-1.43617 1.16425,-2.60042 2.600426,-2.60042 1.436175,0 2.600425,1.16425 2.600425,2.60042 z"
       transform="matrix(1.1223973,0,0,1.1223973,463.68731,-45.262942)"
       inkscape:tile-x0="24.487339"
       inkscape:tile-y0="349.31799" />
    <path
       sodipodi:type="arc"
       style="fill:#000000;fill-opacity:1;stroke:none"
       id="use3922"
       sodipodi:cx="26.65436"
       sodipodi:cy="353.86874"
       sodipodi:rx="2.6004255"
       sodipodi:ry="2.6004255"
       d="m 29.254785,353.86874 c 0,1.43618 -1.16425,2.60043 -2.600425,2.60043 -1.436176,0 -2.600426,-1.16425 -2.600426,-2.60043 0,-1.43617 1.16425,-2.60042 2.600426,-2.60042 1.436175,0 2.600425,1.16425 2.600425,2.60042 z"
       transform="matrix(1.1223973,0,0,1.1223973,475.64927,-45.262942)"
       inkscape:tile-x0="24.487339"
       inkscape:tile-y0="349.31799" />
    <path
       sodipodi:type="arc"
       style="fill:#000000;fill-opacity:1;stroke:none"
       id="use3924"
       sodipodi:cx="26.65436"
       sodipodi:cy="353.86874"
       sodipodi:rx="2.6004255"
       sodipodi:ry="2.6004255"
       d="m 29.254785,353.86874 c 0,1.43618 -1.16425,2.60043 -2.600425,2.60043 -1.436176,0 -2.600426,-1.16425 -2.600426,-2.60043 0,-1.43617 1.16425,-2.60042 2.600426,-2.60042 1.436175,0 2.600425,1.16425 2.600425,2.60042 z"
       transform="matrix(1.1223973,0,0,1.1223973,487.61123,-45.262942)"
       inkscape:tile-x0="24.487339"
       inkscape:tile-y0="349.31799" />
    <path
       sodipodi:type="arc"
       style="fill:#000000;fill-opacity:1;stroke:none"
       id="use3926"
       sodipodi:cx="26.65436"
       sodipodi:cy="353.86874"
       sodipodi:rx="2.6004255"
       sodipodi:ry="2.6004255"
       d="m 29.254785,353.86874 c 0,1.43618 -1.16425,2.60043 -2.600425,2.60043 -1.436176,0 -2.600426,-1.16425 -2.600426,-2.60043 0,-1.43617 1.16425,-2.60042 2.600426,-2.60042 1.436175,0 2.600425,1.16425 2.600425,2.60042 z"
       transform="matrix(1.1223973,0,0,1.1223973,499.57319,-45.262942)"
       inkscape:tile-x0="24.487339"
       inkscape:tile-y0="349.31799" />
    <path
       sodipodi:type="arc"
       style="fill:#000000;fill-opacity:1;stroke:none"
       id="use3928"
       sodipodi:cx="26.65436"
       sodipodi:cy="353.86874"
       sodipodi:rx="2.6004255"
       sodipodi:ry="2.6004255"
       d="m 29.254785,353.86874 c 0,1.43618 -1.16425,2.60043 -2.600425,2.60043 -1.436176,0 -2.600426,-1.16425 -2.600426,-2.60043 0,-1.43617 1.16425,-2.60042 2.600426,-2.60042 1.436175,0 2.600425,1.16425 2.600425,2.60042 z"
       transform="matrix(1.1223973,0,0,1.1223973,511.53514,-45.262942)"
       inkscape:tile-x0="24.487339"
       inkscape:tile-y0="349.31799" />
    <path
       sodipodi:type="arc"
       style="fill:#000000;fill-opacity:1;stroke:none"
       id="use3930"
       sodipodi:cx="26.65436"
       sodipodi:cy="353.86874"
       sodipodi:rx="2.6004255"
       sodipodi:ry="2.6004255"
       d="m 29.254785,353.86874 c 0,1.43618 -1.16425,2.60043 -2.600425,2.60043 -1.436176,0 -2.600426,-1.16425 -2.600426,-2.60043 0,-1.43617 1.16425,-2.60042 2.600426,-2.60042 1.436175,0 2.600425,1.16425 2.600425,2.60042 z"
       transform="matrix(1.1223973,0,0,1.1223973,523.4971,-45.262942)"
       inkscape:tile-x0="24.487339"
       inkscape:tile-y0="349.31799" />
    <path
       sodipodi:type="arc"
       style="fill:#000000;fill-opacity:1;stroke:none"
       id="use3932"
       sodipodi:cx="26.65436"
       sodipodi:cy="353.86874"
       sodipodi:rx="2.6004255"
       sodipodi:ry="2.6004255"
       d="m 29.254785,353.86874 c 0,1.43618 -1.16425,2.60043 -2.600425,2.60043 -1.436176,0 -2.600426,-1.16425 -2.600426,-2.60043 0,-1.43617 1.16425,-2.60042 2.600426,-2.60042 1.436175,0 2.600425,1.16425 2.600425,2.60042 z"
       transform="matrix(1.1223973,0,0,1.1223973,535.45906,-45.262942)"
       inkscape:tile-x0="24.487339"
       inkscape:tile-y0="349.31799" />
    <path
       sodipodi:type="arc"
       style="fill:#000000;fill-opacity:1;stroke:none"
       id="use3934"
       sodipodi:cx="26.65436"
       sodipodi:cy="353.86874"
       sodipodi:rx="2.6004255"
       sodipodi:ry="2.6004255"
       d="m 29.254785,353.86874 c 0,1.43618 -1.16425,2.60043 -2.600425,2.60043 -1.436176,0 -2.600426,-1.16425 -2.600426,-2.60043 0,-1.43617 1.16425,-2.60042 2.600426,-2.60042 1.436175,0 2.600425,1.16425 2.600425,2.60042 z"
       transform="matrix(1.1223973,0,0,1.1223973,547.42102,-45.262942)"
       inkscape:tile-x0="24.487339"
       inkscape:tile-y0="349.31799" />
    <path
       sodipodi:type="arc"
       style="fill:#000000;fill-opacity:1;stroke:none"
       id="use3936"
       sodipodi:cx="26.65436"
       sodipodi:cy="353.86874"
       sodipodi:rx="2.6004255"
       sodipodi:ry="2.6004255"
       d="m 29.254785,353.86874 c 0,1.43618 -1.16425,2.60043 -2.600425,2.60043 -1.436176,0 -2.600426,-1.16425 -2.600426,-2.60043 0,-1.43617 1.16425,-2.60042 2.600426,-2.60042 1.436175,0 2.600425,1.16425 2.600425,2.60042 z"
       transform="matrix(1.1223973,0,0,1.1223973,559.38297,-45.262942)"
       inkscape:tile-x0="24.487339"
       inkscape:tile-y0="349.31799" />
    <path
       sodipodi:type="arc"
       style="fill:#000000;fill-opacity:1;stroke:none"
       id="use3938"
       sodipodi:cx="26.65436"
       sodipodi:cy="353.86874"
       sodipodi:rx="2.6004255"
       sodipodi:ry="2.6004255"
       d="m 29.254785,353.86874 c 0,1.43618 -1.16425,2.60043 -2.600425,2.60043 -1.436176,0 -2.600426,-1.16425 -2.600426,-2.60043 0,-1.43617 1.16425,-2.60042 2.600426,-2.60042 1.436175,0 2.600425,1.16425 2.600425,2.60042 z"
       transform="matrix(1.1223973,0,0,1.1223973,571.34493,-45.262942)"
       inkscape:tile-x0="24.487339"
       inkscape:tile-y0="349.31799" />
    <path
       sodipodi:type="arc"
       style="fill:#000000;fill-opacity:1;stroke:none"
       id="use3940"
       sodipodi:cx="26.65436"
       sodipodi:cy="353.86874"
       sodipodi:rx="2.6004255"
       sodipodi:ry="2.6004255"
       d="m 29.254785,353.86874 c 0,1.43618 -1.16425,2.60043 -2.600425,2.60043 -1.436176,0 -2.600426,-1.16425 -2.600426,-2.60043 0,-1.43617 1.16425,-2.60042 2.600426,-2.60042 1.436175,0 2.600425,1.16425 2.600425,2.60042 z"
       transform="matrix(1.1223973,0,0,1.1223973,583.30689,-45.262942)"
       inkscape:tile-x0="24.487339"
       inkscape:tile-y0="349.31799" />
    <path
       sodipodi:type="arc"
       style="fill:#000000;fill-opacity:1;stroke:none"
       id="use3942"
       sodipodi:cx="26.65436"
       sodipodi:cy="353.86874"
       sodipodi:rx="2.6004255"
       sodipodi:ry="2.6004255"
       d="m 29.254785,353.86874 c 0,1.43618 -1.16425,2.60043 -2.600425,2.60043 -1.436176,0 -2.600426,-1.16425 -2.600426,-2.60043 0,-1.43617 1.16425,-2.60042 2.600426,-2.60042 1.436175,0 2.600425,1.16425 2.600425,2.60042 z"
       transform="matrix(1.1223973,0,0,1.1223973,595.26884,-45.262942)"
       inkscape:tile-x0="24.487339"
       inkscape:tile-y0="349.31799" />
    <path
       sodipodi:type="arc"
       style="fill:#000000;fill-opacity:1;stroke:none"
       id="use3944"
       sodipodi:cx="26.65436"
       sodipodi:cy="353.86874"
       sodipodi:rx="2.6004255"
       sodipodi:ry="2.6004255"
       d="m 29.254785,353.86874 c 0,1.43618 -1.16425,2.60043 -2.600425,2.60043 -1.436176,0 -2.600426,-1.16425 -2.600426,-2.60043 0,-1.43617 1.16425,-2.60042 2.600426,-2.60042 1.436175,0 2.600425,1.16425 2.600425,2.60042 z"
       transform="matrix(1.1223973,0,0,1.1223973,607.2308,-45.262942)"
       inkscape:tile-x0="24.487339"
       inkscape:tile-y0="349.31799" />
    <path
       sodipodi:type="arc"
       style="fill:#000000;fill-opacity:1;stroke:none"
       id="use3946"
       sodipodi:cx="26.65436"
       sodipodi:cy="353.86874"
       sodipodi:rx="2.6004255"
       sodipodi:ry="2.6004255"
       d="m 29.254785,353.86874 c 0,1.43618 -1.16425,2.60043 -2.600425,2.60043 -1.436176,0 -2.600426,-1.16425 -2.600426,-2.60043 0,-1.43617 1.16425,-2.60042 2.600426,-2.60042 1.436175,0 2.600425,1.16425 2.600425,2.60042 z"
       transform="matrix(1.1223973,0,0,1.1223973,619.19276,-45.262942)"
       inkscape:tile-x0="24.487339"
       inkscape:tile-y0="349.31799" />
    <path
       sodipodi:type="arc"
       style="fill:#000000;fill-opacity:1;stroke:none"
       id="use3948"
       sodipodi:cx="26.65436"
       sodipodi:cy="353.86874"
       sodipodi:rx="2.6004255"
       sodipodi:ry="2.6004255"
       d="m 29.254785,353.86874 c 0,1.43618 -1.16425,2.60043 -2.600425,2.60043 -1.436176,0 -2.600426,-1.16425 -2.600426,-2.60043 0,-1.43617 1.16425,-2.60042 2.600426,-2.60042 1.436175,0 2.600425,1.16425 2.600425,2.60042 z"
       transform="matrix(1.1223973,0,0,1.1223973,631.15472,-45.262942)"
       inkscape:tile-x0="24.487339"
       inkscape:tile-y0="349.31799" />
    <path
       sodipodi:type="arc"
       style="fill:#000000;fill-opacity:1;stroke:none"
       id="use3950"
       sodipodi:cx="26.65436"
       sodipodi:cy="353.86874"
       sodipodi:rx="2.6004255"
       sodipodi:ry="2.6004255"
       d="m 29.254785,353.86874 c 0,1.43618 -1.16425,2.60043 -2.600425,2.60043 -1.436176,0 -2.600426,-1.16425 -2.600426,-2.60043 0,-1.43617 1.16425,-2.60042 2.600426,-2.60042 1.436175,0 2.600425,1.16425 2.600425,2.60042 z"
       transform="matrix(1.1223973,0,0,1.1223973,643.11667,-45.262942)"
       inkscape:tile-x0="24.487339"
       inkscape:tile-y0="349.31799" />
    <path
       sodipodi:type="arc"
       style="fill:#000000;fill-opacity:1;stroke:none"
       id="use3952"
       sodipodi:cx="26.65436"
       sodipodi:cy="353.86874"
       sodipodi:rx="2.6004255"
       sodipodi:ry="2.6004255"
       d="m 29.254785,353.86874 c 0,1.43618 -1.16425,2.60043 -2.600425,2.60043 -1.436176,0 -2.600426,-1.16425 -2.600426,-2.60043 0,-1.43617 1.16425,-2.60042 2.600426,-2.60042 1.436175,0 2.600425,1.16425 2.600425,2.60042 z"
       transform="matrix(1.1223973,0,0,1.1223973,655.07863,-45.262942)"
       inkscape:tile-x0="24.487339"
       inkscape:tile-y0="349.31799" />
    <path
       sodipodi:type="arc"
       style="fill:#000000;fill-opacity:1;stroke:none"
       id="use3954"
       sodipodi:cx="26.65436"
       sodipodi:cy="353.86874"
       sodipodi:rx="2.6004255"
       sodipodi:ry="2.6004255"
       d="m 29.254785,353.86874 c 0,1.43618 -1.16425,2.60043 -2.600425,2.60043 -1.436176,0 -2.600426,-1.16425 -2.600426,-2.60043 0,-1.43617 1.16425,-2.60042 2.600426,-2.60042 1.436175,0 2.600425,1.16425 2.600425,2.60042 z"
       transform="matrix(1.1223973,0,0,1.1223973,667.04059,-45.262942)"
       inkscape:tile-x0="24.487339"
       inkscape:tile-y0="349.31799" />
    <path
       sodipodi:type="arc"
       style="fill:#000000;fill-opacity:1;stroke:none"
       id="use3956"
       sodipodi:cx="26.65436"
       sodipodi:cy="353.86874"
       sodipodi:rx="2.6004255"
       sodipodi:ry="2.6004255"
       d="m 29.254785,353.86874 c 0,1.43618 -1.16425,2.60043 -2.600425,2.60043 -1.436176,0 -2.600426,-1.16425 -2.600426,-2.60043 0,-1.43617 1.16425,-2.60042 2.600426,-2.60042 1.436175,0 2.600425,1.16425 2.600425,2.60042 z"
       transform="matrix(1.1223973,0,0,1.1223973,679.00255,-45.262942)"
       inkscape:tile-x0="24.487339"
       inkscape:tile-y0="349.31799" />
    <path
       sodipodi:type="arc"
       style="fill:#000000;fill-opacity:1;stroke:none"
       id="use3958"
       sodipodi:cx="26.65436"
       sodipodi:cy="353.86874"
       sodipodi:rx="2.6004255"
       sodipodi:ry="2.6004255"
       d="m 29.254785,353.86874 c 0,1.43618 -1.16425,2.60043 -2.600425,2.60043 -1.436176,0 -2.600426,-1.16425 -2.600426,-2.60043 0,-1.43617 1.16425,-2.60042 2.600426,-2.60042 1.436175,0 2.600425,1.16425 2.600425,2.60042 z"
       transform="matrix(1.1223973,0,0,1.1223973,690.9645,-45.262942)"
       inkscape:tile-x0="24.487339"
       inkscape:tile-y0="349.31799" />
    <path
       sodipodi:type="arc"
       style="fill:#000000;fill-opacity:1;stroke:none"
       id="use3960"
       sodipodi:cx="26.65436"
       sodipodi:cy="353.86874"
       sodipodi:rx="2.6004255"
       sodipodi:ry="2.6004255"
       d="m 29.254785,353.86874 c 0,1.43618 -1.16425,2.60043 -2.600425,2.60043 -1.436176,0 -2.600426,-1.16425 -2.600426,-2.60043 0,-1.43617 1.16425,-2.60042 2.600426,-2.60042 1.436175,0 2.600425,1.16425 2.600425,2.60042 z"
       transform="matrix(1.1223973,0,0,1.1223973,702.92646,-45.262942)"
       inkscape:tile-x0="24.487339"
       inkscape:tile-y0="349.31799" />
  </g>
  <path
     style="fill:#000000;fill-opacity:1;stroke:none"
     d=""
     title="sin(x);"
     id="path7908"
     inkscape:connector-curvature="0" />
  <path
     inkscape:tile-y0="349.6643"
     inkscape:tile-x0="20.926979"
     sodipodi:nodetypes="cccccc"
     inkscape:connector-curvature="0"
     style="fill:none;stroke:#000000;stroke-width:1.95856559;stroke-linecap:round;stroke-miterlimit:4;stroke-opacity:0.99607843;stroke-dasharray:none"
     d="m 1.0202437,128.60086 c 0.45113,-0.54686 0.90225,-1.09157 1.35339,-1.51056 0.81679,-0.75522 1.81067,-1.0551 2.70674,-0.52538 1.71155,1.28568 2.48623,3.00458 4.26693,4.09637 1.3932293,0.80734 2.3861293,-0.11808 3.1203493,-0.78037 0.45112,-0.41853 1.11004,-1.14353 1.56116,-1.6904"
     title="sin(x)"
     id="use13749" />
  <path
     inkscape:tile-y0="349.6643"
     inkscape:tile-x0="20.926979"
     sodipodi:nodetypes="cccccc"
     inkscape:connector-curvature="0"
     style="fill:none;stroke:#000000;stroke-width:1.95856559;stroke-linecap:round;stroke-miterlimit:4;stroke-opacity:0.99607843;stroke-dasharray:none"
     d="m 13.690243,128.60086 c 0.45113,-0.54686 0.90225,-1.09157 1.35339,-1.51056 0.81679,-0.75522 1.81067,-1.0551 2.70674,-0.52538 1.71155,1.28568 2.48623,3.00458 4.26693,4.09637 1.39323,0.80734 2.38613,-0.11808 3.12035,-0.78037 0.45112,-0.41853 1.11004,-1.14353 1.56116,-1.6904"
     title="sin(x)"
     id="use13751" />
  <path
     inkscape:tile-y0="349.6643"
     inkscape:tile-x0="20.926979"
     sodipodi:nodetypes="cccccc"
     inkscape:connector-curvature="0"
     style="fill:none;stroke:#000000;stroke-width:1.95856559;stroke-linecap:round;stroke-miterlimit:4;stroke-opacity:0.99607843;stroke-dasharray:none"
     d="m 26.360243,128.60086 c 0.45113,-0.54686 0.90225,-1.09157 1.35339,-1.51056 0.81679,-0.75522 1.81067,-1.0551 2.70674,-0.52538 1.71155,1.28568 2.48623,3.00458 4.26693,4.09637 1.39323,0.80734 2.38613,-0.11808 3.12035,-0.78037 0.45112,-0.41853 1.11004,-1.14353 1.56116,-1.6904"
     title="sin(x)"
     id="use13753" />
  <path
     inkscape:tile-y0="349.6643"
     inkscape:tile-x0="20.926979"
     sodipodi:nodetypes="cccccc"
     inkscape:connector-curvature="0"
     style="fill:none;stroke:#000000;stroke-width:1.95856559;stroke-linecap:round;stroke-miterlimit:4;stroke-opacity:0.99607843;stroke-dasharray:none"
     d="m 39.030263,128.60086 c 0.45113,-0.54686 0.90225,-1.09157 1.35339,-1.51056 0.81679,-0.75522 1.81067,-1.0551 2.70674,-0.52538 1.71155,1.28568 2.48623,3.00458 4.26693,4.09637 1.39323,0.80734 2.38613,-0.11808 3.12035,-0.78037 0.45112,-0.41853 1.11004,-1.14353 1.56116,-1.6904"
     title="sin(x)"
     id="use13755" />
  <path
     inkscape:tile-y0="349.6643"
     inkscape:tile-x0="20.926979"
     sodipodi:nodetypes="cccccc"
     inkscape:connector-curvature="0"
     style="fill:none;stroke:#000000;stroke-width:1.95856559;stroke-linecap:round;stroke-miterlimit:4;stroke-opacity:0.99607843;stroke-dasharray:none"
     d="m 51.700263,128.60086 c 0.45113,-0.54686 0.90225,-1.09157 1.35339,-1.51056 0.81679,-0.75522 1.81067,-1.0551 2.70674,-0.52538 1.71155,1.28568 2.48623,3.00458 4.26693,4.09637 1.39323,0.80734 2.38613,-0.11808 3.12035,-0.78037 0.45112,-0.41853 1.11004,-1.14353 1.56116,-1.6904"
     title="sin(x)"
     id="use13757" />
  <path
     inkscape:tile-y0="349.6643"
     inkscape:tile-x0="20.926979"
     sodipodi:nodetypes="cccccc"
     inkscape:connector-curvature="0"
     style="fill:none;stroke:#000000;stroke-width:1.95856559;stroke-linecap:round;stroke-miterlimit:4;stroke-opacity:0.99607843;stroke-dasharray:none"
     d="m 64.370263,128.60086 c 0.45113,-0.54686 0.90225,-1.09157 1.35339,-1.51056 0.81679,-0.75522 1.81067,-1.0551 2.70674,-0.52538 1.71155,1.28568 2.48623,3.00458 4.26693,4.09637 1.39323,0.80734 2.38613,-0.11808 3.12035,-0.78037 0.45112,-0.41853 1.11004,-1.14353 1.56116,-1.6904"
     title="sin(x)"
     id="use13759" />
  <path
     inkscape:tile-y0="349.6643"
     inkscape:tile-x0="20.926979"
     sodipodi:nodetypes="cccccc"
     inkscape:connector-curvature="0"
     style="fill:none;stroke:#000000;stroke-width:1.95856559;stroke-linecap:round;stroke-miterlimit:4;stroke-opacity:0.99607843;stroke-dasharray:none"
     d="m 77.040263,128.60086 c 0.45113,-0.54686 0.90225,-1.09157 1.35339,-1.51056 0.81679,-0.75522 1.81067,-1.0551 2.70674,-0.52538 1.71155,1.28568 2.48623,3.00458 4.26693,4.09637 1.39323,0.80734 2.38613,-0.11808 3.12035,-0.78037 0.45112,-0.41853 1.11004,-1.14353 1.56116,-1.6904"
     title="sin(x)"
     id="use13761" />
  <path
     inkscape:tile-y0="349.6643"
     inkscape:tile-x0="20.926979"
     sodipodi:nodetypes="cccccc"
     inkscape:connector-curvature="0"
     style="fill:none;stroke:#000000;stroke-width:1.95856559;stroke-linecap:round;stroke-miterlimit:4;stroke-opacity:0.99607843;stroke-dasharray:none"
     d="m 89.710253,128.60086 c 0.45113,-0.54686 0.90225,-1.09157 1.35339,-1.51056 0.81679,-0.75522 1.81067,-1.0551 2.70674,-0.52538 1.71155,1.28568 2.48623,3.00458 4.26693,4.09637 1.39323,0.80734 2.386127,-0.11808 3.120347,-0.78037 0.45112,-0.41853 1.11004,-1.14353 1.56116,-1.6904"
     title="sin(x)"
     id="use13763" />
  <path
     inkscape:tile-y0="349.6643"
     inkscape:tile-x0="20.926979"
     sodipodi:nodetypes="cccccc"
     inkscape:connector-curvature="0"
     style="fill:none;stroke:#000000;stroke-width:1.95856559;stroke-linecap:round;stroke-miterlimit:4;stroke-opacity:0.99607843;stroke-dasharray:none"
     d="m 102.38025,128.60086 c 0.45113,-0.54686 0.90225,-1.09157 1.35339,-1.51056 0.81679,-0.75522 1.81067,-1.0551 2.70674,-0.52538 1.71155,1.28568 2.48623,3.00458 4.26693,4.09637 1.39323,0.80734 2.38613,-0.11808 3.12035,-0.78037 0.45112,-0.41853 1.11004,-1.14353 1.56116,-1.6904"
     title="sin(x)"
     id="use13765" />
  <path
     inkscape:tile-y0="349.6643"
     inkscape:tile-x0="20.926979"
     sodipodi:nodetypes="cccccc"
     inkscape:connector-curvature="0"
     style="fill:none;stroke:#000000;stroke-width:1.95856559;stroke-linecap:round;stroke-miterlimit:4;stroke-opacity:0.99607843;stroke-dasharray:none"
     d="m 115.05027,128.60086 c 0.45113,-0.54686 0.90225,-1.09157 1.35339,-1.51056 0.81679,-0.75522 1.81067,-1.0551 2.70674,-0.52538 1.71155,1.28568 2.48623,3.00458 4.26693,4.09637 1.39323,0.80734 2.38613,-0.11808 3.12035,-0.78037 0.45112,-0.41853 1.11004,-1.14353 1.56116,-1.6904"
     title="sin(x)"
     id="use13767" />
  <path
     inkscape:tile-y0="349.6643"
     inkscape:tile-x0="20.926979"
     sodipodi:nodetypes="cccccc"
     inkscape:connector-curvature="0"
     style="fill:none;stroke:#000000;stroke-width:1.95856559;stroke-linecap:round;stroke-miterlimit:4;stroke-opacity:0.99607843;stroke-dasharray:none"
     d="m 127.72027,128.60086 c 0.45113,-0.54686 0.90225,-1.09157 1.35339,-1.51056 0.81679,-0.75522 1.81067,-1.0551 2.70674,-0.52538 1.71155,1.28568 2.48623,3.00458 4.26693,4.09637 1.39323,0.80734 2.38613,-0.11808 3.12035,-0.78037 0.45112,-0.41853 1.11004,-1.14353 1.56116,-1.6904"
     title="sin(x)"
     id="use13769" />
  <path
     inkscape:tile-y0="349.6643"
     inkscape:tile-x0="20.926979"
     sodipodi:nodetypes="cccccc"
     inkscape:connector-curvature="0"
     style="fill:none;stroke:#000000;stroke-width:1.95856559;stroke-linecap:round;stroke-miterlimit:4;stroke-opacity:0.99607843;stroke-dasharray:none"
     d="m 140.39027,128.60086 c 0.45113,-0.54686 0.90225,-1.09157 1.35339,-1.51056 0.81679,-0.75522 1.81067,-1.0551 2.70674,-0.52538 1.71155,1.28568 2.48623,3.00458 4.26693,4.09637 1.39323,0.80734 2.38613,-0.11808 3.12035,-0.78037 0.45112,-0.41853 1.11004,-1.14353 1.56116,-1.6904"
     title="sin(x)"
     id="use13771" />
  <text
     xml:space="preserve"
     style="font-size:14px;font-style:normal;font-variant:normal;font-weight:normal;font-stretch:normal;text-align:center;line-height:125%;letter-spacing:0px;word-spacing:0px;writing-mode:lr-tb;text-anchor:middle;fill:#000000;fill-opacity:1;stroke:none;font-family:Sans;-inkscape-font-specification:Sans"
     x="9.6984472"
     y="158.53171"
     id="text13833"
     sodipodi:linespacing="125%"><tspan
       sodipodi:role="line"
       id="tspan13835"
       x="9.6984472"
       y="158.53171" /></text>
  <text
     xml:space="preserve"
     style="font-size:14px;font-style:normal;font-variant:normal;font-weight:normal;font-stretch:normal;text-align:start;line-height:125%;letter-spacing:0px;word-spacing:0px;writing-mode:lr-tb;text-anchor:start;fill:#000000;fill-opacity:1;stroke:none;font-family:Sans;-inkscape-font-specification:Sans"
     x="155.58458"
     y="133.18076"
     id="text13837"
     sodipodi:linespacing="125%"><tspan
       sodipodi:role="line"
       id="tspan13839"
       x="155.58458"
       y="133.18076">Mesh</tspan></text>
  <rect
     inkscape:tile-y0="125.19624"
     inkscape:tile-x0="7.457767"
     y="186.9614"
     x="4.329793"
     height="3.593128"
     width="17.017359"
     id="use14069"
     style="fill:#48707c;fill-opacity:1;stroke:none" />
  <rect
     inkscape:tile-y0="125.19624"
     inkscape:tile-x0="7.457767"
     y="186.9614"
     x="23.678532"
     height="3.593128"
     width="17.017359"
     id="use14071"
     style="fill:#48707c;fill-opacity:1;stroke:none" />
  <rect
     inkscape:tile-y0="125.19624"
     inkscape:tile-x0="7.457767"
     y="186.9614"
     x="43.027275"
     height="3.593128"
     width="17.017359"
     id="use14073"
     style="fill:#48707c;fill-opacity:1;stroke:none" />
  <rect
     inkscape:tile-y0="125.19624"
     inkscape:tile-x0="7.457767"
     y="186.9614"
     x="62.376015"
     height="3.593128"
     width="17.017359"
     id="use14075"
     style="fill:#48707c;fill-opacity:1;stroke:none" />
  <rect
     inkscape:tile-y0="125.19624"
     inkscape:tile-x0="7.457767"
     y="186.9614"
     x="81.724747"
     height="3.593128"
     width="17.017359"
     id="use14077"
     style="fill:#48707c;fill-opacity:1;stroke:none" />
  <rect
     inkscape:tile-y0="125.19624"
     inkscape:tile-x0="7.457767"
     y="186.9614"
     x="101.07347"
     height="3.593128"
     width="17.017359"
     id="use14079"
     style="fill:#48707c;fill-opacity:1;stroke:none" />
  <rect
     inkscape:tile-y0="125.19624"
     inkscape:tile-x0="7.457767"
     y="186.9614"
     x="120.42221"
     height="3.593128"
     width="17.017359"
     id="use14081"
     style="fill:#48707c;fill-opacity:1;stroke:none" />
  <rect
     inkscape:tile-y0="125.19624"
     inkscape:tile-x0="7.457767"
     y="186.9614"
     x="139.77095"
     height="3.593128"
     width="17.017359"
     id="use14083"
     style="fill:#48707c;fill-opacity:1;stroke:none" />
  <rect
     inkscape:tile-y0="125.19624"
     inkscape:tile-x0="7.457767"
     y="197.35243"
     x="4.479033"
     height="3.593128"
     width="17.017359"
     id="use14203"
     style="fill:#923519;fill-opacity:1;stroke:none" />
  <rect
     inkscape:tile-y0="125.19624"
     inkscape:tile-x0="7.457767"
     y="197.35243"
     x="23.827772"
     height="3.593128"
     width="17.017359"
     id="use14205"
     style="fill:#923519;fill-opacity:1;stroke:none" />
  <rect
     inkscape:tile-y0="125.19624"
     inkscape:tile-x0="7.457767"
     y="197.35243"
     x="43.176502"
     height="3.593128"
     width="17.017359"
     id="use14207"
     style="fill:#923519;fill-opacity:1;stroke:none" />
  <rect
     inkscape:tile-y0="125.19624"
     inkscape:tile-x0="7.457767"
     y="197.35243"
     x="62.525242"
     height="3.593128"
     width="17.017359"
     id="use14209"
     style="fill:#923519;fill-opacity:1;stroke:none" />
  <rect
     inkscape:tile-y0="125.19624"
     inkscape:tile-x0="7.457767"
     y="197.35243"
     x="81.873978"
     height="3.593128"
     width="17.017359"
     id="use14211"
     style="fill:#923519;fill-opacity:1;stroke:none" />
  <rect
     inkscape:tile-y0="125.19624"
     inkscape:tile-x0="7.457767"
     y="197.35243"
     x="101.2227"
     height="3.593128"
     width="17.017359"
     id="use14213"
     style="fill:#923519;fill-opacity:1;stroke:none" />
  <rect
     inkscape:tile-y0="125.19624"
     inkscape:tile-x0="7.457767"
     y="197.35243"
     x="120.4517"
     height="3.593128"
     width="17.017359"
     id="use14215"
     style="fill:#923519;fill-opacity:1;stroke:none" />
  <rect
     inkscape:tile-y0="125.19624"
     inkscape:tile-x0="7.457767"
     y="197.35243"
     x="139.68071"
     height="3.593128"
     width="17.017359"
     id="use14217"
     style="fill:#923519;fill-opacity:1;stroke:none" />
  <rect
     style="fill:#923519;fill-opacity:1;stroke:none"
     id="rect13841-3-1"
     width="156.66296"
     height="3.7040019"
     x="0.037143689"
     y="192.20822"
     inkscape:tile-cx="12.365106"
     inkscape:tile-cy="126.2324"
     inkscape:tile-w="9.8146782"
     inkscape:tile-h="2.072319"
     inkscape:tile-x0="7.457767"
     inkscape:tile-y0="125.19624" />
  <path
     style="fill:none;stroke:#000000;stroke-width:1.73386824px;stroke-linecap:butt;stroke-linejoin:miter;stroke-opacity:1"
     d="m 0.03714369,14.188579 156.66291631,0"
     id="path14278"
     inkscape:connector-curvature="0"
     sodipodi:nodetypes="cc" />
  <text
     xml:space="preserve"
     style="font-size:14px;font-style:normal;font-variant:normal;font-weight:normal;font-stretch:normal;text-align:center;line-height:125%;letter-spacing:0px;word-spacing:0px;writing-mode:lr-tb;text-anchor:middle;fill:#000000;fill-opacity:1;stroke:none;font-family:Sans;-inkscape-font-specification:Sans"
     x="-223.85353"
     y="106.02132"
     id="text14280"
     sodipodi:linespacing="125%"><tspan
       sodipodi:role="line"
       x="-223.85353"
       y="106.02132"
       id="tspan14288" /></text>
  <text
     xml:space="preserve"
     style="font-size:14px;font-style:normal;font-variant:normal;font-weight:normal;font-stretch:normal;text-align:start;line-height:125%;letter-spacing:0px;word-spacing:0px;writing-mode:lr-tb;text-anchor:start;fill:#000000;fill-opacity:1;stroke:none;font-family:Sans;-inkscape-font-specification:Sans"
     x="62.144215"
     y="10.636719"
     id="text14284"
     sodipodi:linespacing="125%"><tspan
       sodipodi:role="line"
       id="tspan14286"
       x="62.144215"
       y="10.636719">Drift-Kathode</tspan></text>
  <flowRoot
     xml:space="preserve"
     id="flowRoot14294"
     style="font-size:8.07443142px;font-style:normal;font-variant:normal;font-weight:normal;font-stretch:normal;text-align:center;line-height:125%;letter-spacing:0px;word-spacing:0px;writing-mode:lr-tb;text-anchor:middle;fill:#000000;fill-opacity:1;stroke:none;font-family:Sans;-inkscape-font-specification:Sans"
     transform="matrix(1.7338682,0,0,1.7338682,-6.8069376,-91.222985)"><flowRegion
       id="flowRegion14296"><rect
         id="rect14298"
         width="72.663208"
         height="19.719492"
         x="5.46875"
         y="64.842575"
         style="font-size:8.07443142px;font-style:normal;font-variant:normal;font-weight:normal;font-stretch:normal;text-align:center;line-height:125%;writing-mode:lr-tb;text-anchor:middle;font-family:Sans;-inkscape-font-specification:Sans" /></flowRegion><flowPara
       id="flowPara14302"
       style="font-size:8.07443142px;font-style:normal;font-variant:normal;font-weight:normal;font-stretch:normal;text-align:start;line-height:125%;writing-mode:lr-tb;text-anchor:start;font-family:Sans;-inkscape-font-specification:Sans">Driftregion</flowPara><flowPara
       id="flowPara3847"
       style="font-size:8.07443142px;font-style:normal;font-variant:normal;font-weight:normal;font-stretch:normal;text-align:start;line-height:125%;writing-mode:lr-tb;text-anchor:start;font-family:Sans;-inkscape-font-specification:Sans">($\approx 5mm$)</flowPara></flowRoot>  <text
     xml:space="preserve"
     style="font-size:14px;font-style:normal;font-variant:normal;font-weight:normal;font-stretch:normal;text-align:start;line-height:125%;letter-spacing:0px;word-spacing:0px;writing-mode:lr-tb;text-anchor:start;fill:#39545c;fill-opacity:1;stroke:none;font-family:Sans;-inkscape-font-specification:Sans"
     x="19.607319"
     y="183.47485"
     id="text13837-1"
     sodipodi:linespacing="125%"><tspan
       sodipodi:role="line"
       id="tspan13839-2"
       x="19.607319"
       y="183.47485">Resistive Streifen</tspan></text>
  <text
     xml:space="preserve"
     style="font-size:14px;font-style:normal;font-variant:normal;font-weight:normal;font-stretch:normal;text-align:start;line-height:125%;letter-spacing:0px;word-spacing:0px;writing-mode:lr-tb;text-anchor:start;fill:#000000;fill-opacity:1;stroke:none;font-family:Sans;-inkscape-font-specification:Sans"
     x="174.78575"
     y="193.0587"
     id="text14325"
     sodipodi:linespacing="125%"><tspan
       sodipodi:role="line"
       x="174.78575"
       y="193.0587"
       id="tspan14329">Y-Streifen</tspan></text>
  <text
     xml:space="preserve"
     style="font-size:14px;font-style:normal;font-variant:normal;font-weight:normal;font-stretch:normal;text-align:start;line-height:125%;letter-spacing:0px;word-spacing:0px;writing-mode:lr-tb;text-anchor:start;fill:#000000;fill-opacity:1;stroke:none;font-family:Sans;-inkscape-font-specification:Sans"
     x="174.40489"
     y="208.99437"
     id="text14337"
     sodipodi:linespacing="125%"><tspan
       sodipodi:role="line"
       id="tspan14339"
       x="174.40489"
       y="208.99437">X-Streifen</tspan></text>
  <path
     style="fill:none;stroke:#000000;stroke-width:1px;stroke-linecap:butt;stroke-linejoin:miter;stroke-opacity:1;marker-end:url(#Arrow1Mend)"
     d="m 173.0279,188.6793 -15.60607,3.59078"
     id="path14343"
     inkscape:connector-curvature="0"
     sodipodi:nodetypes="cc" />
  <path
     style="fill:none;stroke:#000000;stroke-width:1px;stroke-linecap:butt;stroke-linejoin:miter;stroke-opacity:1;marker-end:url(#Arrow1Mend)"
     d="m 174.14975,202.94304 -15.60607,-3.59078"
     id="path14343-3"
     inkscape:connector-curvature="0"
     sodipodi:nodetypes="cc" />
  <text
     xml:space="preserve"
     style="font-size:14px;font-style:normal;font-variant:normal;font-weight:normal;font-stretch:normal;text-align:start;line-height:125%;letter-spacing:0px;word-spacing:0px;writing-mode:lr-tb;text-anchor:start;fill:#000000;fill-opacity:1;stroke:none;font-family:Sans;-inkscape-font-specification:Sans"
     x="15.496802"
     y="218.43988"
     id="text14813"
     sodipodi:linespacing="125%"><tspan
       sodipodi:role="line"
       id="tspan14815"
       x="15.496802"
       y="218.43988">Leiterplatte</tspan></text>
  <text
     xml:space="preserve"
     style="font-size:14px;font-style:normal;font-variant:normal;font-weight:normal;font-stretch:normal;text-align:start;line-height:125%;letter-spacing:0px;word-spacing:0px;writing-mode:lr-tb;text-anchor:start;fill:#000000;fill-opacity:1;stroke:none;font-family:Sans;-inkscape-font-specification:Sans"
     x="4.1295962"
     y="144.91531"
     id="text4081"
     sodipodi:linespacing="125%"><tspan
       sodipodi:role="line"
       x="4.1295962"
       y="144.91531"
       id="tspan3067" /></text>
  <flowRoot
     xml:space="preserve"
     id="flowRoot3071"
     style="font-size:12px;font-style:normal;font-variant:normal;font-weight:normal;font-stretch:normal;text-align:start;line-height:125%;letter-spacing:0px;word-spacing:0px;writing-mode:lr-tb;text-anchor:start;fill:#000000;fill-opacity:1;stroke:none;font-family:Sans;-inkscape-font-specification:Sans"><flowRegion
       id="flowRegion3073"><rect
         id="rect3075"
         width="157.8125"
         height="46.875"
         x="3.125"
         y="133.60934" /></flowRegion><flowPara
       id="flowPara3077"
       style="-inkscape-font-specification:Sans;font-family:Sans;font-weight:normal;font-style:normal;font-stretch:normal;font-variant:normal;font-size:14px;text-anchor:start;text-align:start;writing-mode:lr;line-height:125%">Verstärkungsregion</flowPara><flowPara
       id="flowPara3079"
       style="-inkscape-font-specification:Sans;font-family:Sans;font-weight:normal;font-style:normal;font-stretch:normal;font-variant:normal;font-size:14px;text-anchor:start;text-align:start;writing-mode:lr;line-height:125%">($\approx 50 \mu m$)</flowPara></flowRoot></svg>
