<?xml version="1.0" encoding="UTF-8" standalone="no"?>
<!-- Created with Inkscape (http://www.inkscape.org/) -->

<svg
   xmlns:dc="http://purl.org/dc/elements/1.1/"
   xmlns:cc="http://creativecommons.org/ns#"
   xmlns:rdf="http://www.w3.org/1999/02/22-rdf-syntax-ns#"
   xmlns:svg="http://www.w3.org/2000/svg"
   xmlns="http://www.w3.org/2000/svg"
   xmlns:sodipodi="http://sodipodi.sourceforge.net/DTD/sodipodi-0.dtd"
   xmlns:inkscape="http://www.inkscape.org/namespaces/inkscape"
   width="421.81876"
   height="442.95499"
   id="svg2"
   version="1.1"
   inkscape:version="0.48.4 r9939"
   sodipodi:docname="reco-hits-and-tracks.svg">
  <defs
     id="defs4" />
  <sodipodi:namedview
     id="base"
     pagecolor="#ffffff"
     bordercolor="#666666"
     borderopacity="1.0"
     inkscape:pageopacity="0.0"
     inkscape:pageshadow="2"
     inkscape:zoom="1.4"
     inkscape:cx="161.03673"
     inkscape:cy="276.80496"
     inkscape:document-units="px"
     inkscape:current-layer="layer1"
     showgrid="false"
     showguides="true"
     inkscape:guide-bbox="true"
     inkscape:window-width="1920"
     inkscape:window-height="1151"
     inkscape:window-x="0"
     inkscape:window-y="25"
     inkscape:window-maximized="1"
     fit-margin-top="0"
     fit-margin-left="0"
     fit-margin-right="0"
     fit-margin-bottom="0">
    <inkscape:grid
       type="xygrid"
       id="grid3024"
       empspacing="5"
       visible="true"
       enabled="true"
       snapvisiblegridlinesonly="true"
       originx="-80.888745px"
       originy="-535.00972px" />
  </sodipodi:namedview>
  <metadata
     id="metadata7">
    <rdf:RDF>
      <cc:Work
         rdf:about="">
        <dc:format>image/svg+xml</dc:format>
        <dc:type
           rdf:resource="http://purl.org/dc/dcmitype/StillImage" />
        <dc:title></dc:title>
      </cc:Work>
    </rdf:RDF>
  </metadata>
  <g
     inkscape:label="Layer 1"
     inkscape:groupmode="layer"
     id="layer1"
     transform="translate(-80.888745,-74.397481)">
    <g
       id="g3279"
       style="stroke-width:3;stroke-miterlimit:4;stroke-dasharray:none">
      <path
         sodipodi:nodetypes="ccc"
         inkscape:connector-curvature="0"
         id="path2989"
         d="M 492.76152,101.61961 C 405,177.36219 250,262.36219 81.424964,259.61527 L 502.13925,76.758131"
         style="fill:none;stroke:#000000;stroke-width:3;stroke-linecap:round;stroke-linejoin:round;stroke-miterlimit:4;stroke-opacity:1;stroke-dasharray:none" />
      <path
         sodipodi:nodetypes="ccc"
         inkscape:connector-curvature="0"
         id="path2991"
         d="m 500.57108,209.99119 c -62.82145,40.00671 -150.34446,65.30323 -214.4025,61.4744 62.13897,10.21965 139.41558,34.66339 210.96629,69.82325"
         style="fill:none;stroke:#000000;stroke-width:3;stroke-linecap:round;stroke-linejoin:round;stroke-miterlimit:4;stroke-opacity:1;stroke-dasharray:none" />
      <path
         inkscape:connector-curvature="0"
         id="path2993"
         d="M 494.97062,516.84422 C 409.82831,424.3998 266.90325,336.33473 81.43022,259.64876 l 408.57143,126.42858"
         style="fill:none;stroke:#000000;stroke-width:3;stroke-linecap:round;stroke-linejoin:round;stroke-opacity:1;stroke-miterlimit:4;stroke-dasharray:none"
         sodipodi:nodetypes="ccc" />
      <path
         style="fill:none;stroke:#000000;stroke-width:3;stroke-linecap:butt;stroke-linejoin:miter;stroke-miterlimit:10;stroke-opacity:1;stroke-dasharray:6, 3;stroke-dashoffset:0"
         d="M 83.081877,259.93556 287.82861,271.75017"
         id="path4161"
         inkscape:connector-curvature="0"
         sodipodi:nodetypes="cc" />
    </g>
    <path
       transform="matrix(0.39177465,0,0,0.39177465,354.26737,31.8348)"
       inkscape:transform-center-y="-0.3894174"
       inkscape:transform-center-x="0.7745673"
       d="m 141.80704,212.69153 -11.34776,16.99448 7.56643,18.98244 -19.66936,-5.54078 -15.71521,13.062 -0.80858,-20.41886 -17.278968,-10.90969 19.169628,-7.07877 5.03623,-19.80456 12.65606,16.04394 z"
       inkscape:randomized="0"
       inkscape:rounded="0"
       inkscape:flatsided="false"
       sodipodi:arg2="0.10471976"
       sodipodi:arg1="-0.52359878"
       sodipodi:r2="15.386185"
       sodipodi:r1="30.772369"
       sodipodi:cy="228.07771"
       sodipodi:cx="115.15739"
       sodipodi:sides="5"
       id="use3037-1"
       style="fill:#ffcc00;fill-opacity:1;stroke:none"
       sodipodi:type="star" />
    <path
       transform="matrix(0.39177465,0,0,0.39177465,435.9918,244.32578)"
       inkscape:transform-center-y="-0.3894174"
       inkscape:transform-center-x="0.7745673"
       d="m 141.80704,212.69153 -11.34776,16.99448 7.56643,18.98244 -19.66936,-5.54078 -15.71521,13.062 -0.80858,-20.41886 -17.278968,-10.90969 19.169628,-7.07877 5.03623,-19.80456 12.65606,16.04394 z"
       inkscape:randomized="0"
       inkscape:rounded="0"
       inkscape:flatsided="false"
       sodipodi:arg2="0.10471976"
       sodipodi:arg1="-0.52359878"
       sodipodi:r2="15.386185"
       sodipodi:r1="30.772369"
       sodipodi:cy="228.07771"
       sodipodi:cx="115.15739"
       sodipodi:sides="5"
       id="use3037-8"
       style="fill:#ffcc00;fill-opacity:1;stroke:none"
       sodipodi:type="star" />
    <path
       transform="matrix(0.39177465,0,0,0.38309813,356.28768,166)"
       inkscape:transform-center-y="-0.3807915"
       inkscape:transform-center-x="0.7745673"
       d="m 141.80704,212.69153 -11.34776,16.99448 7.56643,18.98244 -19.66936,-5.54078 -15.71521,13.062 -0.80858,-20.41886 -17.278968,-10.90969 19.169628,-7.07877 5.03623,-19.80456 12.65606,16.04394 z"
       inkscape:randomized="0"
       inkscape:rounded="0"
       inkscape:flatsided="false"
       sodipodi:arg2="0.10471976"
       sodipodi:arg1="-0.52359878"
       sodipodi:r2="15.386185"
       sodipodi:r1="30.772369"
       sodipodi:cy="228.07771"
       sodipodi:cx="115.15739"
       sodipodi:sides="5"
       id="use3037-9"
       style="fill:#ffcc00;fill-opacity:1;stroke:none"
       sodipodi:type="star" />
    <path
       transform="matrix(0.39177465,0,0,0.39177465,355.84388,212.70048)"
       inkscape:transform-center-y="-0.3894174"
       inkscape:transform-center-x="0.7745673"
       d="m 141.80704,212.69153 -11.34776,16.99448 7.56643,18.98244 -19.66936,-5.54078 -15.71521,13.062 -0.80858,-20.41886 -17.278968,-10.90969 19.169628,-7.07877 5.03623,-19.80456 12.65606,16.04394 z"
       inkscape:randomized="0"
       inkscape:rounded="0"
       inkscape:flatsided="false"
       sodipodi:arg2="0.10471976"
       sodipodi:arg1="-0.52359878"
       sodipodi:r2="15.386185"
       sodipodi:r1="30.772369"
       sodipodi:cy="228.07771"
       sodipodi:cx="115.15739"
       sodipodi:sides="5"
       id="use3037-87"
       style="fill:#ffcc00;fill-opacity:1;stroke:none"
       sodipodi:type="star" />
    <path
       transform="matrix(0.39177465,0,0,0.39177465,354.26737,345.40623)"
       inkscape:transform-center-y="-0.3894174"
       inkscape:transform-center-x="0.7745673"
       d="m 141.80704,212.69153 -11.34776,16.99448 7.56643,18.98244 -19.66936,-5.54078 -15.71521,13.062 -0.80858,-20.41886 -17.278968,-10.90969 19.169628,-7.07877 5.03623,-19.80456 12.65606,16.04394 z"
       inkscape:randomized="0"
       inkscape:rounded="0"
       inkscape:flatsided="false"
       sodipodi:arg2="0.10471976"
       sodipodi:arg1="-0.52359878"
       sodipodi:r2="15.386185"
       sodipodi:r1="30.772369"
       sodipodi:cy="228.07771"
       sodipodi:cx="115.15739"
       sodipodi:sides="5"
       id="use3037-27"
       style="fill:#ffcc00;fill-opacity:1;stroke:none"
       sodipodi:type="star" />
    <path
       transform="matrix(0.39177465,0,0,0.39177465,274.18071,184.33916)"
       inkscape:transform-center-y="-0.3894174"
       inkscape:transform-center-x="0.7745673"
       d="m 141.80704,212.69153 -11.34776,16.99448 7.56643,18.98244 -19.66936,-5.54078 -15.71521,13.062 -0.80858,-20.41886 -17.278968,-10.90969 19.169628,-7.07877 5.03623,-19.80456 12.65606,16.04394 z"
       inkscape:randomized="0"
       inkscape:rounded="0"
       inkscape:flatsided="false"
       sodipodi:arg2="0.10471976"
       sodipodi:arg1="-0.52359878"
       sodipodi:r2="15.386185"
       sodipodi:r1="30.772369"
       sodipodi:cy="228.07771"
       sodipodi:cx="115.15739"
       sodipodi:sides="5"
       id="use3037-13"
       style="fill:#ffcc00;fill-opacity:1;stroke:none"
       sodipodi:type="star" />
    <path
       transform="matrix(0.39177465,0,0,0.39177465,275.69594,66.834802)"
       inkscape:transform-center-y="-0.3894174"
       inkscape:transform-center-x="0.7745673"
       d="m 141.80704,212.69153 -11.34776,16.99448 7.56643,18.98244 -19.66936,-5.54078 -15.71521,13.062 -0.80858,-20.41886 -17.278968,-10.90969 19.169628,-7.07877 5.03623,-19.80456 12.65606,16.04394 z"
       inkscape:randomized="0"
       inkscape:rounded="0"
       inkscape:flatsided="false"
       sodipodi:arg2="0.10471976"
       sodipodi:arg1="-0.52359878"
       sodipodi:r2="15.386185"
       sodipodi:r1="30.772369"
       sodipodi:cy="228.07771"
       sodipodi:cx="115.15739"
       sodipodi:sides="5"
       id="use3037-61"
       style="fill:#ffcc00;fill-opacity:1;stroke:none"
       sodipodi:type="star" />
    <path
       transform="matrix(0.39177465,0,0,0.39177465,196.65533,101.7902)"
       inkscape:transform-center-y="-0.3894174"
       inkscape:transform-center-x="0.7745673"
       d="m 141.80704,212.69153 -11.34776,16.99448 7.56643,18.98244 -19.66936,-5.54078 -15.71521,13.062 -0.80858,-20.41886 -17.278968,-10.90969 19.169628,-7.07877 5.03623,-19.80456 12.65606,16.04394 z"
       inkscape:randomized="0"
       inkscape:rounded="0"
       inkscape:flatsided="false"
       sodipodi:arg2="0.10471976"
       sodipodi:arg1="-0.52359878"
       sodipodi:r2="15.386185"
       sodipodi:r1="30.772369"
       sodipodi:cy="228.07771"
       sodipodi:cx="115.15739"
       sodipodi:sides="5"
       id="use3037-5"
       style="fill:#ffcc00;fill-opacity:1;stroke:none"
       sodipodi:type="star" />
    <path
       transform="matrix(0.39177465,0,0,0.39177465,196.65533,248.05417)"
       inkscape:transform-center-y="-0.3894174"
       inkscape:transform-center-x="0.7745673"
       d="m 141.80704,212.69153 -11.34776,16.99448 7.56643,18.98244 -19.66936,-5.54078 -15.71521,13.062 -0.80858,-20.41886 -17.278968,-10.90969 19.169628,-7.07877 5.03623,-19.80456 12.65606,16.04394 z"
       inkscape:randomized="0"
       inkscape:rounded="0"
       inkscape:flatsided="false"
       sodipodi:arg2="0.10471976"
       sodipodi:arg1="-0.52359878"
       sodipodi:r2="15.386185"
       sodipodi:r1="30.772369"
       sodipodi:cy="228.07771"
       sodipodi:cx="115.15739"
       sodipodi:sides="5"
       id="use3037-57"
       style="fill:#ffcc00;fill-opacity:1;stroke:none"
       sodipodi:type="star" />
    <path
       transform="matrix(0.39177465,0,0,0.39177465,115.69594,164.51863)"
       inkscape:transform-center-y="-0.3894174"
       inkscape:transform-center-x="0.7745673"
       d="m 141.80704,212.69153 -11.34776,16.99448 7.56643,18.98244 -19.66936,-5.54078 -15.71521,13.062 -0.80858,-20.41886 -17.278968,-10.90969 19.169628,-7.07877 5.03623,-19.80456 12.65606,16.04394 z"
       inkscape:randomized="0"
       inkscape:rounded="0"
       inkscape:flatsided="false"
       sodipodi:arg2="0.10471976"
       sodipodi:arg1="-0.52359878"
       sodipodi:r2="15.386185"
       sodipodi:r1="30.772369"
       sodipodi:cy="228.07771"
       sodipodi:cx="115.15739"
       sodipodi:sides="5"
       id="use3037-44"
       style="fill:#ffcc00;fill-opacity:1;stroke:none"
       sodipodi:type="star" />
    <path
       transform="matrix(0.39177465,0,0,0.39177465,115.69594,201.99325)"
       inkscape:transform-center-y="-0.3894174"
       inkscape:transform-center-x="0.7745673"
       d="m 141.80704,212.69153 -11.34776,16.99448 7.56643,18.98244 -19.66936,-5.54078 -15.71521,13.062 -0.80858,-20.41886 -17.278968,-10.90969 19.169628,-7.07877 5.03623,-19.80456 12.65606,16.04394 z"
       inkscape:randomized="0"
       inkscape:rounded="0"
       inkscape:flatsided="false"
       sodipodi:arg2="0.10471976"
       sodipodi:arg1="-0.52359878"
       sodipodi:r2="15.386185"
       sodipodi:r1="30.772369"
       sodipodi:cy="228.07771"
       sodipodi:cx="115.15739"
       sodipodi:sides="5"
       id="use3037-7"
       style="fill:#ffcc00;fill-opacity:1;stroke:none"
       sodipodi:type="star" />
    <path
       transform="matrix(0.39177465,0,0,0.39177465,434.98165,-3.1652)"
       inkscape:transform-center-y="-0.3894174"
       inkscape:transform-center-x="0.7745673"
       d="m 141.80704,212.69153 -11.34776,16.99448 7.56643,18.98244 -19.66936,-5.54078 -15.71521,13.062 -0.80858,-20.41886 -17.278968,-10.90969 19.169628,-7.07877 5.03623,-19.80456 12.65606,16.04394 z"
       inkscape:randomized="0"
       inkscape:rounded="0"
       inkscape:flatsided="false"
       sodipodi:arg2="0.10471976"
       sodipodi:arg1="-0.52359878"
       sodipodi:r2="15.386185"
       sodipodi:r1="30.772369"
       sodipodi:cy="228.07771"
       sodipodi:cx="115.15739"
       sodipodi:sides="5"
       id="use3037-34"
       style="fill:#ffcc00;fill-opacity:1;stroke:none"
       sodipodi:type="star" />
    <path
       transform="matrix(0.39177465,0,0,0.39177465,434.98165,25.40623)"
       inkscape:transform-center-y="-0.3894174"
       inkscape:transform-center-x="0.7745673"
       d="m 141.80704,212.69153 -11.34776,16.99448 7.56643,18.98244 -19.66936,-5.54078 -15.71521,13.062 -0.80858,-20.41886 -17.278968,-10.90969 19.169628,-7.07877 5.03623,-19.80456 12.65606,16.04394 z"
       inkscape:randomized="0"
       inkscape:rounded="0"
       inkscape:flatsided="false"
       sodipodi:arg2="0.10471976"
       sodipodi:arg1="-0.52359878"
       sodipodi:r2="15.386185"
       sodipodi:r1="30.772369"
       sodipodi:cy="228.07771"
       sodipodi:cx="115.15739"
       sodipodi:sides="5"
       id="use3037-46"
       style="fill:#ffcc00;fill-opacity:1;stroke:none"
       sodipodi:type="star" />
    <path
       transform="matrix(0.39177465,0,0,0.39177465,435.9918,133.07264)"
       inkscape:transform-center-y="-0.3894174"
       inkscape:transform-center-x="0.7745673"
       d="m 141.80704,212.69153 -11.34776,16.99448 7.56643,18.98244 -19.66936,-5.54078 -15.71521,13.062 -0.80858,-20.41886 -17.278968,-10.90969 19.169628,-7.07877 5.03623,-19.80456 12.65606,16.04394 z"
       inkscape:randomized="0"
       inkscape:rounded="0"
       inkscape:flatsided="false"
       sodipodi:arg2="0.10471976"
       sodipodi:arg1="-0.52359878"
       sodipodi:r2="15.386185"
       sodipodi:r1="30.772369"
       sodipodi:cy="228.07771"
       sodipodi:cx="115.15739"
       sodipodi:sides="5"
       id="use3037-20"
       style="fill:#ffcc00;fill-opacity:1;stroke:none"
       sodipodi:type="star" />
    <path
       transform="matrix(0.39177465,0,0,0.39177465,434.98165,294.69195)"
       inkscape:transform-center-y="-0.3894174"
       inkscape:transform-center-x="0.7745673"
       d="m 141.80704,212.69153 -11.34776,16.99448 7.56643,18.98244 -19.66936,-5.54078 -15.71521,13.062 -0.80858,-20.41886 -17.278968,-10.90969 19.169628,-7.07877 5.03623,-19.80456 12.65606,16.04394 z"
       inkscape:randomized="0"
       inkscape:rounded="0"
       inkscape:flatsided="false"
       sodipodi:arg2="0.10471976"
       sodipodi:arg1="-0.52359878"
       sodipodi:r2="15.386185"
       sodipodi:r1="30.772369"
       sodipodi:cy="228.07771"
       sodipodi:cx="115.15739"
       sodipodi:sides="5"
       id="use3037-528"
       style="fill:#ffcc00;fill-opacity:1;stroke:none"
       sodipodi:type="star" />
    <path
       transform="matrix(0.39177465,0,0,0.39177465,434.98165,413.97766)"
       inkscape:transform-center-y="-0.3894174"
       inkscape:transform-center-x="0.7745673"
       d="m 141.80704,212.69153 -11.34776,16.99448 7.56643,18.98244 -19.66936,-5.54078 -15.71521,13.062 -0.80858,-20.41886 -17.278968,-10.90969 19.169628,-7.07877 5.03623,-19.80456 12.65606,16.04394 z"
       inkscape:randomized="0"
       inkscape:rounded="0"
       inkscape:flatsided="false"
       sodipodi:arg2="0.10471976"
       sodipodi:arg1="-0.52359878"
       sodipodi:r2="15.386185"
       sodipodi:r1="30.772369"
       sodipodi:cy="228.07771"
       sodipodi:cx="115.15739"
       sodipodi:sides="5"
       id="use3037-78"
       style="fill:#ffcc00;fill-opacity:1;stroke:none"
       sodipodi:type="star" />
    <path
       transform="matrix(0.39177465,0,0,0.39177465,196.65533,219.8181)"
       inkscape:transform-center-y="-0.3894174"
       inkscape:transform-center-x="0.7745673"
       d="m 141.80704,212.69153 -11.34776,16.99448 7.56643,18.98244 -19.66936,-5.54078 -15.71521,13.062 -0.80858,-20.41886 -17.278968,-10.90969 19.169628,-7.07877 5.03623,-19.80456 12.65606,16.04394 z"
       inkscape:randomized="0"
       inkscape:rounded="0"
       inkscape:flatsided="false"
       sodipodi:arg2="0.10471976"
       sodipodi:arg1="-0.52359878"
       sodipodi:r2="15.386185"
       sodipodi:r1="30.772369"
       sodipodi:cy="228.07771"
       sodipodi:cx="115.15739"
       sodipodi:sides="5"
       id="use3037-0-6"
       style="fill:#ffcc00;fill-opacity:1;stroke:none"
       sodipodi:type="star" />
    <path
       transform="matrix(0.39177465,0,0,0.39177465,276.20102,118.27824)"
       inkscape:transform-center-y="-0.3894174"
       inkscape:transform-center-x="0.7745673"
       d="m 141.80704,212.69153 -11.34776,16.99448 7.56643,18.98244 -19.66936,-5.54078 -15.71521,13.062 -0.80858,-20.41886 -17.278968,-10.90969 19.169628,-7.07877 5.03623,-19.80456 12.65606,16.04394 z"
       inkscape:randomized="0"
       inkscape:rounded="0"
       inkscape:flatsided="false"
       sodipodi:arg2="0.10471976"
       sodipodi:arg1="-0.52359878"
       sodipodi:r2="15.386185"
       sodipodi:r1="30.772369"
       sodipodi:cy="228.07771"
       sodipodi:cx="115.15739"
       sodipodi:sides="5"
       id="use3037-13-6"
       style="fill:#ffcc00;fill-opacity:1;stroke:none"
       sodipodi:type="star" />
  </g>
</svg>
