<svg width="150mm" height="120mm" viewBox="0 0 15000 12000">
<g style="stroke:none;fill:rgb(153,204,255)">
<polygon points="13963,6771 9963,3779 1323,3779 3463,6771 13963,6771"/>
</g>
<g style="stroke:none;fill:rgb(0,0,128)">
<polygon points="13933,6811 9933,3819 9963,3779 9963,3729 9963,3729 9970,3729 9978,3731 9992,3738 13992,6730 13963,6771 13933,6811"/>
<polygon points="9963,3829 1323,3829 1323,3779 1282,3808 1282,3808 1278,3800 1274,3792 1273,3784 1273,3776 1274,3767 1276,3759 1280,3752 1285,3745 1291,3739 1298,3735 1306,3731 1323,3729 9963,3729 9963,3779 9963,3829"/>
<polygon points="1363,3749 3503,6741 3463,6771 3463,6821 3463,6821 3455,6820 3447,6818 3440,6815 3433,6811 3422,6800 1282,3808 1323,3779 1363,3749"/>
<polygon points="3463,6721 13963,6721 13963,6771 13992,6730 13992,6730 13999,6736 14004,6742 14008,6750 14011,6758 14012,6766 14012,6774 14011,6782 14008,6790 14005,6798 14000,6804 13993,6810 13986,6814 13979,6818 13963,6821 3463,6821 3463,6771 3463,6721"/>
</g>
<g style="stroke:none;fill:rgb(255,255,255)">
<polygon points="2060,2784 4595,5813 4442,5942 1907,2913 2060,2784"/>
<polygon points="5086,2607 8586,5804 8451,5951 4951,2754 5086,2607"/>
<polygon points="3952,2277 7588,5806 7449,5949 3813,2420 3952,2277"/>
<polygon points="3590,2703 6590,5808 6447,5947 3447,2842 3590,2703"/>
<polygon points="2593,2484 5593,5811 5444,5944 2444,2617 2593,2484"/>
<polygon points="7580,2694 11580,5799 11457,5956 7457,2851 7580,2694"/>
<polygon points="6582,2531 10582,5800 10455,5955 6455,2686 6582,2531"/>
<polygon points="6074,2773 9584,5802 9453,5953 5943,2924 6074,2773"/>
<polygon points="7806,2268 12578,5797 12459,5958 7687,2429 7806,2268"/>
<polygon points="9076,2620 13576,5796 13461,5959 8961,2783 9076,2620"/>
</g>
<g style="stroke:none;fill:rgb(0,0,0)">
<polygon points="2021,2815 4556,5844 4479,5909 1944,2880 2021,2815"/>
<polygon points="5051,2643 8551,5840 8484,5913 4984,2716 5051,2643"/>
<polygon points="3916,2312 7552,5841 7483,5912 3847,2383 3916,2312"/>
<polygon points="3553,2737 6553,5842 6482,5911 3482,2806 3553,2737"/>
<polygon points="2555,2516 5555,5843 5480,5910 2480,2583 2555,2516"/>
<polygon points="7548,2732 11548,5837 11487,5916 7487,2811 7548,2732"/>
<polygon points="6549,2569 10549,5838 10486,5915 6486,2646 6549,2569"/>
<polygon points="6040,2810 9550,5839 9485,5914 5975,2885 6040,2810"/>
<polygon points="7775,2307 12547,5836 12488,5917 7716,2388 7775,2307"/>
<polygon points="9046,2660 13546,5836 13489,5917 8989,2741 9046,2660"/>
</g>
<g style="stroke:none;fill:rgb(153,204,255)">
<polygon points="13963,4896 9963,2307 1323,2307 3463,4896 13963,4896"/>
</g>
<g style="stroke:none;fill:rgb(255,255,255)">
<polygon points="13908,4979 9908,2390 9963,2307 9963,2207 9963,2207 9977,2208 9991,2211 10017,2223 14017,4812 13963,4896 13908,4979"/>
<polygon points="9963,2407 1323,2407 1323,2307 1245,2370 1245,2370 1236,2356 1228,2340 1224,2323 1223,2306 1224,2289 1229,2272 1236,2256 1246,2242 1258,2230 1273,2220 1288,2212 1323,2207 9963,2207 9963,2307 9963,2407"/>
<polygon points="1400,2243 3540,4832 3463,4896 3463,4996 3463,4996 3448,4994 3434,4991 3420,4986 3407,4979 3385,4959 1245,2370 1323,2307 1400,2243"/>
<polygon points="3463,4796 13963,4796 13963,4896 14017,4812 14017,4812 14030,4822 14042,4835 14051,4849 14058,4865 14062,4881 14062,4899 14060,4916 14056,4932 14048,4947 14038,4961 14026,4973 14012,4983 13996,4990 13963,4996 3463,4996 3463,4896 3463,4796"/>
</g>
<g style="stroke:none;fill:rgb(153,204,255)">
<polygon points="13963,4895 9963,2306 1323,2306 3463,4895 13963,4895"/>
</g>
<g style="stroke:none;fill:rgb(0,0,128)">
<polygon points="13935,4936 9935,2347 9963,2306 9963,2256 9963,2256 9970,2256 9977,2258 9990,2264 13990,4853 13963,4895 13935,4936"/>
<polygon points="9963,2356 1323,2356 1323,2306 1284,2337 1284,2337 1279,2330 1275,2322 1273,2314 1273,2305 1273,2297 1276,2288 1279,2280 1284,2273 1290,2267 1298,2262 1305,2258 1323,2256 9963,2256 9963,2306 9963,2356"/>
<polygon points="1361,2274 3501,4863 3463,4895 3463,4945 3463,4945 3455,4944 3448,4942 3441,4940 3435,4936 3424,4926 1284,2337 1323,2306 1361,2274"/>
<polygon points="3463,4845 13963,4845 13963,4895 13990,4853 13990,4853 13996,4858 14002,4864 14007,4871 14010,4879 14012,4887 14012,4896 14011,4905 14009,4913 14005,4920 14000,4927 13994,4933 13987,4938 13979,4942 13963,4945 3463,4945 3463,4895 3463,4845"/>
</g>
<g style="font-family:Arial;font-size:1128;font-weight:400">
<g style="stroke:none;fill:rgb(0,0,0)">
<text x="1191" y="6527">W</text>
</g>
</g>
<g style="font-family:Arial;font-size:1128;font-weight:400">
<g style="stroke:none;fill:rgb(0,0,255)">
<text x="11853" y="3299">P</text>
</g>
<g style="stroke:none;fill:rgb(0,0,0)">
<polygon points="9528,5868 9528,7868 9503,7868 9503,7893 9503,7893 9499,7892 9495,7891 9491,7890 9488,7888 9485,7885 9482,7882 9480,7879 9479,7875 9478,7868 9478,5868 9528,5868"/>
<polygon points="9503,7868 9503,7843 11003,7843 11003,7893 9503,7893 9503,7868"/>
<polygon points="11003,8893 8503,8893 8503,8893 8499,8892 8495,8891 8491,8890 8488,8888 8485,8885 8482,8882 8480,8879 8479,8875 8478,8868 8503,8868 8503,8843 11003,8843 11003,8893"/>
<polygon points="8503,8868 8478,8868 8478,5868 8528,5868 8528,8868 8503,8868"/>
<polygon points="11003,9893 7503,9893 7503,9893 7499,9892 7495,9891 7491,9890 7488,9888 7485,9885 7482,9882 7480,9879 7479,9875 7478,9868 7503,9868 7503,9843 11003,9843 11003,9893"/>
<polygon points="7503,9868 7478,9868 7478,5868 7528,5868 7528,9868 7503,9868"/>
</g>
<g style="stroke:none;fill:rgb(192,192,192)">
<polygon points="11003,10479 11003,10867 11003,11254 11631,10867 11003,10479"/>
</g>
<g style="stroke:none;fill:rgb(0,0,0)">
<polygon points="11003,10479 11028,10479 11028,10867 11003,10867 10978,10867 10978,10479 11003,10479"/>
<polygon points="11028,10867 11028,11254 11003,11254 11016,11275 11016,11275 11012,11277 11008,11278 11004,11278 11000,11278 10996,11278 10992,11276 10989,11274 10985,11272 10983,11269 10980,11265 10979,11262 10978,11254 10978,10867 11003,10867 11028,10867"/>
<polygon points="10989,11232 11617,10845 11631,10867 11644,10845 11644,10845 11647,10848 11650,10851 11652,10854 11654,10858 11655,10862 11655,10867 11655,10871 11654,10875 11652,10879 11650,10882 11644,10888 11016,11275 11003,11254 10989,11232"/>
<polygon points="11617,10888 10989,10500 11003,10479 10978,10479 10978,10479 10978,10474 10979,10470 10980,10467 10983,10463 10985,10460 10989,10458 10992,10456 10996,10454 11000,10454 11004,10454 11008,10454 11016,10457 11644,10845 11631,10867 11617,10888"/>
</g>
<g style="stroke:none;fill:rgb(192,192,192)">
<polygon points="11003,7479 11003,7867 11003,8254 11631,7867 11003,7479"/>
</g>
<g style="stroke:none;fill:rgb(0,0,0)">
<polygon points="11003,7479 11028,7479 11028,7867 11003,7867 10978,7867 10978,7479 11003,7479"/>
<polygon points="11028,7867 11028,8254 11003,8254 11016,8275 11016,8275 11012,8277 11008,8278 11004,8278 11000,8278 10996,8278 10992,8276 10989,8274 10985,8272 10983,8269 10980,8265 10979,8262 10978,8254 10978,7867 11003,7867 11028,7867"/>
<polygon points="10989,8232 11617,7845 11631,7867 11644,7845 11644,7845 11647,7848 11650,7851 11652,7854 11654,7858 11655,7862 11655,7867 11655,7871 11654,7875 11652,7879 11650,7882 11644,7888 11016,8275 11003,8254 10989,8232"/>
<polygon points="11617,7888 10989,7500 11003,7479 10978,7479 10978,7479 10978,7474 10979,7470 10980,7467 10983,7463 10985,7460 10989,7458 10992,7456 10996,7454 11000,7454 11004,7454 11008,7454 11016,7457 11644,7845 11631,7867 11617,7888"/>
</g>
<g style="stroke:none;fill:rgb(192,192,192)">
<polygon points="11003,8479 11003,8867 11003,9254 11631,8867 11003,8479"/>
</g>
<g style="stroke:none;fill:rgb(0,0,0)">
<polygon points="11003,8479 11028,8479 11028,8867 11003,8867 10978,8867 10978,8479 11003,8479"/>
<polygon points="11028,8867 11028,9254 11003,9254 11016,9275 11016,9275 11012,9277 11008,9278 11004,9278 11000,9278 10996,9278 10992,9276 10989,9274 10985,9272 10983,9269 10980,9265 10979,9262 10978,9254 10978,8867 11003,8867 11028,8867"/>
<polygon points="10989,9232 11617,8845 11631,8867 11644,8845 11644,8845 11647,8848 11650,8851 11652,8854 11654,8858 11655,8862 11655,8867 11655,8871 11654,8875 11652,8879 11650,8882 11644,8888 11016,9275 11003,9254 10989,9232"/>
<polygon points="11617,8888 10989,8500 11003,8479 10978,8479 10978,8479 10978,8474 10979,8470 10980,8467 10983,8463 10985,8460 10989,8458 10992,8456 10996,8454 11000,8454 11004,8454 11008,8454 11016,8457 11644,8845 11631,8867 11617,8888"/>
</g>
<g style="stroke:none;fill:rgb(192,192,192)">
<polygon points="11003,9479 11003,9867 11003,10254 11631,9867 11003,9479"/>
</g>
<g style="stroke:none;fill:rgb(0,0,0)">
<polygon points="11003,9479 11028,9479 11028,9867 11003,9867 10978,9867 10978,9479 11003,9479"/>
<polygon points="11028,9867 11028,10254 11003,10254 11016,10275 11016,10275 11012,10277 11008,10278 11004,10278 11000,10278 10996,10278 10992,10276 10989,10274 10985,10272 10983,10269 10980,10265 10979,10262 10978,10254 10978,9867 11003,9867 11028,9867"/>
<polygon points="10989,10232 11617,9845 11631,9867 11644,9845 11644,9845 11647,9848 11650,9851 11652,9854 11654,9858 11655,9862 11655,9867 11655,9871 11654,9875 11652,9879 11650,9882 11644,9888 11016,10275 11003,10254 10989,10232"/>
<polygon points="11617,9888 10989,9500 11003,9479 10978,9479 10978,9479 10978,9474 10979,9470 10980,9467 10983,9463 10985,9460 10989,9458 10992,9456 10996,9454 11000,9454 11004,9454 11008,9454 11016,9457 11644,9845 11631,9867 11617,9888"/>
<polygon points="11638,8840 12138,8840 12138,8890 11638,8890 11638,8840"/>
<polygon points="11638,7840 12138,7840 12138,7890 11638,7890 11638,7840"/>
<polygon points="11638,10840 12138,10840 12138,10890 11638,10890 11638,10840"/>
<polygon points="11638,9840 12138,9840 12138,9890 11638,9890 11638,9840"/>
<polygon points="2429,5975 4220,5639 4229,5688 2438,6024 2429,5975"/>
</g>
</g>
<g style="font-family:Arial;font-size:1128;font-weight:400">
<g style="stroke:none;fill:rgb(0,0,0)">
<text x="10160" y="11872">A</text>
</g>
<g style="stroke:none;fill:rgb(255,0,0)">
<polygon points="4796,11391 5390,10869 4959,10617 4796,11391"/>
<polygon points="7474,6863 5120,10885 5077,10860 7431,6838 7474,6863"/>
<polygon points="10811,1161 8927,4382 8884,4357 10768,1136 10811,1161"/>
<polygon points="8567,4999 7819,6277 7776,6252 8524,4974 8567,4999"/>
</g>
</g>
<g style="font-family:Arial;font-size:1128;font-weight:400">
<g style="stroke:none;fill:rgb(255,0,0)">
<text x="9499" y="1738">T</text>
<polygon points="12497,8897 12760,8870 12763,8895 12772,8918 12772,8918 12765,8919 12502,8946 12497,8897"/>
<polygon points="12753,8871 12925,8803 12935,8827 12951,8845 12951,8845 12949,8847 12944,8850 12772,8918 12763,8895 12753,8871"/>
<polygon points="12918,8808 13018,8717 13035,8736 13057,8747 13057,8747 13055,8750 13051,8754 12951,8845 12935,8827 12918,8808"/>
<polygon points="13012,8724 13062,8628 13085,8640 13109,8646 13109,8646 13107,8651 13057,8747 13035,8736 13012,8724"/>
<polygon points="13085,8640 13060,8633 13082,8551 13107,8557 13131,8562 13109,8646 13085,8640"/>
<polygon points="13107,8557 13082,8551 13105,8438 13130,8445 13154,8451 13131,8562 13107,8557"/>
<polygon points="13105,8438 13134,8335 13134,8335 13136,8330 13159,8342 13183,8348 13154,8451 13130,8445 13105,8438"/>
<polygon points="13136,8330 13175,8254 13175,8254 13177,8251 13180,8248 13186,8243 13198,8266 13220,8277 13181,8353 13159,8342 13136,8330"/>
<polygon points="13186,8243 13244,8213 13244,8213 13248,8212 13251,8211 13255,8211 13263,8212 13256,8236 13267,8258 13209,8288 13198,8266 13186,8243"/>
<polygon points="13263,8212 13323,8231 13323,8231 13327,8232 13333,8237 13316,8255 13308,8278 13248,8259 13256,8236 13263,8212"/>
<polygon points="13333,8237 13387,8293 13387,8293 13391,8298 13370,8311 13352,8328 13298,8272 13316,8255 13333,8237"/>
<polygon points="13370,8311 13391,8298 13447,8392 13425,8404 13402,8415 13348,8323 13370,8311"/>
<polygon points="13425,8404 13447,8392 13511,8523 13489,8534 13466,8544 13402,8415 13425,8404"/>
<polygon points="13489,8534 13511,8523 13551,8611 13530,8624 13508,8636 13466,8544 13489,8534"/>
<polygon points="13551,8611 13613,8714 13592,8727 13575,8745 13575,8745 13570,8739 13508,8636 13530,8624 13551,8611"/>
<polygon points="13608,8708 13714,8804 13698,8823 13688,8845 13688,8845 13681,8841 13575,8745 13592,8727 13608,8708"/>
<polygon points="13707,8800 13875,8872 13866,8895 13863,8919 13863,8919 13856,8917 13688,8845 13698,8823 13707,8800"/>
<polygon points="13866,8895 13868,8870 14121,8898 14116,8947 13863,8919 13866,8895"/>
<polygon points="12498,9898 12757,9882 12763,9907 12768,9931 12501,9947 12498,9898"/>
<polygon points="12757,9882 12929,9841 12935,9866 12946,9887 12946,9887 12940,9890 12768,9931 12763,9907 12757,9882"/>
<polygon points="12923,9844 13023,9790 13035,9812 13053,9828 13053,9828 13051,9830 13046,9833 12946,9887 12935,9866 12923,9844"/>
<polygon points="13016,9795 13066,9737 13085,9754 13107,9764 13107,9764 13103,9770 13053,9828 13035,9812 13016,9795"/>
<polygon points="13085,9754 13062,9743 13083,9695 13107,9704 13130,9712 13107,9764 13085,9754"/>
<polygon points="13107,9704 13083,9695 13107,9626 13130,9637 13152,9647 13130,9712 13107,9704"/>
<polygon points="13107,9626 13136,9564 13136,9564 13140,9558 13159,9575 13181,9585 13152,9647 13130,9637 13107,9626"/>
<polygon points="13140,9558 13179,9513 13179,9513 13181,9511 13184,9509 13190,9506 13198,9530 13216,9546 13177,9591 13159,9575 13140,9558"/>
<polygon points="13190,9506 13248,9488 13248,9488 13252,9487 13260,9487 13256,9512 13263,9535 13205,9553 13198,9530 13190,9506"/>
<polygon points="13260,9487 13320,9498 13320,9498 13323,9499 13329,9501 13316,9523 13311,9547 13251,9536 13256,9512 13260,9487"/>
<polygon points="13329,9501 13383,9535 13383,9535 13387,9539 13370,9557 13356,9578 13302,9544 13316,9523 13329,9501"/>
<polygon points="13370,9557 13387,9539 13444,9597 13425,9613 13405,9628 13352,9574 13370,9557"/>
<polygon points="13425,9613 13444,9597 13508,9675 13489,9691 13469,9706 13405,9628 13425,9613"/>
<polygon points="13489,9691 13508,9675 13547,9727 13530,9745 13512,9762 13469,9706 13489,9691"/>
<polygon points="13547,9727 13609,9788 13592,9806 13579,9827 13579,9827 13574,9823 13512,9762 13530,9745 13547,9727"/>
<polygon points="13604,9784 13710,9842 13698,9864 13691,9888 13691,9888 13685,9885 13579,9827 13592,9806 13604,9784"/>
<polygon points="13704,9839 13872,9882 13866,9907 13864,9931 13864,9931 13859,9931 13691,9888 13698,9864 13704,9839"/>
<polygon points="13866,9907 13867,9882 14120,9899 14117,9948 13864,9931 13866,9907"/>
<polygon points="12524,7885 14104,7885 14104,7935 12524,7935 12524,7885"/>
<polygon points="12524,10885 14104,10885 14104,10935 12524,10935 12524,10885"/>
</g>
<g style="stroke:none;fill:rgb(0,0,0)">
<polygon points="11003,10893 6503,10893 6503,10893 6499,10892 6495,10891 6491,10890 6488,10888 6485,10885 6482,10882 6480,10879 6479,10875 6478,10868 6503,10868 6503,10843 11003,10843 11003,10893"/>
<polygon points="6503,10868 6478,10868 6478,5868 6528,5868 6528,10868 6503,10868"/>
</g>
</g>
</svg>