<svg width="202mm" height="137mm" viewBox="0 0 20200 13700">
<g style="stroke:none;fill:rgb(255,0,0)">
<polygon points="5038,13371 5038,229 5138,229 5138,13371 5038,13371"/>
<polygon points="9263,13355 9256,12707 9306,12706 9355,12704 9362,13354 9263,13355"/>
<polygon points="9306,12706 9256,12707 9232,12081 9282,12078 9331,12074 9355,12704 9306,12706"/>
<polygon points="9282,12078 9232,12081 9186,11478 9236,11472 9285,11465 9331,12074 9282,12078"/>
<polygon points="9236,11472 9186,11478 9112,10900 9162,10891 9211,10881 9285,11465 9236,11472"/>
<polygon points="9162,10891 9112,10900 9007,10351 9056,10338 9104,10324 9211,10881 9162,10891"/>
<polygon points="9056,10338 9007,10351 8865,9831 8912,9814 8958,9796 9104,10324 9056,10338"/>
<polygon points="8912,9814 8865,9831 8681,9344 8726,9322 8770,9299 8958,9796 8912,9814"/>
<polygon points="8726,9322 8681,9344 8449,8892 8491,8864 8532,8835 8770,9299 8726,9322"/>
<polygon points="8491,8864 8449,8892 8166,8474 8204,8441 8241,8407 8532,8835 8491,8864"/>
<polygon points="8204,8441 8166,8474 7825,8096 7858,8058 7890,8019 8241,8407 8204,8441"/>
<polygon points="7858,8058 7825,8096 7421,7756 7448,7714 7474,7671 7890,8019 7858,8058"/>
<polygon points="7448,7714 7421,7756 6949,7459 6970,7414 6990,7368 7474,7671 7448,7714"/>
<polygon points="6970,7414 6949,7459 6402,7206 6418,7159 6433,7111 6990,7368 6970,7414"/>
<polygon points="6418,7159 6402,7206 5776,6999 5787,6951 5797,6902 6433,7111 6418,7159"/>
<polygon points="5787,6951 5776,6999 5062,6841 5083,6744 5797,6902 5787,6951"/>
<polygon points="8082,13382 8072,12649 8122,12647 8171,12644 8181,13381 8082,13382"/>
<polygon points="8122,12647 8072,12649 8040,11965 8090,11961 8139,11956 8171,12644 8122,12647"/>
<polygon points="8090,11961 8040,11965 7982,11326 8032,11319 8081,11311 8139,11956 8090,11961"/>
<polygon points="8032,11319 7982,11326 7895,10731 7944,10721 7992,10710 8081,11311 8032,11319"/>
<polygon points="7944,10721 7895,10731 7773,10176 7821,10162 7868,10147 7992,10710 7944,10721"/>
<polygon points="7821,10162 7773,10176 7612,9659 7659,9640 7705,9620 7868,10147 7821,10162"/>
<polygon points="7659,9640 7612,9659 7409,9177 7453,9153 7496,9128 7705,9620 7659,9640"/>
<polygon points="7453,9153 7409,9177 7159,8725 7200,8697 7240,8668 7496,9128 7453,9153"/>
<polygon points="7200,8697 7159,8725 6858,8303 6896,8270 6933,8236 7240,8668 7200,8697"/>
<polygon points="6896,8270 6858,8303 6501,7905 6535,7868 6568,7830 6933,8236 6896,8270"/>
<polygon points="6535,7868 6501,7905 6084,7530 6114,7490 6143,7449 6568,7830 6535,7868"/>
<polygon points="6114,7490 6084,7530 5601,7174 5628,7132 5654,7089 6143,7449 6114,7490"/>
<polygon points="5628,7132 5601,7174 5047,6835 5100,6750 5654,7089 5628,7132"/>
<polygon points="6985,13388 6981,12716 7031,12715 7080,12713 7084,13387 6985,13388"/>
<polygon points="7031,12715 6981,12716 6966,12094 7016,12092 7065,12089 7080,12713 7031,12715"/>
<polygon points="7016,12092 6966,12094 6936,11516 6986,11512 7035,11507 7065,12089 7016,12092"/>
<polygon points="6986,11512 6936,11516 6889,10976 6939,10970 6988,10963 7035,11507 6986,11512"/>
<polygon points="6939,10970 6889,10976 6819,10467 6869,10458 6918,10448 6988,10963 6939,10970"/>
<polygon points="6869,10458 6819,10467 6725,9984 6774,9972 6822,9959 6918,10448 6869,10458"/>
<polygon points="6774,9972 6725,9984 6601,9522 6649,9506 6696,9489 6822,9959 6774,9972"/>
<polygon points="6649,9506 6601,9522 6445,9073 6491,9053 6536,9032 6696,9489 6649,9506"/>
<polygon points="6491,9053 6445,9073 6251,8632 6296,8609 6340,8585 6536,9032 6491,9053"/>
<polygon points="6296,8609 6251,8632 6018,8192 6061,8166 6103,8139 6340,8585 6296,8609"/>
<polygon points="6061,8166 6018,8192 5740,7749 5781,7720 5821,7690 6103,8139 6061,8166"/>
<polygon points="5781,7720 5740,7749 5414,7294 5453,7263 5491,7231 5821,7690 5781,7720"/>
<polygon points="5453,7263 5414,7294 5035,6823 5112,6760 5491,7231 5453,7263"/>
<polygon points="6041,13395 6035,12729 6085,12728 6134,12726 6140,13394 6041,13395"/>
<polygon points="6085,12728 6035,12729 6015,12070 6065,12068 6114,12065 6134,12726 6085,12728"/>
<polygon points="6065,12068 6015,12070 5979,11417 6029,11413 6078,11408 6114,12065 6065,12068"/>
<polygon points="6029,11413 5979,11417 5924,10767 5974,10762 6023,10756 6078,11408 6029,11413"/>
<polygon points="5974,10762 5924,10767 5846,10118 5896,10111 5945,10103 6023,10756 5974,10762"/>
<polygon points="5896,10111 5846,10118 5744,9468 5794,9459 5843,9449 5945,10103 5896,10111"/>
<polygon points="5794,9459 5744,9468 5614,8814 5663,8803 5711,8791 5843,9449 5794,9459"/>
<polygon points="5663,8803 5614,8814 5454,8155 5502,8141 5549,8126 5711,8791 5663,8803"/>
<polygon points="5502,8141 5454,8155 5258,7487 5306,7471 5353,7454 5549,8126 5502,8141"/>
<polygon points="5306,7471 5258,7487 5027,6808 5122,6775 5353,7454 5306,7471"/>
<polygon points="9372,288 9365,937 9316,936 9266,934 9273,287 9372,288"/>
<polygon points="9316,936 9365,937 9341,1567 9292,1564 9242,1560 9266,934 9316,936"/>
<polygon points="9292,1564 9341,1567 9295,2176 9246,2170 9196,2163 9242,1560 9292,1564"/>
<polygon points="9246,2170 9295,2176 9221,2760 9172,2751 9122,2741 9196,2163 9246,2170"/>
<polygon points="9172,2751 9221,2760 9114,3317 9066,3304 9017,3290 9122,2741 9172,2751"/>
<polygon points="9066,3304 9114,3317 8968,3845 8922,3828 8875,3810 9017,3290 9066,3304"/>
<polygon points="8922,3828 8968,3845 8780,4342 8736,4320 8691,4297 8875,3810 8922,3828"/>
<polygon points="8736,4320 8780,4342 8542,4806 8501,4778 8459,4749 8691,4297 8736,4320"/>
<polygon points="8501,4778 8542,4806 8251,5234 8214,5201 8176,5167 8459,4749 8501,4778"/>
<polygon points="8214,5201 8251,5234 7900,5622 7868,5584 7835,5545 8176,5167 8214,5201"/>
<polygon points="7868,5584 7900,5622 7484,5970 7458,5928 7431,5885 7835,5545 7868,5584"/>
<polygon points="7458,5928 7484,5970 7000,6273 6980,6228 6959,6182 7431,5885 7458,5928"/>
<polygon points="6980,6228 7000,6273 6443,6530 6428,6483 6412,6435 6959,6182 6980,6228"/>
<polygon points="6428,6483 6443,6530 5807,6739 5797,6691 5786,6642 6412,6435 6428,6483"/>
<polygon points="5797,6691 5807,6739 5093,6898 5072,6801 5786,6642 5797,6691"/>
<polygon points="8191,261 8181,997 8132,995 8082,992 8092,260 8191,261"/>
<polygon points="8132,995 8181,997 8149,1685 8100,1681 8050,1676 8082,992 8132,995"/>
<polygon points="8100,1681 8149,1685 8091,2330 8042,2323 7992,2315 8050,1676 8100,1681"/>
<polygon points="8042,2323 8091,2330 8002,2931 7954,2921 7905,2910 7992,2315 8042,2323"/>
<polygon points="7954,2921 8002,2931 7878,3494 7831,3480 7783,3465 7905,2910 7954,2921"/>
<polygon points="7831,3480 7878,3494 7715,4021 7669,4002 7622,3982 7783,3465 7831,3480"/>
<polygon points="7669,4002 7715,4021 7506,4513 7463,4489 7419,4464 7622,3982 7669,4002"/>
<polygon points="7463,4489 7506,4513 7250,4973 7210,4945 7169,4916 7419,4464 7463,4489"/>
<polygon points="7210,4945 7250,4973 6943,5405 6906,5372 6868,5338 7169,4916 7210,4945"/>
<polygon points="6906,5372 6943,5405 6578,5811 6545,5774 6511,5736 6868,5338 6906,5372"/>
<polygon points="6545,5774 6578,5811 6153,6192 6124,6152 6094,6111 6511,5736 6545,5774"/>
<polygon points="6124,6152 6153,6192 5664,6552 5638,6510 5611,6467 6094,6111 6124,6152"/>
<polygon points="5638,6510 5664,6552 5110,6892 5057,6807 5611,6467 5638,6510"/>
<polygon points="7094,255 7090,928 7041,927 6991,925 6995,254 7094,255"/>
<polygon points="7041,927 7090,928 7075,1552 7026,1550 6976,1547 6991,925 7041,927"/>
<polygon points="7026,1550 7075,1552 7045,2134 6996,2130 6946,2125 6976,1547 7026,1550"/>
<polygon points="6996,2130 7045,2134 6998,2678 6949,2672 6899,2665 6946,2125 6996,2130"/>
<polygon points="6949,2672 6998,2678 6928,3193 6879,3184 6829,3174 6899,2665 6949,2672"/>
<polygon points="6879,3184 6928,3193 6832,3682 6784,3670 6735,3657 6829,3174 6879,3184"/>
<polygon points="6784,3670 6832,3682 6706,4152 6659,4136 6611,4119 6735,3657 6784,3670"/>
<polygon points="6659,4136 6706,4152 6546,4609 6501,4589 6455,4568 6611,4119 6659,4136"/>
<polygon points="6501,4589 6546,4609 6350,5056 6306,5033 6261,5009 6455,4568 6501,4589"/>
<polygon points="6306,5033 6350,5056 6113,5502 6071,5476 6028,5449 6261,5009 6306,5033"/>
<polygon points="6071,5476 6113,5502 5831,5951 5791,5922 5750,5892 6028,5449 6071,5476"/>
<polygon points="5791,5922 5831,5951 5501,6410 5463,6379 5424,6347 5750,5892 5791,5922"/>
<polygon points="5463,6379 5501,6410 5122,6882 5045,6819 5424,6347 5463,6379"/>
<polygon points="6150,248 6144,915 6095,914 6045,912 6051,247 6150,248"/>
<polygon points="6095,914 6144,915 6124,1576 6075,1574 6025,1571 6045,912 6095,914"/>
<polygon points="6075,1574 6124,1576 6088,2233 6039,2229 5989,2224 6025,1571 6075,1574"/>
<polygon points="6039,2229 6088,2233 6033,2885 5984,2880 5934,2874 5989,2224 6039,2229"/>
<polygon points="5984,2880 6033,2885 5955,3538 5906,3531 5856,3523 5934,2874 5984,2880"/>
<polygon points="5906,3531 5955,3538 5853,4192 5804,4183 5754,4173 5856,3523 5906,3531"/>
<polygon points="5804,4183 5853,4192 5721,4850 5673,4839 5624,4827 5754,4173 5804,4183"/>
<polygon points="5673,4839 5721,4850 5559,5515 5512,5501 5464,5486 5624,4827 5673,4839"/>
<polygon points="5512,5501 5559,5515 5363,6187 5316,6171 5268,6154 5464,5486 5512,5501"/>
<polygon points="5316,6171 5363,6187 5132,6867 5037,6834 5268,6154 5316,6171"/>
<polygon points="809,13374 815,12724 865,12726 914,12727 908,13375 809,13374"/>
<polygon points="865,12726 815,12724 839,12094 889,12098 938,12101 914,12727 865,12726"/>
<polygon points="889,12098 839,12094 885,11485 935,11492 984,11498 938,12101 889,12098"/>
<polygon points="935,11492 885,11485 959,10901 1009,10911 1058,10920 984,11498 935,11492"/>
<polygon points="1009,10911 959,10901 1066,10344 1115,10358 1163,10371 1058,10920 1009,10911"/>
<polygon points="1115,10358 1066,10344 1212,9816 1259,9834 1305,9851 1163,10371 1115,10358"/>
<polygon points="1259,9834 1212,9816 1400,9319 1445,9342 1489,9364 1305,9851 1259,9834"/>
<polygon points="1445,9342 1400,9319 1638,8855 1680,8884 1721,8912 1489,9364 1445,9342"/>
<polygon points="1680,8884 1638,8855 1929,8427 1967,8461 2004,8494 1721,8912 1680,8884"/>
<polygon points="1967,8461 1929,8427 2280,8039 2313,8078 2345,8116 2004,8494 1967,8461"/>
<polygon points="2313,8078 2280,8039 2696,7691 2723,7734 2749,7776 2345,8116 2313,8078"/>
<polygon points="2723,7734 2696,7691 3180,7388 3201,7434 3221,7479 2749,7776 2723,7734"/>
<polygon points="3201,7434 3180,7388 3737,7131 3753,7179 3768,7226 3221,7479 3201,7434"/>
<polygon points="3753,7179 3737,7131 4373,6922 4384,6971 4394,7019 3768,7226 3753,7179"/>
<polygon points="4384,6971 4373,6922 5088,6764 5109,6861 4394,7019 4384,6971"/>
<polygon points="1990,13401 1999,12664 2049,12667 2098,12669 2089,13402 1990,13401"/>
<polygon points="2049,12667 1999,12664 2031,11976 2081,11981 2130,11985 2098,12669 2049,12667"/>
<polygon points="2081,11981 2031,11976 2089,11331 2139,11339 2188,11346 2130,11985 2081,11981"/>
<polygon points="2139,11339 2089,11331 2178,10730 2227,10741 2275,10751 2188,11346 2139,11339"/>
<polygon points="2227,10741 2178,10730 2302,10167 2350,10182 2397,10196 2275,10751 2227,10741"/>
<polygon points="2350,10182 2302,10167 2465,9640 2512,9660 2558,9679 2397,10196 2350,10182"/>
<polygon points="2512,9660 2465,9640 2674,9148 2718,9173 2761,9197 2558,9679 2512,9660"/>
<polygon points="2718,9173 2674,9148 2930,8688 2971,8717 3011,8745 2761,9197 2718,9173"/>
<polygon points="2971,8717 2930,8688 3237,8256 3275,8290 3312,8323 3011,8745 2971,8717"/>
<polygon points="3275,8290 3237,8256 3602,7850 3636,7888 3669,7925 3312,8323 3275,8290"/>
<polygon points="3636,7888 3602,7850 4027,7469 4057,7510 4086,7550 3669,7925 3636,7888"/>
<polygon points="4057,7510 4027,7469 4516,7109 4543,7152 4569,7194 4086,7550 4057,7510"/>
<polygon points="4543,7152 4516,7109 5071,6770 5124,6855 4569,7194 4543,7152"/>
<polygon points="3087,13407 3090,12733 3140,12735 3189,12736 3186,13408 3087,13407"/>
<polygon points="3140,12735 3090,12733 3105,12109 3155,12112 3204,12114 3189,12736 3140,12735"/>
<polygon points="3155,12112 3105,12109 3135,11527 3185,11532 3234,11536 3204,12114 3155,12112"/>
<polygon points="3185,11532 3135,11527 3182,10983 3232,10990 3281,10996 3234,11536 3185,11532"/>
<polygon points="3232,10990 3182,10983 3252,10468 3302,10478 3351,10487 3281,10996 3232,10990"/>
<polygon points="3302,10478 3252,10468 3348,9979 3397,9992 3445,10004 3351,10487 3302,10478"/>
<polygon points="3397,9992 3348,9979 3474,9509 3522,9526 3569,9542 3445,10004 3397,9992"/>
<polygon points="3522,9526 3474,9509 3634,9052 3680,9073 3725,9093 3569,9542 3522,9526"/>
<polygon points="3680,9073 3634,9052 3830,8605 3875,8629 3919,8652 3725,9093 3680,9073"/>
<polygon points="3875,8629 3830,8605 4067,8159 4110,8186 4152,8212 3919,8652 3875,8629"/>
<polygon points="4110,8186 4067,8159 4349,7710 4390,7740 4430,7769 4152,8212 4110,8186"/>
<polygon points="4390,7740 4349,7710 4679,7251 4718,7283 4756,7314 4430,7769 4390,7740"/>
<polygon points="4718,7283 4679,7251 5059,6780 5136,6843 4756,7314 4718,7283"/>
<polygon points="4031,13414 4036,12746 4086,12748 4135,12749 4130,13415 4031,13414"/>
<polygon points="4086,12748 4036,12746 4056,12085 4106,12088 4155,12090 4135,12749 4086,12748"/>
<polygon points="4106,12088 4056,12085 4092,11428 4142,11433 4191,11437 4155,12090 4106,12088"/>
<polygon points="4142,11433 4092,11428 4147,10776 4197,10782 4246,10787 4191,11437 4142,11433"/>
<polygon points="4197,10782 4147,10776 4225,10123 4275,10131 4324,10138 4246,10787 4197,10782"/>
<polygon points="4275,10131 4225,10123 4327,9469 4377,9479 4426,9488 4324,10138 4275,10131"/>
<polygon points="4377,9479 4327,9469 4459,8811 4508,8823 4556,8834 4426,9488 4377,9479"/>
<polygon points="4508,8823 4459,8811 4621,8146 4669,8161 4716,8175 4556,8834 4508,8823"/>
<polygon points="4669,8161 4621,8146 4817,7474 4865,7491 4912,7507 4716,8175 4669,8161"/>
<polygon points="4865,7491 4817,7474 5049,6795 5144,6828 4912,7507 4865,7491"/>
<polygon points="898,307 904,954 855,956 805,957 799,308 898,307"/>
<polygon points="855,956 904,954 928,1580 879,1584 829,1587 805,957 855,956"/>
<polygon points="879,1584 928,1580 974,2183 925,2190 875,2196 829,1587 879,1584"/>
<polygon points="925,2190 974,2183 1048,2761 999,2771 949,2780 875,2196 925,2190"/>
<polygon points="999,2771 1048,2761 1153,3310 1105,3324 1056,3337 949,2780 999,2771"/>
<polygon points="1105,3324 1153,3310 1295,3830 1249,3848 1202,3865 1056,3337 1105,3324"/>
<polygon points="1249,3848 1295,3830 1479,4317 1435,4340 1390,4362 1202,3865 1249,3848"/>
<polygon points="1435,4340 1479,4317 1711,4769 1670,4798 1628,4826 1390,4362 1435,4340"/>
<polygon points="1670,4798 1711,4769 1994,5187 1957,5221 1919,5254 1628,4826 1670,4798"/>
<polygon points="1957,5221 1994,5187 2335,5565 2303,5604 2270,5642 1919,5254 1957,5221"/>
<polygon points="2303,5604 2335,5565 2739,5905 2713,5948 2686,5990 2270,5642 2303,5604"/>
<polygon points="2713,5948 2739,5905 3211,6202 3191,6248 3170,6293 2686,5990 2713,5948"/>
<polygon points="3191,6248 3211,6202 3758,6455 3743,6503 3727,6550 3170,6293 3191,6248"/>
<polygon points="3743,6503 3758,6455 4384,6662 4374,6711 4363,6759 3727,6550 3743,6503"/>
<polygon points="4374,6711 4384,6662 5099,6821 5078,6918 4363,6759 4374,6711"/>
<polygon points="2079,280 2088,1012 2039,1015 1989,1017 1980,281 2079,280"/>
<polygon points="2039,1015 2088,1012 2120,1696 2071,1701 2021,1705 1989,1017 2039,1015"/>
<polygon points="2071,1701 2120,1696 2178,2335 2129,2343 2079,2350 2021,1705 2071,1701"/>
<polygon points="2129,2343 2178,2335 2265,2930 2217,2941 2168,2951 2079,2350 2129,2343"/>
<polygon points="2217,2941 2265,2930 2387,3485 2340,3500 2292,3514 2168,2951 2217,2941"/>
<polygon points="2340,3500 2387,3485 2548,4002 2502,4022 2455,4041 2292,3514 2340,3500"/>
<polygon points="2502,4022 2548,4002 2751,4484 2708,4509 2664,4533 2455,4041 2502,4022"/>
<polygon points="2708,4509 2751,4484 3001,4936 2961,4965 2920,4993 2664,4533 2708,4509"/>
<polygon points="2961,4965 3001,4936 3302,5358 3265,5392 3227,5425 2920,4993 2961,4965"/>
<polygon points="3265,5392 3302,5358 3659,5756 3626,5794 3592,5831 3227,5425 3265,5392"/>
<polygon points="3626,5794 3659,5756 4076,6131 4047,6172 4017,6212 3592,5831 3626,5794"/>
<polygon points="4047,6172 4076,6131 4559,6487 4533,6530 4506,6572 4017,6212 4047,6172"/>
<polygon points="4533,6530 4559,6487 5114,6827 5061,6912 4506,6572 4533,6530"/>
<polygon points="3176,274 3179,945 3130,947 3080,948 3077,275 3176,274"/>
<polygon points="3130,947 3179,945 3194,1567 3145,1570 3095,1572 3080,948 3130,947"/>
<polygon points="3145,1570 3194,1567 3224,2145 3175,2150 3125,2154 3095,1572 3145,1570"/>
<polygon points="3175,2150 3224,2145 3271,2685 3222,2692 3172,2698 3125,2154 3175,2150"/>
<polygon points="3222,2692 3271,2685 3341,3194 3292,3204 3242,3213 3172,2698 3222,2692"/>
<polygon points="3292,3204 3341,3194 3435,3677 3387,3690 3338,3702 3242,3213 3292,3204"/>
<polygon points="3387,3690 3435,3677 3559,4139 3512,4156 3464,4172 3338,3702 3387,3690"/>
<polygon points="3512,4156 3559,4139 3715,4588 3670,4609 3624,4629 3464,4172 3512,4156"/>
<polygon points="3670,4609 3715,4588 3909,5029 3865,5053 3820,5076 3624,4629 3670,4609"/>
<polygon points="3865,5053 3909,5029 4142,5469 4100,5496 4057,5522 3820,5076 3865,5053"/>
<polygon points="4100,5496 4142,5469 4420,5912 4380,5942 4339,5971 4057,5522 4100,5496"/>
<polygon points="4380,5942 4420,5912 4746,6367 4708,6399 4669,6430 4339,5971 4380,5942"/>
<polygon points="4708,6399 4746,6367 5126,6839 5049,6902 4669,6430 4708,6399"/>
<polygon points="4120,267 4125,932 4076,934 4026,935 4021,268 4120,267"/>
<polygon points="4076,934 4125,932 4145,1591 4096,1594 4046,1596 4026,935 4076,934"/>
<polygon points="4096,1594 4145,1591 4181,2244 4132,2249 4082,2253 4046,1596 4096,1594"/>
<polygon points="4132,2249 4181,2244 4236,2894 4187,2900 4137,2905 4082,2253 4132,2249"/>
<polygon points="4187,2900 4236,2894 4314,3543 4265,3551 4215,3558 4137,2905 4187,2900"/>
<polygon points="4265,3551 4314,3543 4416,4193 4367,4203 4317,4212 4215,3558 4265,3551"/>
<polygon points="4367,4203 4416,4193 4546,4847 4498,4859 4449,4870 4317,4212 4367,4203"/>
<polygon points="4498,4859 4546,4847 4706,5506 4659,5521 4611,5535 4449,4870 4498,4859"/>
<polygon points="4659,5521 4706,5506 4902,6174 4855,6191 4807,6207 4611,5535 4659,5521"/>
<polygon points="4855,6191 4902,6174 5134,6854 5039,6887 4807,6207 4855,6191"/>
</g>
<g style="stroke:none;fill:rgb(0,0,0)">
<polygon points="5234,6829 5222,6885 5191,6932 5144,6963 5088,6975 5031,6963 4985,6932 4953,6885 4942,6829 4953,6772 4985,6726 5031,6694 5088,6683 5144,6694 5191,6726 5222,6772 5234,6829"/>
</g>
<g style="stroke:none;fill:rgb(255,0,0)">
<polygon points="15082,13350 15082,208 15182,208 15182,13350 15082,13350"/>
<polygon points="19307,13334 19300,12686 19350,12685 19399,12683 19406,13333 19307,13334"/>
<polygon points="19350,12685 19300,12686 19276,12060 19326,12057 19375,12053 19399,12683 19350,12685"/>
<polygon points="19326,12057 19276,12060 19230,11457 19280,11451 19329,11444 19375,12053 19326,12057"/>
<polygon points="19280,11451 19230,11457 19156,10879 19206,10870 19255,10860 19329,11444 19280,11451"/>
<polygon points="19206,10870 19156,10879 19051,10330 19100,10317 19148,10303 19255,10860 19206,10870"/>
<polygon points="19100,10317 19051,10330 18909,9810 18956,9793 19002,9775 19148,10303 19100,10317"/>
<polygon points="18956,9793 18909,9810 18725,9323 18770,9301 18814,9278 19002,9775 18956,9793"/>
<polygon points="18770,9301 18725,9323 18493,8871 18535,8843 18576,8814 18814,9278 18770,9301"/>
<polygon points="18535,8843 18493,8871 18210,8453 18248,8420 18285,8386 18576,8814 18535,8843"/>
<polygon points="18248,8420 18210,8453 17869,8075 17902,8037 17934,7998 18285,8386 18248,8420"/>
<polygon points="17902,8037 17869,8075 17465,7735 17492,7693 17518,7650 17934,7998 17902,8037"/>
<polygon points="17492,7693 17465,7735 16993,7438 17014,7393 17034,7347 17518,7650 17492,7693"/>
<polygon points="17014,7393 16993,7438 16446,7185 16462,7138 16477,7090 17034,7347 17014,7393"/>
<polygon points="16462,7138 16446,7185 15820,6978 15831,6930 15841,6881 16477,7090 16462,7138"/>
<polygon points="15831,6930 15820,6978 15106,6820 15127,6723 15841,6881 15831,6930"/>
<polygon points="18126,13361 18116,12628 18166,12626 18215,12623 18225,13360 18126,13361"/>
<polygon points="18166,12626 18116,12628 18084,11944 18134,11940 18183,11935 18215,12623 18166,12626"/>
<polygon points="18134,11940 18084,11944 18026,11305 18076,11298 18125,11290 18183,11935 18134,11940"/>
<polygon points="18076,11298 18026,11305 17939,10710 17988,10700 18036,10689 18125,11290 18076,11298"/>
<polygon points="17988,10700 17939,10710 17817,10155 17865,10141 17912,10126 18036,10689 17988,10700"/>
<polygon points="17865,10141 17817,10155 17656,9638 17703,9619 17749,9599 17912,10126 17865,10141"/>
<polygon points="17703,9619 17656,9638 17453,9156 17497,9132 17540,9107 17749,9599 17703,9619"/>
<polygon points="17497,9132 17453,9156 17203,8704 17244,8676 17284,8647 17540,9107 17497,9132"/>
<polygon points="17244,8676 17203,8704 16902,8282 16940,8249 16977,8215 17284,8647 17244,8676"/>
<polygon points="16940,8249 16902,8282 16545,7884 16579,7847 16612,7809 16977,8215 16940,8249"/>
<polygon points="16579,7847 16545,7884 16128,7509 16158,7469 16187,7428 16612,7809 16579,7847"/>
<polygon points="16158,7469 16128,7509 15645,7153 15672,7111 15698,7068 16187,7428 16158,7469"/>
<polygon points="15672,7111 15645,7153 15091,6814 15144,6729 15698,7068 15672,7111"/>
<polygon points="17029,13367 17025,12695 17075,12694 17124,12692 17128,13366 17029,13367"/>
<polygon points="17075,12694 17025,12695 17010,12073 17060,12071 17109,12068 17124,12692 17075,12694"/>
<polygon points="17060,12071 17010,12073 16980,11495 17030,11491 17079,11486 17109,12068 17060,12071"/>
<polygon points="17030,11491 16980,11495 16933,10955 16983,10949 17032,10942 17079,11486 17030,11491"/>
<polygon points="16983,10949 16933,10955 16863,10446 16913,10437 16962,10427 17032,10942 16983,10949"/>
<polygon points="16913,10437 16863,10446 16769,9963 16818,9951 16866,9938 16962,10427 16913,10437"/>
<polygon points="16818,9951 16769,9963 16645,9501 16693,9485 16740,9468 16866,9938 16818,9951"/>
<polygon points="16693,9485 16645,9501 16489,9052 16535,9032 16580,9011 16740,9468 16693,9485"/>
<polygon points="16535,9032 16489,9052 16295,8611 16340,8588 16384,8564 16580,9011 16535,9032"/>
<polygon points="16340,8588 16295,8611 16062,8171 16105,8145 16147,8118 16384,8564 16340,8588"/>
<polygon points="16105,8145 16062,8171 15784,7728 15825,7699 15865,7669 16147,8118 16105,8145"/>
<polygon points="15825,7699 15784,7728 15458,7273 15497,7242 15535,7210 15865,7669 15825,7699"/>
<polygon points="15497,7242 15458,7273 15079,6802 15156,6739 15535,7210 15497,7242"/>
<polygon points="16085,13374 16079,12708 16129,12707 16178,12705 16184,13373 16085,13374"/>
<polygon points="16129,12707 16079,12708 16059,12049 16109,12047 16158,12044 16178,12705 16129,12707"/>
<polygon points="16109,12047 16059,12049 16023,11396 16073,11392 16122,11387 16158,12044 16109,12047"/>
<polygon points="16073,11392 16023,11396 15968,10746 16018,10741 16067,10735 16122,11387 16073,11392"/>
<polygon points="16018,10741 15968,10746 15890,10097 15940,10090 15989,10082 16067,10735 16018,10741"/>
<polygon points="15940,10090 15890,10097 15788,9447 15838,9438 15887,9428 15989,10082 15940,10090"/>
<polygon points="15838,9438 15788,9447 15658,8793 15707,8782 15755,8770 15887,9428 15838,9438"/>
<polygon points="15707,8782 15658,8793 15498,8134 15546,8120 15593,8105 15755,8770 15707,8782"/>
<polygon points="15546,8120 15498,8134 15302,7466 15350,7450 15397,7433 15593,8105 15546,8120"/>
<polygon points="15350,7450 15302,7466 15071,6787 15166,6754 15397,7433 15350,7450"/>
<polygon points="19416,267 19409,916 19360,915 19310,913 19317,266 19416,267"/>
<polygon points="19360,915 19409,916 19385,1546 19336,1543 19286,1539 19310,913 19360,915"/>
<polygon points="19336,1543 19385,1546 19339,2155 19290,2149 19240,2142 19286,1539 19336,1543"/>
<polygon points="19290,2149 19339,2155 19265,2739 19216,2730 19166,2720 19240,2142 19290,2149"/>
<polygon points="19216,2730 19265,2739 19158,3296 19110,3283 19061,3269 19166,2720 19216,2730"/>
<polygon points="19110,3283 19158,3296 19012,3824 18966,3807 18919,3789 19061,3269 19110,3283"/>
<polygon points="18966,3807 19012,3824 18824,4321 18780,4299 18735,4276 18919,3789 18966,3807"/>
<polygon points="18780,4299 18824,4321 18586,4785 18545,4757 18503,4728 18735,4276 18780,4299"/>
<polygon points="18545,4757 18586,4785 18295,5213 18258,5180 18220,5146 18503,4728 18545,4757"/>
<polygon points="18258,5180 18295,5213 17944,5601 17912,5563 17879,5524 18220,5146 18258,5180"/>
<polygon points="17912,5563 17944,5601 17528,5949 17502,5907 17475,5864 17879,5524 17912,5563"/>
<polygon points="17502,5907 17528,5949 17044,6252 17024,6207 17003,6161 17475,5864 17502,5907"/>
<polygon points="17024,6207 17044,6252 16487,6509 16472,6462 16456,6414 17003,6161 17024,6207"/>
<polygon points="16472,6462 16487,6509 15851,6718 15841,6670 15830,6621 16456,6414 16472,6462"/>
<polygon points="15841,6670 15851,6718 15137,6877 15116,6780 15830,6621 15841,6670"/>
<polygon points="18235,240 18225,976 18176,974 18126,971 18136,239 18235,240"/>
<polygon points="18176,974 18225,976 18193,1664 18144,1660 18094,1655 18126,971 18176,974"/>
<polygon points="18144,1660 18193,1664 18135,2309 18086,2302 18036,2294 18094,1655 18144,1660"/>
<polygon points="18086,2302 18135,2309 18046,2910 17998,2900 17949,2889 18036,2294 18086,2302"/>
<polygon points="17998,2900 18046,2910 17922,3473 17875,3459 17827,3444 17949,2889 17998,2900"/>
<polygon points="17875,3459 17922,3473 17759,4000 17713,3981 17666,3961 17827,3444 17875,3459"/>
<polygon points="17713,3981 17759,4000 17550,4492 17507,4468 17463,4443 17666,3961 17713,3981"/>
<polygon points="17507,4468 17550,4492 17294,4952 17254,4924 17213,4895 17463,4443 17507,4468"/>
<polygon points="17254,4924 17294,4952 16987,5384 16950,5351 16912,5317 17213,4895 17254,4924"/>
<polygon points="16950,5351 16987,5384 16622,5790 16589,5753 16555,5715 16912,5317 16950,5351"/>
<polygon points="16589,5753 16622,5790 16197,6171 16168,6131 16138,6090 16555,5715 16589,5753"/>
<polygon points="16168,6131 16197,6171 15708,6531 15682,6489 15655,6446 16138,6090 16168,6131"/>
<polygon points="15682,6489 15708,6531 15154,6871 15101,6786 15655,6446 15682,6489"/>
<polygon points="17138,234 17134,907 17085,906 17035,904 17039,233 17138,234"/>
<polygon points="17085,906 17134,907 17119,1531 17070,1529 17020,1526 17035,904 17085,906"/>
<polygon points="17070,1529 17119,1531 17089,2113 17040,2109 16990,2104 17020,1526 17070,1529"/>
<polygon points="17040,2109 17089,2113 17042,2657 16993,2651 16943,2644 16990,2104 17040,2109"/>
<polygon points="16993,2651 17042,2657 16972,3172 16923,3163 16873,3153 16943,2644 16993,2651"/>
<polygon points="16923,3163 16972,3172 16876,3661 16828,3649 16779,3636 16873,3153 16923,3163"/>
<polygon points="16828,3649 16876,3661 16750,4131 16703,4115 16655,4098 16779,3636 16828,3649"/>
<polygon points="16703,4115 16750,4131 16590,4588 16545,4568 16499,4547 16655,4098 16703,4115"/>
<polygon points="16545,4568 16590,4588 16394,5035 16350,5012 16305,4988 16499,4547 16545,4568"/>
<polygon points="16350,5012 16394,5035 16157,5481 16115,5455 16072,5428 16305,4988 16350,5012"/>
<polygon points="16115,5455 16157,5481 15875,5930 15835,5901 15794,5871 16072,5428 16115,5455"/>
<polygon points="15835,5901 15875,5930 15545,6389 15507,6358 15468,6326 15794,5871 15835,5901"/>
<polygon points="15507,6358 15545,6389 15166,6861 15089,6798 15468,6326 15507,6358"/>
<polygon points="16194,227 16188,894 16139,893 16089,891 16095,226 16194,227"/>
<polygon points="16139,893 16188,894 16168,1555 16119,1553 16069,1550 16089,891 16139,893"/>
<polygon points="16119,1553 16168,1555 16132,2212 16083,2208 16033,2203 16069,1550 16119,1553"/>
<polygon points="16083,2208 16132,2212 16077,2864 16028,2859 15978,2853 16033,2203 16083,2208"/>
<polygon points="16028,2859 16077,2864 15999,3517 15950,3510 15900,3502 15978,2853 16028,2859"/>
<polygon points="15950,3510 15999,3517 15897,4171 15848,4162 15798,4152 15900,3502 15950,3510"/>
<polygon points="15848,4162 15897,4171 15765,4829 15717,4818 15668,4806 15798,4152 15848,4162"/>
<polygon points="15717,4818 15765,4829 15603,5494 15556,5480 15508,5465 15668,4806 15717,4818"/>
<polygon points="15556,5480 15603,5494 15407,6166 15360,6150 15312,6133 15508,5465 15556,5480"/>
<polygon points="15360,6150 15407,6166 15176,6846 15081,6813 15312,6133 15360,6150"/>
<polygon points="10853,13353 10859,12703 10909,12705 10958,12706 10952,13354 10853,13353"/>
<polygon points="10909,12705 10859,12703 10883,12073 10933,12077 10982,12080 10958,12706 10909,12705"/>
<polygon points="10933,12077 10883,12073 10929,11464 10979,11471 11028,11477 10982,12080 10933,12077"/>
<polygon points="10979,11471 10929,11464 11003,10880 11053,10890 11102,10899 11028,11477 10979,11471"/>
<polygon points="11053,10890 11003,10880 11110,10323 11159,10337 11207,10350 11102,10899 11053,10890"/>
<polygon points="11159,10337 11110,10323 11256,9795 11303,9813 11349,9830 11207,10350 11159,10337"/>
<polygon points="11303,9813 11256,9795 11444,9298 11489,9321 11533,9343 11349,9830 11303,9813"/>
<polygon points="11489,9321 11444,9298 11682,8834 11724,8863 11765,8891 11533,9343 11489,9321"/>
<polygon points="11724,8863 11682,8834 11973,8406 12011,8440 12048,8473 11765,8891 11724,8863"/>
<polygon points="12011,8440 11973,8406 12324,8018 12357,8057 12389,8095 12048,8473 12011,8440"/>
<polygon points="12357,8057 12324,8018 12740,7670 12767,7713 12793,7755 12389,8095 12357,8057"/>
<polygon points="12767,7713 12740,7670 13224,7367 13245,7413 13265,7458 12793,7755 12767,7713"/>
<polygon points="13245,7413 13224,7367 13781,7110 13797,7158 13812,7205 13265,7458 13245,7413"/>
<polygon points="13797,7158 13781,7110 14417,6901 14428,6950 14438,6998 13812,7205 13797,7158"/>
<polygon points="14428,6950 14417,6901 15132,6743 15153,6840 14438,6998 14428,6950"/>
<polygon points="12034,13380 12043,12643 12093,12646 12142,12648 12133,13381 12034,13380"/>
<polygon points="12093,12646 12043,12643 12075,11955 12125,11960 12174,11964 12142,12648 12093,12646"/>
<polygon points="12125,11960 12075,11955 12133,11310 12183,11318 12232,11325 12174,11964 12125,11960"/>
<polygon points="12183,11318 12133,11310 12222,10709 12271,10720 12319,10730 12232,11325 12183,11318"/>
<polygon points="12271,10720 12222,10709 12346,10146 12394,10161 12441,10175 12319,10730 12271,10720"/>
<polygon points="12394,10161 12346,10146 12509,9619 12556,9639 12602,9658 12441,10175 12394,10161"/>
<polygon points="12556,9639 12509,9619 12718,9127 12762,9152 12805,9176 12602,9658 12556,9639"/>
<polygon points="12762,9152 12718,9127 12974,8667 13015,8696 13055,8724 12805,9176 12762,9152"/>
<polygon points="13015,8696 12974,8667 13281,8235 13319,8269 13356,8302 13055,8724 13015,8696"/>
<polygon points="13319,8269 13281,8235 13646,7829 13680,7867 13713,7904 13356,8302 13319,8269"/>
<polygon points="13680,7867 13646,7829 14071,7448 14101,7489 14130,7529 13713,7904 13680,7867"/>
<polygon points="14101,7489 14071,7448 14560,7088 14587,7131 14613,7173 14130,7529 14101,7489"/>
<polygon points="14587,7131 14560,7088 15115,6749 15168,6834 14613,7173 14587,7131"/>
<polygon points="13131,13386 13134,12712 13184,12714 13233,12715 13230,13387 13131,13386"/>
<polygon points="13184,12714 13134,12712 13149,12088 13199,12091 13248,12093 13233,12715 13184,12714"/>
<polygon points="13199,12091 13149,12088 13179,11506 13229,11511 13278,11515 13248,12093 13199,12091"/>
<polygon points="13229,11511 13179,11506 13226,10962 13276,10969 13325,10975 13278,11515 13229,11511"/>
<polygon points="13276,10969 13226,10962 13296,10447 13346,10457 13395,10466 13325,10975 13276,10969"/>
<polygon points="13346,10457 13296,10447 13392,9958 13441,9971 13489,9983 13395,10466 13346,10457"/>
<polygon points="13441,9971 13392,9958 13518,9488 13566,9505 13613,9521 13489,9983 13441,9971"/>
<polygon points="13566,9505 13518,9488 13678,9031 13724,9052 13769,9072 13613,9521 13566,9505"/>
<polygon points="13724,9052 13678,9031 13874,8584 13919,8608 13963,8631 13769,9072 13724,9052"/>
<polygon points="13919,8608 13874,8584 14111,8138 14154,8165 14196,8191 13963,8631 13919,8608"/>
<polygon points="14154,8165 14111,8138 14393,7689 14434,7719 14474,7748 14196,8191 14154,8165"/>
<polygon points="14434,7719 14393,7689 14723,7230 14762,7262 14800,7293 14474,7748 14434,7719"/>
<polygon points="14762,7262 14723,7230 15103,6759 15180,6822 14800,7293 14762,7262"/>
<polygon points="14075,13393 14080,12725 14130,12727 14179,12728 14174,13394 14075,13393"/>
<polygon points="14130,12727 14080,12725 14100,12064 14150,12067 14199,12069 14179,12728 14130,12727"/>
<polygon points="14150,12067 14100,12064 14136,11407 14186,11412 14235,11416 14199,12069 14150,12067"/>
<polygon points="14186,11412 14136,11407 14191,10755 14241,10761 14290,10766 14235,11416 14186,11412"/>
<polygon points="14241,10761 14191,10755 14269,10102 14319,10110 14368,10117 14290,10766 14241,10761"/>
<polygon points="14319,10110 14269,10102 14371,9448 14421,9458 14470,9467 14368,10117 14319,10110"/>
<polygon points="14421,9458 14371,9448 14503,8790 14552,8802 14600,8813 14470,9467 14421,9458"/>
<polygon points="14552,8802 14503,8790 14665,8125 14713,8140 14760,8154 14600,8813 14552,8802"/>
<polygon points="14713,8140 14665,8125 14861,7453 14909,7470 14956,7486 14760,8154 14713,8140"/>
<polygon points="14909,7470 14861,7453 15093,6774 15188,6807 14956,7486 14909,7470"/>
<polygon points="10942,286 10948,933 10899,935 10849,936 10843,287 10942,286"/>
<polygon points="10899,935 10948,933 10972,1559 10923,1563 10873,1566 10849,936 10899,935"/>
<polygon points="10923,1563 10972,1559 11018,2162 10969,2169 10919,2175 10873,1566 10923,1563"/>
<polygon points="10969,2169 11018,2162 11092,2740 11043,2750 10993,2759 10919,2175 10969,2169"/>
<polygon points="11043,2750 11092,2740 11197,3289 11149,3303 11100,3316 10993,2759 11043,2750"/>
<polygon points="11149,3303 11197,3289 11339,3809 11293,3827 11246,3844 11100,3316 11149,3303"/>
<polygon points="11293,3827 11339,3809 11523,4296 11479,4319 11434,4341 11246,3844 11293,3827"/>
<polygon points="11479,4319 11523,4296 11755,4748 11714,4777 11672,4805 11434,4341 11479,4319"/>
<polygon points="11714,4777 11755,4748 12038,5166 12001,5200 11963,5233 11672,4805 11714,4777"/>
<polygon points="12001,5200 12038,5166 12379,5544 12347,5583 12314,5621 11963,5233 12001,5200"/>
<polygon points="12347,5583 12379,5544 12783,5884 12757,5927 12730,5969 12314,5621 12347,5583"/>
<polygon points="12757,5927 12783,5884 13255,6181 13235,6227 13214,6272 12730,5969 12757,5927"/>
<polygon points="13235,6227 13255,6181 13802,6434 13787,6482 13771,6529 13214,6272 13235,6227"/>
<polygon points="13787,6482 13802,6434 14428,6641 14418,6690 14407,6738 13771,6529 13787,6482"/>
<polygon points="14418,6690 14428,6641 15143,6800 15122,6897 14407,6738 14418,6690"/>
<polygon points="12123,259 12132,991 12083,994 12033,996 12024,260 12123,259"/>
<polygon points="12083,994 12132,991 12164,1675 12115,1680 12065,1684 12033,996 12083,994"/>
<polygon points="12115,1680 12164,1675 12222,2314 12173,2322 12123,2329 12065,1684 12115,1680"/>
<polygon points="12173,2322 12222,2314 12309,2909 12261,2920 12212,2930 12123,2329 12173,2322"/>
<polygon points="12261,2920 12309,2909 12431,3464 12384,3479 12336,3493 12212,2930 12261,2920"/>
<polygon points="12384,3479 12431,3464 12592,3981 12546,4001 12499,4020 12336,3493 12384,3479"/>
<polygon points="12546,4001 12592,3981 12795,4463 12752,4488 12708,4512 12499,4020 12546,4001"/>
<polygon points="12752,4488 12795,4463 13045,4915 13005,4944 12964,4972 12708,4512 12752,4488"/>
<polygon points="13005,4944 13045,4915 13346,5337 13309,5371 13271,5404 12964,4972 13005,4944"/>
<polygon points="13309,5371 13346,5337 13703,5735 13670,5773 13636,5810 13271,5404 13309,5371"/>
<polygon points="13670,5773 13703,5735 14120,6110 14091,6151 14061,6191 13636,5810 13670,5773"/>
<polygon points="14091,6151 14120,6110 14603,6466 14577,6509 14550,6551 14061,6191 14091,6151"/>
<polygon points="14577,6509 14603,6466 15158,6806 15105,6891 14550,6551 14577,6509"/>
<polygon points="13220,253 13223,924 13174,926 13124,927 13121,254 13220,253"/>
<polygon points="13174,926 13223,924 13238,1546 13189,1549 13139,1551 13124,927 13174,926"/>
<polygon points="13189,1549 13238,1546 13268,2124 13219,2129 13169,2133 13139,1551 13189,1549"/>
<polygon points="13219,2129 13268,2124 13315,2664 13266,2671 13216,2677 13169,2133 13219,2129"/>
<polygon points="13266,2671 13315,2664 13385,3173 13336,3183 13286,3192 13216,2677 13266,2671"/>
<polygon points="13336,3183 13385,3173 13479,3656 13431,3669 13382,3681 13286,3192 13336,3183"/>
<polygon points="13431,3669 13479,3656 13603,4118 13556,4135 13508,4151 13382,3681 13431,3669"/>
<polygon points="13556,4135 13603,4118 13759,4567 13714,4588 13668,4608 13508,4151 13556,4135"/>
<polygon points="13714,4588 13759,4567 13953,5008 13909,5032 13864,5055 13668,4608 13714,4588"/>
<polygon points="13909,5032 13953,5008 14186,5448 14144,5475 14101,5501 13864,5055 13909,5032"/>
<polygon points="14144,5475 14186,5448 14464,5891 14424,5921 14383,5950 14101,5501 14144,5475"/>
<polygon points="14424,5921 14464,5891 14790,6346 14752,6378 14713,6409 14383,5950 14424,5921"/>
<polygon points="14752,6378 14790,6346 15170,6818 15093,6881 14713,6409 14752,6378"/>
<polygon points="14164,246 14169,911 14120,913 14070,914 14065,247 14164,246"/>
<polygon points="14120,913 14169,911 14189,1570 14140,1573 14090,1575 14070,914 14120,913"/>
<polygon points="14140,1573 14189,1570 14225,2223 14176,2228 14126,2232 14090,1575 14140,1573"/>
<polygon points="14176,2228 14225,2223 14280,2873 14231,2879 14181,2884 14126,2232 14176,2228"/>
<polygon points="14231,2879 14280,2873 14358,3522 14309,3530 14259,3537 14181,2884 14231,2879"/>
<polygon points="14309,3530 14358,3522 14460,4172 14411,4182 14361,4191 14259,3537 14309,3530"/>
<polygon points="14411,4182 14460,4172 14590,4826 14542,4838 14493,4849 14361,4191 14411,4182"/>
<polygon points="14542,4838 14590,4826 14750,5485 14703,5500 14655,5514 14493,4849 14542,4838"/>
<polygon points="14703,5500 14750,5485 14946,6153 14899,6170 14851,6186 14655,5514 14703,5500"/>
<polygon points="14899,6170 14946,6153 15178,6833 15083,6866 14851,6186 14899,6170"/>
</g>
<g style="stroke:none;fill:rgb(0,0,0)">
<polygon points="15278,6808 15266,6864 15235,6911 15188,6942 15132,6954 15075,6942 15029,6911 14997,6864 14986,6808 14997,6751 15029,6705 15075,6673 15132,6662 15188,6673 15235,6705 15266,6751 15278,6808"/>
</g>
<g style="stroke:none;fill:rgb(153,204,255)">
<polygon points="20174,13429 20174,13658 0,13658 0,13200 20174,13200 20174,13429"/>
<polygon points="20175,229 20175,458 1,458 1,0 20175,0 20175,229"/>
</g>
<g style="stroke:none;fill:rgb(255,0,0)">
<polygon points="5087,10533 5436,9482 4736,9483 5087,10533"/>
</g>
<g style="stroke:rgb(255,0,0);fill:none">
<polyline points="5087,10149 5087,9693" style="fill:none"/>
</g>
<g style="stroke:none;fill:rgb(255,0,0)">
<polygon points="9095,10522 9133,9415 8462,9613 9095,10522"/>
</g>
<g style="stroke:rgb(255,0,0);fill:none">
<polyline points="8987,10156 8857,9716" style="fill:none"/>
</g>
<g style="stroke:none;fill:rgb(255,0,0)">
<polygon points="6882,10522 6976,9419 6295,9583 6882,10522"/>
</g>
<g style="stroke:rgb(255,0,0);fill:none">
<polyline points="6795,10161 6685,9705" style="fill:none"/>
</g>
<g style="stroke:none;fill:rgb(255,0,0)">
<polygon points="5935,10522 6107,9428 5416,9544 5935,10522"/>
</g>
<g style="stroke:rgb(255,0,0);fill:none">
<polyline points="5873,10151 5796,9693" style="fill:none"/>
</g>
<g style="stroke:none;fill:rgb(255,0,0)">
<polygon points="7914,10548 7949,9441 7279,9641 7914,10548"/>
</g>
<g style="stroke:rgb(255,0,0);fill:none">
<polyline points="7803,10175 7674,9742" style="fill:none"/>
</g>
<g style="stroke:none;fill:rgb(255,0,0)">
<polygon points="1074,10521 1706,9612 1035,9414 1074,10521"/>
</g>
<g style="stroke:rgb(255,0,0);fill:none">
<polyline points="1182,10155 1311,9715" style="fill:none"/>
</g>
<g style="stroke:none;fill:rgb(255,0,0)">
<polygon points="3287,10521 3873,9582 3192,9418 3287,10521"/>
</g>
<g style="stroke:rgb(255,0,0);fill:none">
<polyline points="3374,10160 3483,9704" style="fill:none"/>
</g>
<g style="stroke:none;fill:rgb(255,0,0)">
<polygon points="4210,10521 4728,9543 4037,9427 4210,10521"/>
</g>
<g style="stroke:rgb(255,0,0);fill:none">
<polyline points="4272,10150 4348,9692" style="fill:none"/>
</g>
<g style="stroke:none;fill:rgb(255,0,0)">
<polygon points="2255,10547 2889,9640 2219,9440 2255,10547"/>
</g>
<g style="stroke:rgb(255,0,0);fill:none">
<polyline points="2366,10174 2494,9741" style="fill:none"/>
</g>
<g style="stroke:none;fill:rgb(255,0,0)">
<polygon points="5074,3248 4724,4298 5424,4297 5074,3248"/>
</g>
<g style="stroke:rgb(255,0,0);fill:none">
<polyline points="5074,3632 5074,4088" style="fill:none"/>
</g>
<g style="stroke:none;fill:rgb(255,0,0)">
<polygon points="9082,3259 8449,4167 9120,4365 9082,3259"/>
</g>
<g style="stroke:rgb(255,0,0);fill:none">
<polyline points="8974,3625 8844,4064" style="fill:none"/>
</g>
<g style="stroke:none;fill:rgb(255,0,0)">
<polygon points="6869,3259 6282,4197 6963,4361 6869,3259"/>
</g>
<g style="stroke:rgb(255,0,0);fill:none">
<polyline points="6782,3620 6672,4075" style="fill:none"/>
</g>
<g style="stroke:none;fill:rgb(255,0,0)">
<polygon points="5922,3259 5403,4236 6094,4352 5922,3259"/>
</g>
<g style="stroke:rgb(255,0,0);fill:none">
<polyline points="5860,3630 5783,4087" style="fill:none"/>
</g>
<g style="stroke:none;fill:rgb(255,0,0)">
<polygon points="7901,3233 7266,4139 7936,4339 7901,3233"/>
</g>
<g style="stroke:rgb(255,0,0);fill:none">
<polyline points="7790,3606 7661,4038" style="fill:none"/>
</g>
<g style="stroke:none;fill:rgb(255,0,0)">
<polygon points="1060,3260 1022,4366 1693,4168 1060,3260"/>
</g>
<g style="stroke:rgb(255,0,0);fill:none">
<polyline points="1169,3626 1298,4065" style="fill:none"/>
</g>
<g style="stroke:none;fill:rgb(255,0,0)">
<polygon points="3274,3260 3179,4362 3860,4198 3274,3260"/>
</g>
<g style="stroke:rgb(255,0,0);fill:none">
<polyline points="3361,3621 3470,4076" style="fill:none"/>
</g>
<g style="stroke:none;fill:rgb(255,0,0)">
<polygon points="4197,3260 4024,4353 4715,4237 4197,3260"/>
</g>
<g style="stroke:rgb(255,0,0);fill:none">
<polyline points="4259,3631 4335,4088" style="fill:none"/>
</g>
<g style="stroke:none;fill:rgb(255,0,0)">
<polygon points="2242,3234 2206,4340 2876,4140 2242,3234"/>
</g>
<g style="stroke:rgb(255,0,0);fill:none">
<polyline points="2353,3607 2481,4039" style="fill:none"/>
</g>
<g style="stroke:none;fill:rgb(255,0,0)">
<polygon points="15126,10532 15475,9481 14775,9482 15126,10532"/>
</g>
<g style="stroke:rgb(255,0,0);fill:none">
<polyline points="15126,10148 15126,9692" style="fill:none"/>
</g>
<g style="stroke:none;fill:rgb(255,0,0)">
<polygon points="19134,10521 19172,9414 18501,9612 19134,10521"/>
</g>
<g style="stroke:rgb(255,0,0);fill:none">
<polyline points="19026,10155 18896,9715" style="fill:none"/>
</g>
<g style="stroke:none;fill:rgb(255,0,0)">
<polygon points="16921,10521 17015,9418 16334,9582 16921,10521"/>
</g>
<g style="stroke:rgb(255,0,0);fill:none">
<polyline points="16834,10160 16724,9704" style="fill:none"/>
</g>
<g style="stroke:none;fill:rgb(255,0,0)">
<polygon points="15974,10521 16146,9427 15455,9543 15974,10521"/>
</g>
<g style="stroke:rgb(255,0,0);fill:none">
<polyline points="15912,10150 15835,9692" style="fill:none"/>
</g>
<g style="stroke:none;fill:rgb(255,0,0)">
<polygon points="17953,10547 17988,9440 17318,9640 17953,10547"/>
</g>
<g style="stroke:rgb(255,0,0);fill:none">
<polyline points="17842,10174 17713,9741" style="fill:none"/>
</g>
<g style="stroke:none;fill:rgb(255,0,0)">
<polygon points="11113,10520 11745,9611 11074,9413 11113,10520"/>
</g>
<g style="stroke:rgb(255,0,0);fill:none">
<polyline points="11221,10154 11350,9714" style="fill:none"/>
</g>
<g style="stroke:none;fill:rgb(255,0,0)">
<polygon points="13326,10520 13912,9581 13231,9417 13326,10520"/>
</g>
<g style="stroke:rgb(255,0,0);fill:none">
<polyline points="13413,10159 13522,9703" style="fill:none"/>
</g>
<g style="stroke:none;fill:rgb(255,0,0)">
<polygon points="14249,10520 14767,9542 14076,9426 14249,10520"/>
</g>
<g style="stroke:rgb(255,0,0);fill:none">
<polyline points="14311,10149 14387,9691" style="fill:none"/>
</g>
<g style="stroke:none;fill:rgb(255,0,0)">
<polygon points="12294,10546 12928,9639 12258,9439 12294,10546"/>
</g>
<g style="stroke:rgb(255,0,0);fill:none">
<polyline points="12405,10173 12533,9740" style="fill:none"/>
</g>
<g style="stroke:none;fill:rgb(255,0,0)">
<polygon points="15113,3247 14763,4297 15463,4296 15113,3247"/>
</g>
<g style="stroke:rgb(255,0,0);fill:none">
<polyline points="15113,3631 15113,4087" style="fill:none"/>
</g>
<g style="stroke:none;fill:rgb(255,0,0)">
<polygon points="19121,3258 18488,4166 19159,4364 19121,3258"/>
</g>
<g style="stroke:rgb(255,0,0);fill:none">
<polyline points="19013,3624 18883,4063" style="fill:none"/>
</g>
<g style="stroke:none;fill:rgb(255,0,0)">
<polygon points="16908,3258 16321,4196 17002,4360 16908,3258"/>
</g>
<g style="stroke:rgb(255,0,0);fill:none">
<polyline points="16821,3619 16711,4074" style="fill:none"/>
</g>
<g style="stroke:none;fill:rgb(255,0,0)">
<polygon points="15961,3258 15442,4235 16133,4351 15961,3258"/>
</g>
<g style="stroke:rgb(255,0,0);fill:none">
<polyline points="15899,3629 15822,4086" style="fill:none"/>
</g>
<g style="stroke:none;fill:rgb(255,0,0)">
<polygon points="17940,3232 17305,4138 17975,4338 17940,3232"/>
</g>
<g style="stroke:rgb(255,0,0);fill:none">
<polyline points="17829,3605 17700,4037" style="fill:none"/>
</g>
<g style="stroke:none;fill:rgb(255,0,0)">
<polygon points="11100,3259 11061,4365 11732,4167 11100,3259"/>
</g>
<g style="stroke:rgb(255,0,0);fill:none">
<polyline points="11208,3625 11337,4064" style="fill:none"/>
</g>
<g style="stroke:none;fill:rgb(255,0,0)">
<polygon points="13313,3259 13218,4361 13899,4197 13313,3259"/>
</g>
<g style="stroke:rgb(255,0,0);fill:none">
<polyline points="13400,3620 13509,4075" style="fill:none"/>
</g>
<g style="stroke:none;fill:rgb(255,0,0)">
<polygon points="14236,3259 14063,4352 14754,4236 14236,3259"/>
</g>
<g style="stroke:rgb(255,0,0);fill:none">
<polyline points="14298,3630 14374,4087" style="fill:none"/>
</g>
<g style="stroke:none;fill:rgb(255,0,0)">
<polygon points="12281,3233 12245,4339 12915,4139 12281,3233"/>
</g>
<g style="stroke:rgb(255,0,0);fill:none">
<polyline points="12392,3606 12520,4038" style="fill:none"/>
</g>
</svg>