<?xml version="1.0" encoding="UTF-8" standalone="no"?>
<!-- Created with Inkscape (http://www.inkscape.org/) -->

<svg
   xmlns:dc="http://purl.org/dc/elements/1.1/"
   xmlns:cc="http://creativecommons.org/ns#"
   xmlns:rdf="http://www.w3.org/1999/02/22-rdf-syntax-ns#"
   xmlns:svg="http://www.w3.org/2000/svg"
   xmlns="http://www.w3.org/2000/svg"
   xmlns:sodipodi="http://sodipodi.sourceforge.net/DTD/sodipodi-0.dtd"
   xmlns:inkscape="http://www.inkscape.org/namespaces/inkscape"
   version="1.0"
   width="1093.142"
   height="695.70654"
   id="svg2447"
   inkscape:version="0.48.4 r9939"
   sodipodi:docname="zaehlrohr-kennlinie.svg">
  <metadata
     id="metadata35">
    <rdf:RDF>
      <cc:Work
         rdf:about="">
        <dc:format>image/svg+xml</dc:format>
        <dc:type
           rdf:resource="http://purl.org/dc/dcmitype/StillImage" />
        <dc:title></dc:title>
      </cc:Work>
    </rdf:RDF>
  </metadata>
  <sodipodi:namedview
     pagecolor="#ffffff"
     bordercolor="#666666"
     borderopacity="1"
     objecttolerance="10"
     gridtolerance="10"
     guidetolerance="10"
     inkscape:pageopacity="0"
     inkscape:pageshadow="2"
     inkscape:window-width="1440"
     inkscape:window-height="851"
     id="namedview33"
     showgrid="false"
     inkscape:zoom="0.4908153"
     inkscape:cx="697.61579"
     inkscape:cy="350.89551"
     inkscape:window-x="0"
     inkscape:window-y="25"
     inkscape:window-maximized="1"
     inkscape:current-layer="svg2447"
     fit-margin-top="0"
     fit-margin-left="0"
     fit-margin-right="0"
     fit-margin-bottom="0" />
  <defs
     id="defs2450">
    <marker
       refX="0"
       refY="0"
       orient="auto"
       style="overflow:visible"
       id="Arrow2Mstart">
      <path
         d="M 8.7185878,4.0337352 -2.2072895,0.01601326 8.7185884,-4.0017078 c -1.7454984,2.3720609 -1.7354408,5.6174519 -6e-7,8.035443 z"
         transform="scale(0.6,0.6)"
         style="font-size:12px;fill-rule:evenodd;stroke-width:0.625;stroke-linejoin:round"
         id="path3457"
         inkscape:connector-curvature="0" />
    </marker>
    <marker
       refX="0"
       refY="0"
       orient="auto"
       style="overflow:visible"
       id="Arrow2Mend">
      <path
         d="M 8.7185878,4.0337352 -2.2072895,0.01601326 8.7185884,-4.0017078 c -1.7454984,2.3720609 -1.7354408,5.6174519 -6e-7,8.035443 z"
         transform="scale(-0.6,-0.6)"
         style="font-size:12px;fill-rule:evenodd;stroke-width:0.625;stroke-linejoin:round"
         id="path3460"
         inkscape:connector-curvature="0" />
    </marker>
    <marker
       refX="0"
       refY="0"
       orient="auto"
       style="overflow:visible"
       id="Arrow1Lend">
      <path
         d="M 0,0 5,-5 -12.5,0 5,5 0,0 z"
         transform="matrix(-0.8,0,0,-0.8,-10,0)"
         style="fill-rule:evenodd;stroke:#000000;stroke-width:1pt;marker-start:none"
         id="path3436"
         inkscape:connector-curvature="0" />
    </marker>
  </defs>
  <g
     id="layer1"
     transform="translate(-0.4068527,10.575012)" />
  <g
     id="g3971"
     transform="matrix(1.5536383,0,0,1,-20.234024,10.575012)">
    <g
       style="stroke-width:1;stroke-miterlimit:4;stroke-dasharray:none"
       id="g3686"
       transform="translate(-29.608255,-17.319519)">
      <g
         id="g3646"
         style="fill:#000000;fill-opacity:1;stroke:none">
        <path
           inkscape:connector-curvature="0"
           id="path2459"
           d="m 74.983255,23.163269 c -3.187358,8.645885 -6.392031,17.285398 -9.5625,25.9375 2.376613,-0.844519 9.050262,-8.452508 7.9375,-1.96875 0,202.437501 0,404.875001 0,607.312501 215.583335,0.31691 431.166665,0.64683 646.749995,0.96875 -0.87969,3.42808 -8.74597,10.15293 -1.39991,6.53151 9.17417,-3.35643 18.3511,-6.70534 27.52491,-10.06276 -10.36406,-3.78559 -20.70081,-7.64545 -31.0625,-11.4375 0.55214,2.12625 7.59452,8.07832 2.96875,7.90322 -212.58333,-0.32191 -425.16667,-0.64381 -637.749995,-0.96572 0,-201.08333 0,-402.16667 0,-603.250001 2.799647,0.364669 8.689309,7.392403 7.276002,3.311307 -3.613601,-9.787149 -7.199909,-19.58435 -10.807252,-29.373807 -0.625,1.697917 -1.25,3.395833 -1.875,5.09375 z"
           style="fill:#000000;fill-opacity:1;fill-rule:evenodd;stroke:none" />
      </g>
      <g
         id="g3676"
         style="opacity:0.5;fill:#000000;fill-opacity:1;stroke:none">
        <path
           inkscape:connector-curvature="0"
           id="path3657"
           style="fill:#000000;fill-opacity:1;fill-rule:evenodd;stroke:none"
           d="m 119.3125,101.65625 0,9 3,0 0,-9 -3,0 z m 137.03125,0 0,9 3,0 0,-9 -3,0 z m 170.71875,0 0,9 3,0 0,-9 -3,0 z m 227.03125,0 0,9 3,0 0,-9 -3,0 z m -534.78125,18 0,9 3,0 0,-9 -3,0 z m 137.03125,0 0,9 3,0 0,-9 -3,0 z m 170.71875,0 0,9 3,0 0,-9 -3,0 z m 227.03125,0 0,9 3,0 0,-9 -3,0 z m -534.78125,18 0,9 3,0 0,-9 -3,0 z m 137.03125,0 0,9 3,0 0,-9 -3,0 z m 170.71875,0 0,9 3,0 0,-9 -3,0 z m 227.03125,0 0,9 3,0 0,-9 -3,0 z m -534.78125,18 0,9 3,0 0,-9 -3,0 z m 137.03125,0 0,9 3,0 0,-9 -3,0 z m 170.71875,0 0,9 3,0 0,-9 -3,0 z m 227.03125,0 0,9 3,0 0,-9 -3,0 z m -534.78125,18 0,9 3,0 0,-9 -3,0 z m 137.03125,0 0,9 3,0 0,-9 -3,0 z m 170.71875,0 0,9 3,0 0,-9 -3,0 z m 227.03125,0 0,9 3,0 0,-9 -3,0 z m -534.78125,18 0,9 3,0 0,-9 -3,0 z m 137.03125,0 0,9 3,0 0,-9 -3,0 z m 170.71875,0 0,9 3,0 0,-9 -3,0 z m 227.03125,0 0,9 3,0 0,-9 -3,0 z m -534.78125,18 0,9 3,0 0,-9 -3,0 z m 137.03125,0 0,9 3,0 0,-9 -3,0 z m 170.71875,0 0,9 3,0 0,-9 -3,0 z m 227.03125,0 0,9 3,0 0,-9 -3,0 z m -534.78125,18 0,9 3,0 0,-9 -3,0 z m 137.03125,0 0,9 3,0 0,-9 -3,0 z m 170.71875,0 0,9 3,0 0,-9 -3,0 z m 227.03125,0 0,9 3,0 0,-9 -3,0 z m -534.78125,18 0,9 3,0 0,-9 -3,0 z m 137.03125,0 0,9 3,0 0,-9 -3,0 z m 170.71875,0 0,9 3,0 0,-9 -3,0 z m 227.03125,0 0,9 3,0 0,-9 -3,0 z m -534.78125,18 0,9 3,0 0,-9 -3,0 z m 137.03125,0 0,9 3,0 0,-9 -3,0 z m 170.71875,0 0,9 3,0 0,-9 -3,0 z m 227.03125,0 0,9 3,0 0,-9 -3,0 z m -534.78125,18 0,9 3,0 0,-9 -3,0 z m 137.03125,0 0,9 3,0 0,-9 -3,0 z m 170.71875,0 0,9 3,0 0,-9 -3,0 z m 227.03125,0 0,9 3,0 0,-9 -3,0 z m -534.78125,18 0,9 3,0 0,-9 -3,0 z m 137.03125,0 0,9 3,0 0,-9 -3,0 z m 170.71875,0 0,9 3,0 0,-9 -3,0 z m 227.03125,0 0,9 3,0 0,-9 -3,0 z m -534.78125,18 0,9 3,0 0,-9 -3,0 z m 137.03125,0 0,9 3,0 0,-9 -3,0 z m 170.71875,0 0,9 3,0 0,-9 -3,0 z m 227.03125,0 0,9 3,0 0,-9 -3,0 z m -534.78125,18 0,9 3,0 0,-9 -3,0 z m 137.03125,0 0,9 3,0 0,-9 -3,0 z m 170.71875,0 0,9 3,0 0,-9 -3,0 z m 227.03125,0 0,9 3,0 0,-9 -3,0 z m -534.78125,18 0,9 3,0 0,-9 -3,0 z m 137.03125,0 0,9 3,0 0,-9 -3,0 z m 170.71875,0 0,9 3,0 0,-9 -3,0 z m 227.03125,0 0,9 3,0 0,-9 -3,0 z m -534.78125,18 0,9 3,0 0,-9 -3,0 z m 137.03125,0 0,9 3,0 0,-9 -3,0 z m 170.71875,0 0,9 3,0 0,-9 -3,0 z m 227.03125,0 0,9 3,0 0,-9 -3,0 z m -534.78125,18 0,9 3,0 0,-9 -3,0 z m 137.03125,0 0,9 3,0 0,-9 -3,0 z m 170.71875,0 0,9 3,0 0,-9 -3,0 z m 227.03125,0 0,9 3,0 0,-9 -3,0 z m -534.78125,18 0,9 3,0 0,-9 -3,0 z m 137.03125,0 0,9 3,0 0,-9 -3,0 z m 170.71875,0 0,9 3,0 0,-9 -3,0 z m 227.03125,0 0,9 3,0 0,-9 -3,0 z m -534.78125,18 0,9 3,0 0,-9 -3,0 z m 137.03125,0 0,9 3,0 0,-9 -3,0 z m 170.71875,0 0,9 3,0 0,-9 -3,0 z m 227.03125,0 0,9 3,0 0,-9 -3,0 z m -534.78125,18 0,9 3,0 0,-9 -3,0 z m 137.03125,0 0,9 3,0 0,-9 -3,0 z m 170.71875,0 0,9 3,0 0,-9 -3,0 z m 227.03125,0 0,9 3,0 0,-9 -3,0 z m -534.78125,18 0,9 3,0 0,-9 -3,0 z m 137.03125,0 0,9 3,0 0,-9 -3,0 z m 170.71875,0 0,9 3,0 0,-9 -3,0 z m 227.03125,0 0,9 3,0 0,-9 -3,0 z m -534.78125,18 0,9 3,0 0,-9 -3,0 z m 137.03125,0 0,9 3,0 0,-9 -3,0 z m 170.71875,0 0,9 3,0 0,-9 -3,0 z m 227.03125,0 0,9 3,0 0,-9 -3,0 z m -534.78125,18 0,9 3,0 0,-9 -3,0 z m 137.03125,0 0,9 3,0 0,-9 -3,0 z m 170.71875,0 0,9 3,0 0,-9 -3,0 z m 227.03125,0 0,9 3,0 0,-9 -3,0 z m -534.78125,18 0,9 3,0 0,-9 -3,0 z m 137.03125,0 0,9 3,0 0,-9 -3,0 z m 170.71875,0 0,9 3,0 0,-9 -3,0 z m 227.03125,0 0,9 3,0 0,-9 -3,0 z m -534.78125,18 0,9 3,0 0,-9 -3,0 z m 137.03125,0 0,9 3,0 0,-9 -3,0 z m 170.71875,0 0,9 3,0 0,-9 -3,0 z m 227.03125,0 0,9 3,0 0,-9 -3,0 z m -534.78125,18 0,9 3,0 0,-9 -3,0 z m 137.03125,0 0,9 3,0 0,-9 -3,0 z m 170.71875,0 0,9 3,0 0,-9 -3,0 z m 227.03125,0 0,9 3,0 0,-9 -3,0 z m -534.78125,18 0,9 3,0 0,-9 -3,0 z m 137.03125,0 0,9 3,0 0,-9 -3,0 z m 170.71875,0 0,9 3,0 0,-9 -3,0 z m 227.03125,0 0,9 3,0 0,-9 -3,0 z m -534.78125,18 0,9 3,0 0,-9 -3,0 z m 137.03125,0 0,9 3,0 0,-9 -3,0 z m 170.71875,0 0,9 3,0 0,-9 -3,0 z m 227.03125,0 0,9 3,0 0,-9 -3,0 z m -534.78125,18 0,9 3,0 0,-9 -3,0 z m 137.03125,0 0,9 3,0 0,-9 -3,0 z m 170.71875,0 0,9 3,0 0,-9 -3,0 z m 227.03125,0 0,9 3,0 0,-9 -3,0 z m -534.78125,18 0,9 3,0 0,-9 -3,0 z m 137.03125,0 0,9 3,0 0,-9 -3,0 z m 170.71875,0 0,9 3,0 0,-9 -3,0 z m 227.03125,0 0,9 3,0 0,-9 -3,0 z m -534.78125,18 0,8.46875 3,0 0,-8.46875 -3,0 z m 137.03125,0 0,8.46875 3,0 0,-8.46875 -3,0 z m 170.71875,0 0,8.46875 3,0 0,-8.46875 -3,0 z m 227.03125,0 0,8.46875 3,0 0,-8.46875 -3,0 z" />
      </g>
    </g>
    <path
       inkscape:connector-curvature="0"
       id="path3692"
       style="fill:none;stroke:#000000;stroke-width:7.9000001;stroke-linecap:butt;stroke-linejoin:miter;stroke-miterlimit:4;stroke-opacity:1;stroke-dasharray:none"
       d="m 53.814822,633.76403 c 0.275861,-11.02426 1.43558,-55.08945 4.50576,-91.23404 3.355989,-39.50935 9.63957,-62.58638 27.873683,-75.95113 17.778155,-13.03057 44.186145,-15.20162 73.098005,-16.92093 40.2648,-2.39444 223.42744,9.1071 251.50897,-155.33952 4.93411,-28.89438 9.02693,-59.07633 30.54048,-74.06205 17.59135,-12.25362 31.58776,-15.66779 79.30599,-18.7272 47.71823,-3.0594 95.99376,-5.24818 106.35822,-18.78054 10.36445,-13.53236 26.60909,-58.4991 33.78369,-83.084059" />
  </g>
  <text
     x="-337.2627"
     y="30.390625"
     transform="matrix(0,-1,1,0,0,0)"
     style="font-size:40px;font-style:normal;font-variant:normal;font-weight:normal;font-stretch:normal;text-align:center;line-height:125%;writing-mode:lr-tb;text-anchor:middle;fill:#000000;fill-opacity:1;stroke:none;font-family:Sans;-inkscape-font-specification:Sans"
     id="text2198"
     xml:space="preserve"
     sodipodi:linespacing="125%"><tspan
       x="-612.94922"
       y="30.390625"
       style="font-size:40px;font-style:normal;font-variant:normal;font-weight:normal;font-stretch:normal;text-align:start;line-height:125%;writing-mode:lr-tb;text-anchor:start;font-family:Sans;-inkscape-font-specification:Sans"
       id="tspan2200">Anzahl Elektronen-Ionen-Paare</tspan></text>
  <text
     x="-282.59924"
     y="98.219276"
     transform="matrix(0,-1,1,0,0,0)"
     style="font-size:40px;font-style:normal;font-variant:normal;font-weight:normal;font-stretch:normal;text-align:center;line-height:125%;writing-mode:lr-tb;text-anchor:middle;fill:#000000;fill-opacity:1;stroke:none;font-family:Sans;-inkscape-font-specification:Sans"
     id="text2202"
     xml:space="preserve"
     sodipodi:linespacing="125%"><tspan
       x="-282.59924"
       y="98.219276"
       style="font-size:40px;font-style:normal;font-variant:normal;font-weight:normal;font-stretch:normal;text-align:center;line-height:125%;writing-mode:lr-tb;text-anchor:middle;font-family:Sans;-inkscape-font-specification:Sans"
       id="tspan2204">Rekombination</tspan></text>
  <text
     x="-234.02893"
     y="245.62161"
     transform="matrix(0,-1,1,0,0,0)"
     style="font-size:40px;font-style:normal;font-variant:normal;font-weight:normal;font-stretch:normal;text-align:center;line-height:125%;writing-mode:lr-tb;text-anchor:middle;fill:#000000;fill-opacity:1;stroke:none;font-family:Sans;-inkscape-font-specification:Sans"
     id="text2206"
     xml:space="preserve"
     sodipodi:linespacing="125%"><tspan
       x="-234.02893"
       y="245.62161"
       style="font-size:40px;font-style:normal;font-variant:normal;font-weight:normal;font-stretch:normal;text-align:center;line-height:125%;writing-mode:lr-tb;text-anchor:middle;font-family:Sans;-inkscape-font-specification:Sans"
       id="tspan2208">Ionisationskammer</tspan></text>
  <text
     x="-216.90433"
     y="462.54129"
     transform="matrix(0,-1,1,0,0,0)"
     style="font-size:40px;font-style:normal;font-variant:normal;font-weight:normal;font-stretch:normal;text-align:center;line-height:125%;writing-mode:lr-tb;text-anchor:middle;fill:#000000;fill-opacity:1;stroke:none;font-family:Sans;-inkscape-font-specification:Sans"
     id="text2210"
     xml:space="preserve"
     sodipodi:linespacing="125%"><tspan
       x="-216.90433"
       y="462.54129"
       style="font-size:40px;font-style:normal;font-variant:normal;font-weight:normal;font-stretch:normal;text-align:center;line-height:125%;writing-mode:lr-tb;text-anchor:middle;font-family:Sans;-inkscape-font-specification:Sans"
       id="tspan2212">Proportionalbereich</tspan></text>
  <text
     x="532.65558"
     y="68.773567"
     style="font-size:40px;font-style:normal;font-variant:normal;font-weight:normal;font-stretch:normal;text-align:center;line-height:125%;writing-mode:lr-tb;text-anchor:middle;fill:#000000;fill-opacity:1;stroke:none;font-family:Sans;-inkscape-font-specification:Sans"
     id="text2214"
     xml:space="preserve"
     sodipodi:linespacing="125%"><tspan
       x="532.65558"
       y="68.773567"
       style="font-size:40px;font-style:normal;font-variant:normal;font-weight:normal;font-stretch:normal;text-align:center;line-height:125%;writing-mode:lr-tb;text-anchor:middle;font-family:Sans;-inkscape-font-specification:Sans"
       id="tspan2216" /></text>
  <text
     x="-328.64651"
     y="1074.6281"
     transform="matrix(0,-1,1,0,0,0)"
     style="font-size:40px;font-style:normal;font-variant:normal;font-weight:normal;font-stretch:normal;text-align:center;line-height:125%;writing-mode:lr-tb;text-anchor:middle;fill:#000000;fill-opacity:1;stroke:none;font-family:Sans;-inkscape-font-specification:Sans"
     id="text2218"
     xml:space="preserve"
     sodipodi:linespacing="125%"><tspan
       x="-328.64651"
       y="1074.6281"
       style="font-size:40px;font-style:normal;font-variant:normal;font-weight:normal;font-stretch:normal;text-align:center;line-height:125%;writing-mode:lr-tb;text-anchor:middle;font-family:Sans;-inkscape-font-specification:Sans"
       id="tspan2220">Gasentladung</tspan></text>
  <text
     x="713.00806"
     y="687.38623"
     style="font-size:40px;font-style:normal;font-variant:normal;font-weight:normal;font-stretch:normal;text-align:start;line-height:125%;writing-mode:lr-tb;text-anchor:start;fill:#000000;fill-opacity:1;stroke:none;font-family:Sans;-inkscape-font-specification:Sans"
     id="text2222"
     xml:space="preserve"
     sodipodi:linespacing="125%"><tspan
       x="713.00806"
       y="687.38623"
       style="font-size:40px;font-style:normal;font-variant:normal;font-weight:normal;font-stretch:normal;text-align:start;line-height:125%;writing-mode:lr-tb;text-anchor:start;font-family:Sans;-inkscape-font-specification:Sans"
       id="tspan2224">Zählrohrspannung</tspan></text>
  <text
     xml:space="preserve"
     style="font-size:40px;font-style:normal;font-weight:normal;line-height:125%;letter-spacing:0px;word-spacing:0px;fill:#000000;fill-opacity:1;stroke:none;font-family:Sans"
     x="696.11853"
     y="89.812302"
     id="text3113"
     sodipodi:linespacing="125%"><tspan
       sodipodi:role="line"
       id="tspan3115"
       x="696.11853"
       y="89.812302">Plateau-</tspan><tspan
       sodipodi:role="line"
       x="696.11853"
       y="139.8123"
       id="tspan3117" /></text>
  <text
     xml:space="preserve"
     style="font-size:40px;font-style:normal;font-weight:normal;line-height:125%;letter-spacing:0px;word-spacing:0px;fill:#000000;fill-opacity:1;stroke:none;font-family:Sans"
     x="704.849"
     y="143.1174"
     id="text3119"
     sodipodi:linespacing="125%"><tspan
       sodipodi:role="line"
       id="tspan3121"
       x="704.849"
       y="143.1174">bereich</tspan></text>
</svg>
